<svg width="320" height="384" viewBox="0 0 320 384" fill="none" xmlns="http://www.w3.org/2000/svg">
<g id="admiration">
<rect width="320" height="384" rx="16" fill="#32D583"/>
<path id="admiration_2" d="M75.672 40.92C77.0373 40.92 78.2107 41.2293 79.192 41.848C80.1733 42.4667 80.8987 43.3093 81.368 44.376V41.144H86.808V59H81.368V55.768C80.8987 56.8347 80.1733 57.6773 79.192 58.296C78.2107 58.9147 77.0373 59.224 75.672 59.224C74.2 59.224 72.8773 58.8613 71.704 58.136C70.552 57.3893 69.6347 56.3227 68.952 54.936C68.2907 53.5493 67.96 51.928 67.96 50.072C67.96 48.1947 68.2907 46.5733 68.952 45.208C69.6347 43.8213 70.552 42.7653 71.704 42.04C72.8773 41.2933 74.2 40.92 75.672 40.92ZM77.432 45.72C76.2587 45.72 75.3093 46.104 74.584 46.872C73.88 47.64 73.528 48.7067 73.528 50.072C73.528 51.4373 73.88 52.504 74.584 53.272C75.3093 54.04 76.2587 54.424 77.432 54.424C78.584 54.424 79.5227 54.0293 80.248 53.24C80.9947 52.4507 81.368 51.3947 81.368 50.072C81.368 48.728 80.9947 47.672 80.248 46.904C79.5227 46.1147 78.584 45.72 77.432 45.72ZM97.3595 40.92C98.7248 40.92 99.8982 41.2293 100.879 41.848C101.861 42.4667 102.575 43.3093 103.023 44.376V35.32H108.495V59H103.023V55.768C102.575 56.8347 101.861 57.6773 100.879 58.296C99.8982 58.9147 98.7248 59.224 97.3595 59.224C95.8875 59.224 94.5648 58.8613 93.3915 58.136C92.2395 57.3893 91.3222 56.3227 90.6395 54.936C89.9782 53.5493 89.6475 51.928 89.6475 50.072C89.6475 48.1947 89.9782 46.5733 90.6395 45.208C91.3222 43.8213 92.2395 42.7653 93.3915 42.04C94.5648 41.2933 95.8875 40.92 97.3595 40.92ZM99.1195 45.72C97.9462 45.72 96.9968 46.104 96.2715 46.872C95.5675 47.64 95.2155 48.7067 95.2155 50.072C95.2155 51.4373 95.5675 52.504 96.2715 53.272C96.9968 54.04 97.9462 54.424 99.1195 54.424C100.271 54.424 101.21 54.0293 101.935 53.24C102.682 52.4507 103.055 51.3947 103.055 50.072C103.055 48.728 102.682 47.672 101.935 46.904C101.21 46.1147 100.271 45.72 99.1195 45.72ZM135.399 40.952C137.596 40.952 139.324 41.6347 140.583 43C141.842 44.344 142.471 46.2213 142.471 48.632V59H137.031V49.272C137.031 48.1413 136.722 47.2667 136.103 46.648C135.506 46.008 134.684 45.688 133.639 45.688C132.551 45.688 131.687 46.0293 131.047 46.712C130.428 47.3733 130.119 48.312 130.119 49.528V59H124.647V49.272C124.647 48.1413 124.348 47.2667 123.751 46.648C123.154 46.008 122.332 45.688 121.287 45.688C120.199 45.688 119.335 46.0187 118.695 46.68C118.055 47.3413 117.735 48.2907 117.735 49.528V59H112.263V41.144H117.735V44.184C118.204 43.1813 118.919 42.392 119.879 41.816C120.86 41.24 122.002 40.952 123.303 40.952C124.668 40.952 125.874 41.272 126.919 41.912C127.964 42.5307 128.754 43.4267 129.287 44.6C129.906 43.4907 130.748 42.6053 131.815 41.944C132.903 41.2827 134.098 40.952 135.399 40.952ZM145.595 36.12C145.595 35.288 145.893 34.6053 146.491 34.072C147.088 33.5173 147.877 33.24 148.859 33.24C149.84 33.24 150.629 33.5173 151.227 34.072C151.824 34.6053 152.123 35.288 152.123 36.12C152.123 36.9307 151.824 37.6133 151.227 38.168C150.629 38.7013 149.84 38.968 148.859 38.968C147.877 38.968 147.088 38.7013 146.491 38.168C145.893 37.6133 145.595 36.9307 145.595 36.12ZM151.579 41.144V59H146.107V41.144H151.579ZM160.829 44.504C161.511 43.416 162.386 42.552 163.453 41.912C164.541 41.272 165.714 40.952 166.973 40.952V46.808H165.405C163.954 46.808 162.823 47.1173 162.013 47.736C161.223 48.3547 160.829 49.4 160.829 50.872V59H155.357V41.144H160.829V44.504ZM176.047 40.92C177.412 40.92 178.586 41.2293 179.567 41.848C180.548 42.4667 181.274 43.3093 181.743 44.376V41.144H187.183V59H181.743V55.768C181.274 56.8347 180.548 57.6773 179.567 58.296C178.586 58.9147 177.412 59.224 176.047 59.224C174.575 59.224 173.252 58.8613 172.079 58.136C170.927 57.3893 170.01 56.3227 169.327 54.936C168.666 53.5493 168.335 51.928 168.335 50.072C168.335 48.1947 168.666 46.5733 169.327 45.208C170.01 43.8213 170.927 42.7653 172.079 42.04C173.252 41.2933 174.575 40.92 176.047 40.92ZM177.807 45.72C176.634 45.72 175.684 46.104 174.959 46.872C174.255 47.64 173.903 48.7067 173.903 50.072C173.903 51.4373 174.255 52.504 174.959 53.272C175.684 54.04 176.634 54.424 177.807 54.424C178.959 54.424 179.898 54.0293 180.623 53.24C181.37 52.4507 181.743 51.3947 181.743 50.072C181.743 48.728 181.37 47.672 180.623 46.904C179.898 46.1147 178.959 45.72 177.807 45.72ZM201.062 54.296V59H198.598C196.508 59 194.876 58.488 193.702 57.464C192.55 56.4187 191.974 54.7013 191.974 52.312V45.752H189.574V41.144H191.974V36.76H197.446V41.144H201.03V45.752H197.446V52.408C197.446 53.112 197.585 53.6027 197.862 53.88C198.161 54.1573 198.652 54.296 199.334 54.296H201.062ZM203.626 36.12C203.626 35.288 203.925 34.6053 204.522 34.072C205.119 33.5173 205.909 33.24 206.89 33.24C207.871 33.24 208.661 33.5173 209.258 34.072C209.855 34.6053 210.154 35.288 210.154 36.12C210.154 36.9307 209.855 37.6133 209.258 38.168C208.661 38.7013 207.871 38.968 206.89 38.968C205.909 38.968 205.119 38.7013 204.522 38.168C203.925 37.6133 203.626 36.9307 203.626 36.12ZM209.61 41.144V59H204.138V41.144H209.61ZM221.74 40.92C223.511 40.92 225.089 41.2933 226.476 42.04C227.884 42.7653 228.983 43.8213 229.772 45.208C230.583 46.5947 230.988 48.216 230.988 50.072C230.988 51.928 230.583 53.5493 229.772 54.936C228.983 56.3227 227.884 57.3893 226.476 58.136C225.089 58.8613 223.511 59.224 221.74 59.224C219.969 59.224 218.38 58.8613 216.972 58.136C215.564 57.3893 214.455 56.3227 213.644 54.936C212.855 53.5493 212.46 51.928 212.46 50.072C212.46 48.216 212.855 46.5947 213.644 45.208C214.455 43.8213 215.564 42.7653 216.972 42.04C218.38 41.2933 219.969 40.92 221.74 40.92ZM221.74 45.656C220.695 45.656 219.809 46.04 219.084 46.808C218.38 47.5547 218.028 48.6427 218.028 50.072C218.028 51.5013 218.38 52.5893 219.084 53.336C219.809 54.0827 220.695 54.456 221.74 54.456C222.785 54.456 223.66 54.0827 224.364 53.336C225.068 52.5893 225.42 51.5013 225.42 50.072C225.42 48.6427 225.068 47.5547 224.364 46.808C223.66 46.04 222.785 45.656 221.74 45.656ZM245.153 40.952C247.201 40.952 248.823 41.6347 250.017 43C251.233 44.3653 251.841 46.2427 251.841 48.632V59H246.369V49.272C246.369 48.0773 246.049 47.1493 245.409 46.488C244.791 45.8053 243.959 45.464 242.913 45.464C241.804 45.464 240.919 45.816 240.257 46.52C239.617 47.224 239.297 48.2267 239.297 49.528V59H233.825V41.144H239.297V44.408C239.809 43.3413 240.567 42.4987 241.569 41.88C242.593 41.2613 243.788 40.952 245.153 40.952Z" fill="#F6FEF9"/>
<path id="eye" d="M39.2827 207C106.301 142.243 212.697 142.244 279.716 207C212.697 271.756 106.301 271.757 39.2827 207Z" stroke="#F6FEF9" stroke-width="6"/>
<path id="star" d="M159.5 273L156.373 257.452C151.593 233.68 133.426 215.118 110.195 210.2L95 207L110.195 203.8C133.426 198.909 151.567 180.32 156.373 156.548L159.5 141L162.627 156.548C167.407 180.32 185.574 198.882 208.805 203.8L224 207L208.805 210.2C185.574 215.091 167.433 233.68 162.627 257.452L159.5 273Z" fill="#F6FEF9" stroke="#F6FEF9" stroke-linecap="round" stroke-linejoin="round"/>
</g>
</svg>
