<svg width="320" height="384" viewBox="0 0 320 384" fill="none" xmlns="http://www.w3.org/2000/svg">
<g id="amusement" clip-path="url(#clip0_298_13188)">
<rect width="320" height="384" fill="#FEC84B"/>
<path id="amusement_2" d="M66.672 40.92C68.0373 40.92 69.2107 41.2293 70.192 41.848C71.1733 42.4667 71.8987 43.3093 72.368 44.376V41.144H77.808V59H72.368V55.768C71.8987 56.8347 71.1733 57.6773 70.192 58.296C69.2107 58.9147 68.0373 59.224 66.672 59.224C65.2 59.224 63.8773 58.8613 62.704 58.136C61.552 57.3893 60.6347 56.3227 59.952 54.936C59.2907 53.5493 58.96 51.928 58.96 50.072C58.96 48.1947 59.2907 46.5733 59.952 45.208C60.6347 43.8213 61.552 42.7653 62.704 42.04C63.8773 41.2933 65.2 40.92 66.672 40.92ZM68.432 45.72C67.2587 45.72 66.3093 46.104 65.584 46.872C64.88 47.64 64.528 48.7067 64.528 50.072C64.528 51.4373 64.88 52.504 65.584 53.272C66.3093 54.04 67.2587 54.424 68.432 54.424C69.584 54.424 70.5227 54.0293 71.248 53.24C71.9947 52.4507 72.368 51.3947 72.368 50.072C72.368 48.728 71.9947 47.672 71.248 46.904C70.5227 46.1147 69.584 45.72 68.432 45.72ZM104.711 40.952C106.909 40.952 108.637 41.6347 109.895 43C111.154 44.344 111.783 46.2213 111.783 48.632V59H106.343V49.272C106.343 48.1413 106.034 47.2667 105.415 46.648C104.818 46.008 103.997 45.688 102.951 45.688C101.863 45.688 100.999 46.0293 100.359 46.712C99.7408 47.3733 99.4315 48.312 99.4315 49.528V59H93.9595V49.272C93.9595 48.1413 93.6608 47.2667 93.0635 46.648C92.4662 46.008 91.6448 45.688 90.5995 45.688C89.5115 45.688 88.6475 46.0187 88.0075 46.68C87.3675 47.3413 87.0475 48.2907 87.0475 49.528V59H81.5755V41.144H87.0475V44.184C87.5168 43.1813 88.2315 42.392 89.1915 41.816C90.1728 41.24 91.3142 40.952 92.6155 40.952C93.9808 40.952 95.1862 41.272 96.2315 41.912C97.2768 42.5307 98.0662 43.4267 98.5995 44.6C99.2182 43.4907 100.061 42.6053 101.127 41.944C102.215 41.2827 103.41 40.952 104.711 40.952ZM133.179 41.144V59H127.675V55.768C127.163 56.8133 126.395 57.6453 125.371 58.264C124.369 58.8827 123.195 59.192 121.851 59.192C119.803 59.192 118.171 58.5093 116.955 57.144C115.761 55.7787 115.163 53.9013 115.163 51.512V41.144H120.603V50.84C120.603 52.056 120.913 53.0053 121.531 53.688C122.171 54.3493 123.025 54.68 124.091 54.68C125.201 54.68 126.075 54.328 126.715 53.624C127.355 52.92 127.675 51.9173 127.675 50.616V41.144H133.179ZM143.446 40.92C145.708 40.92 147.51 41.4853 148.854 42.616C150.22 43.7467 151.073 45.24 151.414 47.096H146.294C146.145 46.3707 145.804 45.8053 145.27 45.4C144.758 44.9733 144.108 44.76 143.318 44.76C142.7 44.76 142.23 44.8987 141.91 45.176C141.59 45.432 141.43 45.8053 141.43 46.296C141.43 46.8507 141.718 47.2667 142.294 47.544C142.892 47.8213 143.82 48.0987 145.078 48.376C146.444 48.696 147.564 49.0267 148.438 49.368C149.313 49.688 150.07 50.2213 150.71 50.968C151.35 51.7147 151.67 52.7173 151.67 53.976C151.67 55 151.393 55.9067 150.838 56.696C150.284 57.4853 149.484 58.104 148.438 58.552C147.393 59 146.156 59.224 144.726 59.224C142.316 59.224 140.385 58.6907 138.934 57.624C137.484 56.5573 136.598 55.032 136.278 53.048H141.558C141.644 53.816 141.964 54.4027 142.518 54.808C143.094 55.2133 143.83 55.416 144.726 55.416C145.345 55.416 145.814 55.2773 146.134 55C146.454 54.7013 146.614 54.3173 146.614 53.848C146.614 53.2293 146.316 52.792 145.718 52.536C145.142 52.2587 144.193 51.9707 142.87 51.672C141.548 51.3947 140.46 51.096 139.606 50.776C138.753 50.456 138.017 49.944 137.398 49.24C136.78 48.5147 136.47 47.5333 136.47 46.296C136.47 44.696 137.078 43.4053 138.294 42.424C139.51 41.4213 141.228 40.92 143.446 40.92ZM171.66 49.592C171.66 50.04 171.607 50.5307 171.5 51.064H159.116C159.18 52.408 159.522 53.3787 160.14 53.976C160.759 54.552 161.548 54.84 162.508 54.84C163.319 54.84 163.991 54.6373 164.524 54.232C165.058 53.8267 165.41 53.304 165.58 52.664H171.372C171.138 53.9227 170.626 55.0533 169.836 56.056C169.047 57.0373 168.044 57.816 166.828 58.392C165.612 58.9467 164.258 59.224 162.764 59.224C161.015 59.224 159.458 58.8613 158.092 58.136C156.748 57.3893 155.692 56.3227 154.924 54.936C154.156 53.5493 153.772 51.928 153.772 50.072C153.772 48.1947 154.146 46.5733 154.892 45.208C155.66 43.8213 156.727 42.7653 158.092 42.04C159.458 41.2933 161.015 40.92 162.764 40.92C164.535 40.92 166.092 41.2827 167.436 42.008C168.78 42.7333 169.815 43.7573 170.54 45.08C171.287 46.3813 171.66 47.8853 171.66 49.592ZM166.124 48.76C166.146 47.5867 165.826 46.712 165.164 46.136C164.524 45.5387 163.724 45.24 162.764 45.24C161.762 45.24 160.93 45.5387 160.268 46.136C159.607 46.7333 159.234 47.608 159.148 48.76H166.124ZM197.649 40.952C199.846 40.952 201.574 41.6347 202.833 43C204.092 44.344 204.721 46.2213 204.721 48.632V59H199.281V49.272C199.281 48.1413 198.972 47.2667 198.353 46.648C197.756 46.008 196.934 45.688 195.889 45.688C194.801 45.688 193.937 46.0293 193.297 46.712C192.678 47.3733 192.369 48.312 192.369 49.528V59H186.897V49.272C186.897 48.1413 186.598 47.2667 186.001 46.648C185.404 46.008 184.582 45.688 183.537 45.688C182.449 45.688 181.585 46.0187 180.945 46.68C180.305 47.3413 179.985 48.2907 179.985 49.528V59H174.513V41.144H179.985V44.184C180.454 43.1813 181.169 42.392 182.129 41.816C183.11 41.24 184.252 40.952 185.553 40.952C186.918 40.952 188.124 41.272 189.169 41.912C190.214 42.5307 191.004 43.4267 191.537 44.6C192.156 43.4907 192.998 42.6053 194.065 41.944C195.153 41.2827 196.348 40.952 197.649 40.952ZM225.317 49.592C225.317 50.04 225.263 50.5307 225.157 51.064H212.773C212.837 52.408 213.178 53.3787 213.797 53.976C214.415 54.552 215.205 54.84 216.165 54.84C216.975 54.84 217.647 54.6373 218.181 54.232C218.714 53.8267 219.066 53.304 219.237 52.664H225.029C224.794 53.9227 224.282 55.0533 223.493 56.056C222.703 57.0373 221.701 57.816 220.485 58.392C219.269 58.9467 217.914 59.224 216.421 59.224C214.671 59.224 213.114 58.8613 211.749 58.136C210.405 57.3893 209.349 56.3227 208.581 54.936C207.813 53.5493 207.429 51.928 207.429 50.072C207.429 48.1947 207.802 46.5733 208.549 45.208C209.317 43.8213 210.383 42.7653 211.749 42.04C213.114 41.2933 214.671 40.92 216.421 40.92C218.191 40.92 219.749 41.2827 221.093 42.008C222.437 42.7333 223.471 43.7573 224.197 45.08C224.943 46.3813 225.317 47.8853 225.317 49.592ZM219.781 48.76C219.802 47.5867 219.482 46.712 218.821 46.136C218.181 45.5387 217.381 45.24 216.421 45.24C215.418 45.24 214.586 45.5387 213.925 46.136C213.263 46.7333 212.89 47.608 212.805 48.76H219.781ZM239.497 40.952C241.545 40.952 243.167 41.6347 244.361 43C245.577 44.3653 246.185 46.2427 246.185 48.632V59H240.713V49.272C240.713 48.0773 240.393 47.1493 239.753 46.488C239.135 45.8053 238.303 45.464 237.257 45.464C236.148 45.464 235.263 45.816 234.601 46.52C233.961 47.224 233.641 48.2267 233.641 49.528V59H228.169V41.144H233.641V44.408C234.153 43.3413 234.911 42.4987 235.913 41.88C236.937 41.2613 238.132 40.952 239.497 40.952ZM259.906 54.296V59H257.442C255.352 59 253.72 58.488 252.546 57.464C251.394 56.4187 250.818 54.7013 250.818 52.312V45.752H248.418V41.144H250.818V36.76H256.29V41.144H259.874V45.752H256.29V52.408C256.29 53.112 256.429 53.6027 256.706 53.88C257.005 54.1573 257.496 54.296 258.178 54.296H259.906Z" fill="#FFFCF5"/>
<path id="Vector" d="M22.369 464.257C10.857 436.268 5.6902 404.64 4.78374 373.403C3.87728 342.167 6.50601 313.786 15.6159 286.132C24.2273 259.934 38.9572 235.919 59.1259 221.981C78.2522 208.769 101.82 204.515 122.805 213.08C142.611 221.141 162.462 245.492 158.791 273.369C158.066 278.967 156.389 285.796 150.724 283.613C145.738 281.654 144.469 274.433 144.922 268.723C146.01 255.176 154.848 244.316 164.275 238.55C184.897 226.011 219.808 230.209 239.025 242.805C255.931 253.888 270.343 270.234 281.629 289.211C307.327 332.539 311.484 392.1 314.385 445.168C314.974 455.916 328.571 455.972 327.981 445.168C324.899 388.742 320.244 325.094 292.506 279.247C278.819 256.631 261.505 237.095 240.657 225.059C216.137 210.897 175.515 208.042 151.675 228.194C140.707 237.431 132.141 251.929 131.28 268.667C130.464 284.173 138.26 299.735 151.675 300.743C166.858 301.862 172.614 283.221 172.705 267.435C172.796 251.649 167.176 235.919 158.972 223.66C141.886 197.91 113.423 188.673 87.4074 193.039C61.3921 197.406 36.5551 216.047 20.0576 242.805C0.659351 274.153 -7.58942 313.282 -8.81313 352.243C-10.1275 393.388 -4.5981 435.82 10.6304 472.766C14.6188 482.394 26.3121 473.885 22.369 464.313V464.257Z" fill="#FFFCF5"/>
</g>
<defs>
<clipPath id="clip0_298_13188">
<rect width="320" height="384" fill="white"/>
</clipPath>
</defs>
</svg>
