<svg width="320" height="384" viewBox="0 0 320 384" fill="none" xmlns="http://www.w3.org/2000/svg">
<rect width="320" height="384" fill="white"/>
<g id="amusement">
<g clip-path="url(#clip0_293_11216)">
<rect width="320" height="384" rx="16" fill="#FEC84B"/>
<text id="amusement_2" fill="#FFFCF5" xml:space="preserve" style="white-space: pre" font-family="Poppins" font-size="32" font-weight="bold" letter-spacing="0em"><tspan x="58" y="59.2">amusement</tspan></text>
<path id="Vector" d="M22.369 464.257C10.857 436.268 5.6902 404.64 4.78374 373.403C3.87728 342.167 6.50601 313.786 15.6159 286.132C24.2273 259.934 38.9572 235.919 59.1259 221.981C78.2522 208.769 101.82 204.515 122.805 213.08C142.611 221.141 162.462 245.492 158.791 273.369C158.066 278.967 156.389 285.796 150.724 283.613C145.738 281.654 144.469 274.433 144.922 268.723C146.01 255.176 154.848 244.316 164.275 238.55C184.897 226.011 219.808 230.209 239.025 242.805C255.931 253.888 270.343 270.234 281.629 289.211C307.327 332.539 311.484 392.1 314.385 445.168C314.974 455.916 328.571 455.972 327.981 445.168C324.899 388.742 320.244 325.094 292.506 279.247C278.819 256.631 261.505 237.095 240.657 225.059C216.137 210.897 175.515 208.042 151.675 228.194C140.707 237.431 132.141 251.929 131.28 268.667C130.464 284.173 138.26 299.735 151.675 300.743C166.858 301.862 172.614 283.221 172.705 267.435C172.796 251.649 167.176 235.919 158.972 223.66C141.886 197.91 113.423 188.673 87.4074 193.039C61.3921 197.406 36.5551 216.047 20.0576 242.805C0.659351 274.153 -7.58942 313.282 -8.81313 352.243C-10.1275 393.388 -4.5981 435.82 10.6304 472.766C14.6188 482.394 26.3121 473.885 22.369 464.313V464.257Z" fill="#FFFCF5"/>
</g>
</g>
<defs>
<clipPath id="clip0_293_11216">
<rect width="320" height="384" rx="16" fill="white"/>
</clipPath>
</defs>
</svg>
