<svg width="322" height="384" viewBox="0 0 322 384" fill="none" xmlns="http://www.w3.org/2000/svg">
<g id="annoyance">
<g clip-path="url(#clip0_293_12065)">
<rect width="321.071" height="384" rx="16" fill="#FECDCA"/>
<path id="annoyance_2" d="M74.672 40.92C76.0373 40.92 77.2107 41.2293 78.192 41.848C79.1733 42.4667 79.8987 43.3093 80.368 44.376V41.144H85.808V59H80.368V55.768C79.8987 56.8347 79.1733 57.6773 78.192 58.296C77.2107 58.9147 76.0373 59.224 74.672 59.224C73.2 59.224 71.8773 58.8613 70.704 58.136C69.552 57.3893 68.6347 56.3227 67.952 54.936C67.2907 53.5493 66.96 51.928 66.96 50.072C66.96 48.1947 67.2907 46.5733 67.952 45.208C68.6347 43.8213 69.552 42.7653 70.704 42.04C71.8773 41.2933 73.2 40.92 74.672 40.92ZM76.432 45.72C75.2587 45.72 74.3093 46.104 73.584 46.872C72.88 47.64 72.528 48.7067 72.528 50.072C72.528 51.4373 72.88 52.504 73.584 53.272C74.3093 54.04 75.2587 54.424 76.432 54.424C77.584 54.424 78.5227 54.0293 79.248 53.24C79.9947 52.4507 80.368 51.3947 80.368 50.072C80.368 48.728 79.9947 47.672 79.248 46.904C78.5227 46.1147 77.584 45.72 76.432 45.72ZM100.903 40.952C102.951 40.952 104.573 41.6347 105.767 43C106.983 44.3653 107.591 46.2427 107.591 48.632V59H102.119V49.272C102.119 48.0773 101.799 47.1493 101.159 46.488C100.541 45.8053 99.7088 45.464 98.6635 45.464C97.5542 45.464 96.6688 45.816 96.0075 46.52C95.3675 47.224 95.0475 48.2267 95.0475 49.528V59H89.5755V41.144H95.0475V44.408C95.5595 43.3413 96.3168 42.4987 97.3195 41.88C98.3435 41.2613 99.5382 40.952 100.903 40.952ZM122.528 40.952C124.576 40.952 126.198 41.6347 127.392 43C128.608 44.3653 129.216 46.2427 129.216 48.632V59H123.744V49.272C123.744 48.0773 123.424 47.1493 122.784 46.488C122.166 45.8053 121.334 45.464 120.288 45.464C119.179 45.464 118.294 45.816 117.632 46.52C116.992 47.224 116.672 48.2267 116.672 49.528V59H111.2V41.144H116.672V44.408C117.184 43.3413 117.942 42.4987 118.944 41.88C119.968 41.2613 121.163 40.952 122.528 40.952ZM141.177 40.92C142.948 40.92 144.527 41.2933 145.913 42.04C147.321 42.7653 148.42 43.8213 149.209 45.208C150.02 46.5947 150.425 48.216 150.425 50.072C150.425 51.928 150.02 53.5493 149.209 54.936C148.42 56.3227 147.321 57.3893 145.913 58.136C144.527 58.8613 142.948 59.224 141.177 59.224C139.407 59.224 137.817 58.8613 136.409 58.136C135.001 57.3893 133.892 56.3227 133.081 54.936C132.292 53.5493 131.897 51.928 131.897 50.072C131.897 48.216 132.292 46.5947 133.081 45.208C133.892 43.8213 135.001 42.7653 136.409 42.04C137.817 41.2933 139.407 40.92 141.177 40.92ZM141.177 45.656C140.132 45.656 139.247 46.04 138.521 46.808C137.817 47.5547 137.465 48.6427 137.465 50.072C137.465 51.5013 137.817 52.5893 138.521 53.336C139.247 54.0827 140.132 54.456 141.177 54.456C142.223 54.456 143.097 54.0827 143.801 53.336C144.505 52.5893 144.857 51.5013 144.857 50.072C144.857 48.6427 144.505 47.5547 143.801 46.808C143.097 46.04 142.223 45.656 141.177 45.656ZM157.391 41.144L161.679 52.088L165.679 41.144H171.727L160.591 67.512H154.575L158.767 58.328L151.279 41.144H157.391ZM180.328 40.92C181.694 40.92 182.867 41.2293 183.848 41.848C184.83 42.4667 185.555 43.3093 186.024 44.376V41.144H191.464V59H186.024V55.768C185.555 56.8347 184.83 57.6773 183.848 58.296C182.867 58.9147 181.694 59.224 180.328 59.224C178.856 59.224 177.534 58.8613 176.36 58.136C175.208 57.3893 174.291 56.3227 173.608 54.936C172.947 53.5493 172.616 51.928 172.616 50.072C172.616 48.1947 172.947 46.5733 173.608 45.208C174.291 43.8213 175.208 42.7653 176.36 42.04C177.534 41.2933 178.856 40.92 180.328 40.92ZM182.088 45.72C180.915 45.72 179.966 46.104 179.24 46.872C178.536 47.64 178.184 48.7067 178.184 50.072C178.184 51.4373 178.536 52.504 179.24 53.272C179.966 54.04 180.915 54.424 182.088 54.424C183.24 54.424 184.179 54.0293 184.904 53.24C185.651 52.4507 186.024 51.3947 186.024 50.072C186.024 48.728 185.651 47.672 184.904 46.904C184.179 46.1147 183.24 45.72 182.088 45.72ZM206.56 40.952C208.608 40.952 210.229 41.6347 211.424 43C212.64 44.3653 213.248 46.2427 213.248 48.632V59H207.776V49.272C207.776 48.0773 207.456 47.1493 206.816 46.488C206.197 45.8053 205.365 45.464 204.32 45.464C203.21 45.464 202.325 45.816 201.664 46.52C201.024 47.224 200.704 48.2267 200.704 49.528V59H195.232V41.144H200.704V44.408C201.216 43.3413 201.973 42.4987 202.976 41.88C204 41.2613 205.194 40.952 206.56 40.952ZM224.921 40.92C227.225 40.92 229.155 41.56 230.713 42.84C232.27 44.0987 233.251 45.8373 233.657 48.056H227.865C227.694 47.288 227.342 46.6907 226.809 46.264C226.275 45.8373 225.603 45.624 224.793 45.624C223.833 45.624 223.043 46.008 222.425 46.776C221.806 47.5227 221.497 48.6213 221.497 50.072C221.497 51.5227 221.806 52.632 222.425 53.4C223.043 54.1467 223.833 54.52 224.793 54.52C225.603 54.52 226.275 54.3067 226.809 53.88C227.342 53.4533 227.694 52.856 227.865 52.088H233.657C233.251 54.3067 232.27 56.056 230.713 57.336C229.155 58.5947 227.225 59.224 224.921 59.224C223.171 59.224 221.614 58.8613 220.249 58.136C218.905 57.3893 217.849 56.3227 217.081 54.936C216.313 53.5493 215.929 51.928 215.929 50.072C215.929 48.1947 216.302 46.5733 217.049 45.208C217.817 43.8213 218.883 42.7653 220.249 42.04C221.614 41.2933 223.171 40.92 224.921 40.92ZM253.473 49.592C253.473 50.04 253.42 50.5307 253.313 51.064H240.929C240.993 52.408 241.334 53.3787 241.953 53.976C242.572 54.552 243.361 54.84 244.321 54.84C245.132 54.84 245.804 54.6373 246.337 54.232C246.87 53.8267 247.222 53.304 247.393 52.664H253.185C252.95 53.9227 252.438 55.0533 251.649 56.056C250.86 57.0373 249.857 57.816 248.641 58.392C247.425 58.9467 246.07 59.224 244.577 59.224C242.828 59.224 241.27 58.8613 239.905 58.136C238.561 57.3893 237.505 56.3227 236.737 54.936C235.969 53.5493 235.585 51.928 235.585 50.072C235.585 48.1947 235.958 46.5733 236.705 45.208C237.473 43.8213 238.54 42.7653 239.905 42.04C241.27 41.2933 242.828 40.92 244.577 40.92C246.348 40.92 247.905 41.2827 249.249 42.008C250.593 42.7333 251.628 43.7573 252.353 45.08C253.1 46.3813 253.473 47.8853 253.473 49.592ZM247.937 48.76C247.958 47.5867 247.638 46.712 246.977 46.136C246.337 45.5387 245.537 45.24 244.577 45.24C243.574 45.24 242.742 45.5387 242.081 46.136C241.42 46.7333 241.046 47.608 240.961 48.76H247.937Z" fill="#D92D20"/>
<path id="line" d="M152.434 203.694L154.771 215.908L156.66 204.4L156.903 202.949L158.355 203.157L161.891 203.671L163.073 203.843L163.171 205.039L165.141 229.227L165.826 228.435L169.36 221.812L169.644 221.275L170.22 221.091L172.897 220.205L177.153 210.552L178.627 207.198L179.93 210.616L182.374 217.042L182.466 217.277L182.477 217.535L182.682 225.845L187.366 211.553L190.292 212.04L190.167 220.782L195.419 207.361L197.468 202.112L198.3 207.684L199.233 214.006L201.872 211.773L204.311 209.714L204.35 212.902L204.425 221.434L206.519 220.251L209.212 218.721L208.747 221.777L207.171 232.15L210.35 227.928L210.456 227.799L210.586 227.683L216.04 223.088L216.994 222.274L217.962 223.077L220.667 225.32L221.401 225.934L221.161 226.859L218.88 235.633L225.487 226.581L228.052 223.058L228.189 227.418L228.417 234.146L228.415 234.357L228.367 234.568L225.583 245.086L226.296 245.278L235.233 236.591L235.422 236.405L235.645 236.301L241.463 233.583L244.907 231.976L243.49 235.506L240.336 243.315L246.64 237.834L248.984 239.595L244.089 250.287L246.038 249.843L246.272 249.785L246.518 249.81L250.395 250.174L250.442 250.175L250.489 250.187L254.282 250.785L256.097 251.066L255.453 252.784L254.082 256.467L262.237 251.092L266.438 248.318L264.44 252.946L260.897 261.139L260.278 264.604L262.938 264.644L268.402 264.092L270.161 263.915L270.056 265.673L269.782 270.218L269.756 270.64L269.507 271.001L262.875 280.241L263.282 280.724L278.544 272.605L282.131 270.694L280.642 274.481L278.403 280.151L277.873 284.355L277.849 284.565L277.753 284.776L276.91 286.646L292.542 279.313L294.07 278.596L294.599 280.194L295.715 283.564L296.014 284.468L295.33 285.12L287.219 292.851L291.995 291.744L292.852 291.55L293.446 292.21L295.703 294.72L296.727 295.863L295.573 296.864L288.303 303.1L296.957 300.353L298.312 302.975L290.081 309.217L304.047 304.171L304.975 303.837L305.65 304.544L308.083 307.114L309.329 308.411L307.823 309.398L291.619 320.008L294.363 319.837L313.508 314.719L314.675 317.445L302.429 324.833L316.223 320.994L317.496 323.662L308.172 330.354L310.113 331.116L312.919 332.223L310.342 333.801L303.707 337.849L321.653 333.52L322.866 336.211L312.591 343.413L312.544 343.436L312.485 343.471L305.663 347.483L318.157 345.405L319.229 348.142L309.168 354.724L305.299 358.789L305.375 359.739L324.632 357.41L325.388 360.286L305.096 368.726L305.715 369.14L325.999 367.474L326.661 370.361L314.69 375.044L325.346 374.536L326.078 377.377L319.154 380.767L320.29 380.985L319.732 383.935L314.16 382.892L309.712 382.067L313.78 380.077L318.27 377.867L305.739 378.468L305.112 375.57L315.991 371.302L305.438 372.185L304.911 372.229L304.467 371.933L301.118 369.65L298.831 368.089L301.392 367.027L314.164 361.692L304.172 362.919L302.612 363.109L302.493 361.537L302.267 358.337L302.212 357.68L302.672 357.191L307.143 352.519L307.261 352.403L307.402 352.298L311.603 349.536L298.195 351.772L297.181 349L310.966 340.883L314.65 338.293L295.132 343.011L294.001 340.273L306.2 332.802L304.517 332.147L301.945 331.147L304.181 329.532L308.878 326.151L292.678 330.679L291.499 327.952L304.075 320.343L294.965 322.783L294.813 322.829L294.66 322.839L286.161 323.349L280.534 323.689L285.252 320.601L304.668 307.866L304.144 307.324L281.828 315.388L280.414 312.789L289.552 305.838L282.224 308.183L280.787 305.619L292.452 295.579L291.8 294.86L282.564 297.029L277.212 298.273L281.185 294.477L292.562 283.603L292.286 282.746L274.562 291.084L270.918 292.796L272.547 289.114L274.924 283.75L275.454 279.605L275.478 279.418L275.538 279.242L276.348 277.161L263.649 283.938L262.591 284.494L261.8 283.598L259.833 281.312L259.054 280.417L259.751 279.46L266.797 269.613L266.941 267.259L263.235 267.646L263.153 267.657L263.059 267.656L258.489 267.581L256.732 267.546L257.036 265.826L257.96 260.488L257.996 260.312L258.055 260.148L259.685 256.373L251.918 261.516L248.093 264.035L249.679 259.744L252.003 253.454L250.107 253.161L246.441 252.81L241.805 253.918L238.824 254.614L240.095 251.833L243.375 244.658L237.601 249.696L235.221 248.005L239.268 237.905L237.153 238.9L227.791 248.018L227.189 248.611L226.37 248.395L223.375 247.615L221.924 247.243L222.309 245.792L225.406 234.022L225.337 231.865L216.661 243.764L213.997 242.505L218.008 227.015L217.005 226.188L212.658 229.852L205.993 238.717L203.316 237.587L205.309 224.38L203.698 225.308L201.487 226.56L201.456 224.017L201.376 216.129L199.126 218.037L197.064 219.77L196.671 217.108L196.165 213.718L189.972 229.593L187.069 229.036L187.161 221.794L182.824 235.021L179.909 234.593L179.474 217.867L178.425 215.107L175.382 222.049L175.108 222.657L174.474 222.864L171.715 223.749L168.43 229.939L168.359 230.091L168.253 230.208L165.1 233.926L162.751 236.689L162.457 233.078L160.268 206.474L159.378 206.351L156.357 224.719L153.403 224.759L149.988 206.866L149.033 207.728L147.188 225.506L146.851 228.832L144.593 226.357L142.66 224.247L141.171 228.163L140.945 228.748L140.392 229.002L137.572 230.285L136.42 230.806L135.712 229.77L131.798 224.097L130.347 223.642L129.084 228.955L128.061 233.261L126.258 229.219L122.537 220.863L124.125 233.026L121.307 233.91L113.399 218.427L112.246 219.146L110.72 223.332L111.096 232.546L111.32 237.973L108.348 233.431L99.8511 220.464L99.6597 222.97L106.307 243.121L107.998 248.242L103.907 244.735L97.682 239.4L97.612 239.341L97.5538 239.282L92.4784 233.836L95.0329 241.363L96.2182 244.851L92.9356 243.179L89.0806 241.221L88.5152 243.561L87.9135 246.077L86.0261 244.296L78.7915 237.442L82.4701 245.129L82.6436 245.493L82.6059 245.903L82.2142 250.448L81.9871 253.024L79.8635 251.546L69.8405 244.581L66.5648 243.67L67.8838 248.272L72.7691 257.889L72.7807 257.901L72.7806 257.924L76.4463 265.787L78.7013 270.617L74.2548 267.672L59.1299 257.616L57.5831 257.595L66.0818 268.453L64.2394 270.726L53.3387 265.443L52.4758 266.621L53.0157 270.246L63.8992 282.045L62.2902 284.472L54.4558 281.704L54.9829 283.618L55.659 286.071L53.19 285.47L49.4339 284.568L56.7261 291.586L55.0585 294.025L41.4687 287.729L51.697 295.598L52.1869 295.976L52.2769 296.574L52.8156 300.374L52.9839 301.582L51.8445 301.997L48.826 303.08L48.4249 305.374L48.1696 306.849L46.6946 306.594L37.6221 305.037L37.1195 306.71L36.7946 309.942L36.6827 310.973L35.6849 311.236L33.3255 311.854L37.9965 316.383L36.5511 318.906L21.6934 314.84L27.0487 318.624L27.2471 318.766L27.3982 318.966L30.8604 323.769L31.4762 324.616L30.8966 325.48L29.1576 328.094L27.9241 330.442L28.631 333.587L28.7905 334.315L28.3183 334.874L26.5472 336.996L26.8372 339.342L30.8648 343.691L32.8552 345.86L29.935 346.205L23.1682 346.995L22.2169 349.203L21.8246 350.092L20.8636 350.109L15.8474 350.171L25.3221 354.883L24.5074 357.726L14.6344 356.762L26.499 361.582L26.0473 364.474L18.6607 365.06L20.0326 366.803L21.1488 368.228L19.5498 369.062L15.0702 371.401L14.8116 371.529L14.5301 371.562L5.18388 372.558L5.33556 374.54L5.41188 375.454L4.63538 375.942L2.57658 377.218L9.44613 380.613L10.4508 381.111L10.2682 382.211L10.2442 382.305L8.76916 382.05L8.7458 382.038L8.12852 383.3L-1.17122 378.73L-3.58963 377.543L-1.30723 376.116L2.28106 373.876L2.06236 371.367L1.94261 369.901L3.39673 369.746L13.9276 368.593L16.5612 367.227L14.5846 364.719L12.864 362.516L15.6427 362.299L19.512 361.984L3.96515 355.675L4.67456 352.797L16.7262 353.95L8.95717 350.093L9.60777 347.25L19.851 347.114L20.7664 345.022L21.1113 344.228L21.9674 344.128L26.6585 343.559L24.3072 341.013L23.9813 340.66L23.9257 340.179L23.4903 336.707L23.4123 336.062L23.8373 335.561L25.5377 333.509L24.8881 330.564L24.7626 330.024L25.0234 329.545L26.4943 326.706L26.5299 326.636L26.5772 326.566L27.8195 324.676L25.1124 320.932L13.0367 312.384L14.2956 309.708L31.7154 314.469L29.3391 312.169L27.4405 310.317L29.9995 309.642L33.9084 308.6L34.1455 306.293L34.1581 306.152L34.2058 306.012L35.1393 302.912L35.5223 301.637L36.8334 301.856L45.7303 303.377L46.0338 301.703L46.1915 300.848L47.0019 300.561L49.6681 299.593L49.376 297.587L29.0125 281.92L30.5637 279.364L48.1966 287.537L43.3739 282.901L39.4017 279.067L44.7726 280.367L51.419 281.955L50.8118 279.725L50.0556 276.966L52.7568 277.92L57.5743 279.626L50.5088 271.953L50.1946 271.611L50.127 271.165L49.4182 266.45L49.3166 265.84L49.683 265.338L51.6568 262.655L52.4014 261.652L53.523 262.198L59.727 265.202L53.3095 256.982L51.3795 254.521L54.5082 254.564L59.6173 254.631L60.0509 254.633L60.4244 254.87L71.4764 262.217L70.0887 259.243L65.1571 249.521L65.0876 249.391L65.0534 249.25L62.9545 241.936L62.2206 239.354L64.806 240.073L70.8893 241.763L71.135 241.835L71.345 241.977L79.4429 247.594L79.5814 246.06L72.6179 231.45L74.9959 229.718L86.2032 240.336L86.6121 238.674L87.0572 236.837L88.7511 237.691L91.0057 238.83L87.4042 228.191L89.9332 226.683L99.6882 237.162L101.775 238.956L96.7257 223.643L96.6338 223.35L96.6591 223.057L97.2081 215.841L97.5403 211.449L99.9548 215.132L107.883 227.252L107.721 223.161L107.711 222.868L107.807 222.587L109.607 217.642L109.774 217.162L110.221 216.884L113.198 215.016L114.586 214.145L115.339 215.603L120.028 224.808L118.238 211.074L121.091 210.26L127.193 223.951L127.807 221.4L128.168 219.844L129.7 220.322L133.186 221.387L133.689 221.542L133.979 221.966L137.463 227.027L138.58 226.518L140.736 220.907L141.606 218.627L143.247 220.43L144.55 221.868L146.109 206.842L146.171 206.268L146.596 205.884L149.954 202.858L151.934 201.078L152.434 203.694Z" fill="#D92D20"/>
</g>
</g>
<defs>
<clipPath id="clip0_293_12065">
<rect width="321.071" height="384" rx="16" fill="white"/>
</clipPath>
</defs>
</svg>
