<svg width="320" height="384" viewBox="0 0 320 384" fill="none" xmlns="http://www.w3.org/2000/svg">
<rect width="320" height="384" fill="white"/>
<g id="approval">
<g clip-path="url(#clip0_293_11216)">
<rect width="320" height="384" rx="16" fill="#D1FADF"/>
<text id="approval_2" fill="#027A48" xml:space="preserve" style="white-space: pre" font-family="Poppins" font-size="32" font-weight="bold" letter-spacing="0em"><tspan x="85" y="59.2">approval</tspan></text>
<g id="Frame 1" clip-path="url(#clip1_293_11216)">
<path id="Vector" d="M115.669 387.016C115.669 239.725 97.5413 179.265 -4 135.112M50.6344 125.852C118.349 155.266 130.435 288.128 130.435 386.354M105.265 116.563C139.122 131.27 145.165 336.565 145.165 385.662M159.899 107.303V416.346M204.099 387.016C204.099 239.724 222.227 179.264 323.768 135.143M269.162 125.852C201.447 155.266 189.362 288.128 189.362 386.354M214.533 116.563C180.675 131.27 174.633 335.903 174.633 385" stroke="#027A48" stroke-width="4" stroke-miterlimit="10"/>
</g>
</g>
</g>
<defs>
<clipPath id="clip0_293_11216">
<rect width="320" height="384" rx="16" fill="white"/>
</clipPath>
<clipPath id="clip1_293_11216">
<rect width="328" height="253" fill="white" transform="translate(-4 131)"/>
</clipPath>
</defs>
</svg>
