<svg width="320" height="384" viewBox="0 0 320 384" fill="none" xmlns="http://www.w3.org/2000/svg">
<g id="caring">
<rect width="320" height="384" rx="16" fill="#F6FEF9"/>
<path id="caring_2" d="M115.952 40.92C118.256 40.92 120.187 41.56 121.744 42.84C123.301 44.0987 124.283 45.8373 124.688 48.056H118.896C118.725 47.288 118.373 46.6907 117.84 46.264C117.307 45.8373 116.635 45.624 115.824 45.624C114.864 45.624 114.075 46.008 113.456 46.776C112.837 47.5227 112.528 48.6213 112.528 50.072C112.528 51.5227 112.837 52.632 113.456 53.4C114.075 54.1467 114.864 54.52 115.824 54.52C116.635 54.52 117.307 54.3067 117.84 53.88C118.373 53.4533 118.725 52.856 118.896 52.088H124.688C124.283 54.3067 123.301 56.056 121.744 57.336C120.187 58.5947 118.256 59.224 115.952 59.224C114.203 59.224 112.645 58.8613 111.28 58.136C109.936 57.3893 108.88 56.3227 108.112 54.936C107.344 53.5493 106.96 51.928 106.96 50.072C106.96 48.1947 107.333 46.5733 108.08 45.208C108.848 43.8213 109.915 42.7653 111.28 42.04C112.645 41.2933 114.203 40.92 115.952 40.92ZM134.328 40.92C135.694 40.92 136.867 41.2293 137.848 41.848C138.83 42.4667 139.555 43.3093 140.024 44.376V41.144H145.464V59H140.024V55.768C139.555 56.8347 138.83 57.6773 137.848 58.296C136.867 58.9147 135.694 59.224 134.328 59.224C132.856 59.224 131.534 58.8613 130.36 58.136C129.208 57.3893 128.291 56.3227 127.608 54.936C126.947 53.5493 126.616 51.928 126.616 50.072C126.616 48.1947 126.947 46.5733 127.608 45.208C128.291 43.8213 129.208 42.7653 130.36 42.04C131.534 41.2933 132.856 40.92 134.328 40.92ZM136.088 45.72C134.915 45.72 133.966 46.104 133.24 46.872C132.536 47.64 132.184 48.7067 132.184 50.072C132.184 51.4373 132.536 52.504 133.24 53.272C133.966 54.04 134.915 54.424 136.088 54.424C137.24 54.424 138.179 54.0293 138.904 53.24C139.651 52.4507 140.024 51.3947 140.024 50.072C140.024 48.728 139.651 47.672 138.904 46.904C138.179 46.1147 137.24 45.72 136.088 45.72ZM154.704 44.504C155.386 43.416 156.261 42.552 157.328 41.912C158.416 41.272 159.589 40.952 160.848 40.952V46.808H159.28C157.829 46.808 156.698 47.1173 155.888 47.736C155.098 48.3547 154.704 49.4 154.704 50.872V59H149.232V41.144H154.704V44.504ZM162.626 36.12C162.626 35.288 162.925 34.6053 163.522 34.072C164.119 33.5173 164.909 33.24 165.89 33.24C166.871 33.24 167.661 33.5173 168.258 34.072C168.855 34.6053 169.154 35.288 169.154 36.12C169.154 36.9307 168.855 37.6133 168.258 38.168C167.661 38.7013 166.871 38.968 165.89 38.968C164.909 38.968 164.119 38.7013 163.522 38.168C162.925 37.6133 162.626 36.9307 162.626 36.12ZM168.61 41.144V59H163.138V41.144H168.61ZM183.716 40.952C185.764 40.952 187.385 41.6347 188.58 43C189.796 44.3653 190.404 46.2427 190.404 48.632V59H184.932V49.272C184.932 48.0773 184.612 47.1493 183.972 46.488C183.353 45.8053 182.521 45.464 181.476 45.464C180.367 45.464 179.481 45.816 178.82 46.52C178.18 47.224 177.86 48.2267 177.86 49.528V59H172.388V41.144H177.86V44.408C178.372 43.3413 179.129 42.4987 180.132 41.88C181.156 41.2613 182.351 40.952 183.716 40.952ZM200.797 40.92C202.162 40.92 203.336 41.2293 204.317 41.848C205.298 42.4667 206.024 43.3093 206.493 44.376V41.144H211.933V58.904C211.933 60.568 211.613 62.0613 210.973 63.384C210.333 64.728 209.352 65.7947 208.029 66.584C206.706 67.3733 205.064 67.768 203.101 67.768C200.413 67.768 198.258 67.128 196.637 65.848C195.037 64.5893 194.077 62.872 193.757 60.696H199.165C199.336 61.4213 199.72 61.9867 200.317 62.392C200.936 62.7973 201.736 63 202.717 63C203.848 63 204.754 62.6693 205.437 62.008C206.141 61.368 206.493 60.3333 206.493 58.904V55.768C206.024 56.8347 205.298 57.6773 204.317 58.296C203.336 58.9147 202.162 59.224 200.797 59.224C199.325 59.224 198.002 58.8613 196.829 58.136C195.677 57.3893 194.76 56.3227 194.077 54.936C193.416 53.5493 193.085 51.928 193.085 50.072C193.085 48.1947 193.416 46.5733 194.077 45.208C194.76 43.8213 195.677 42.7653 196.829 42.04C198.002 41.2933 199.325 40.92 200.797 40.92ZM202.557 45.72C201.384 45.72 200.434 46.104 199.709 46.872C199.005 47.64 198.653 48.7067 198.653 50.072C198.653 51.4373 199.005 52.504 199.709 53.272C200.434 54.04 201.384 54.424 202.557 54.424C203.709 54.424 204.648 54.0293 205.373 53.24C206.12 52.4507 206.493 51.3947 206.493 50.072C206.493 48.728 206.12 47.672 205.373 46.904C204.648 46.1147 203.709 45.72 202.557 45.72Z" fill="#027A48"/>
<g id="loutus">
<path id="l2" d="M31 227.222C86.8893 212.246 144.416 245.459 159.391 301.349C103.502 316.324 45.9755 283.111 31 227.222Z" stroke="#027A48" stroke-width="4" stroke-miterlimit="10"/>
<path id="l1" d="M85.3425 172.915C141.232 187.89 174.445 245.417 159.469 301.306C103.58 286.33 70.367 228.804 85.3425 172.915Z" stroke="#027A48" stroke-width="4" stroke-miterlimit="10"/>
<path id="middle" d="M159.555 153C200.468 193.914 200.469 260.34 159.555 301.254C118.641 260.34 118.641 193.914 159.555 153Z" stroke="#027A48" stroke-width="4" stroke-miterlimit="10"/>
<path id="r2" d="M233.762 172.891C248.738 228.78 215.525 286.307 159.636 301.282C144.66 245.393 177.873 187.866 233.762 172.891Z" stroke="#027A48" stroke-width="4" stroke-miterlimit="10"/>
<path id="r1" d="M288.118 227.207C273.143 283.097 215.616 316.31 159.727 301.334C174.702 245.445 232.229 212.232 288.118 227.207Z" stroke="#027A48" stroke-width="4" stroke-miterlimit="10"/>
</g>
</g>
</svg>
