<svg width="320" height="384" viewBox="0 0 320 384" fill="none" xmlns="http://www.w3.org/2000/svg">
<g id="confusion">
<rect width="320" height="384" rx="16" fill="#E0F2FE"/>
<path id="confusion_2" d="M87.952 40.92C90.256 40.92 92.1867 41.56 93.744 42.84C95.3013 44.0987 96.2827 45.8373 96.688 48.056H90.896C90.7253 47.288 90.3733 46.6907 89.84 46.264C89.3067 45.8373 88.6347 45.624 87.824 45.624C86.864 45.624 86.0747 46.008 85.456 46.776C84.8373 47.5227 84.528 48.6213 84.528 50.072C84.528 51.5227 84.8373 52.632 85.456 53.4C86.0747 54.1467 86.864 54.52 87.824 54.52C88.6347 54.52 89.3067 54.3067 89.84 53.88C90.3733 53.4533 90.7253 52.856 90.896 52.088H96.688C96.2827 54.3067 95.3013 56.056 93.744 57.336C92.1867 58.5947 90.256 59.224 87.952 59.224C86.2027 59.224 84.6453 58.8613 83.28 58.136C81.936 57.3893 80.88 56.3227 80.112 54.936C79.344 53.5493 78.96 51.928 78.96 50.072C78.96 48.1947 79.3333 46.5733 80.08 45.208C80.848 43.8213 81.9147 42.7653 83.28 42.04C84.6453 41.2933 86.2027 40.92 87.952 40.92ZM107.896 40.92C109.667 40.92 111.246 41.2933 112.632 42.04C114.04 42.7653 115.139 43.8213 115.928 45.208C116.739 46.5947 117.144 48.216 117.144 50.072C117.144 51.928 116.739 53.5493 115.928 54.936C115.139 56.3227 114.04 57.3893 112.632 58.136C111.246 58.8613 109.667 59.224 107.896 59.224C106.126 59.224 104.536 58.8613 103.128 58.136C101.72 57.3893 100.611 56.3227 99.8002 54.936C99.0109 53.5493 98.6162 51.928 98.6162 50.072C98.6162 48.216 99.0109 46.5947 99.8002 45.208C100.611 43.8213 101.72 42.7653 103.128 42.04C104.536 41.2933 106.126 40.92 107.896 40.92ZM107.896 45.656C106.851 45.656 105.966 46.04 105.24 46.808C104.536 47.5547 104.184 48.6427 104.184 50.072C104.184 51.5013 104.536 52.5893 105.24 53.336C105.966 54.0827 106.851 54.456 107.896 54.456C108.942 54.456 109.816 54.0827 110.52 53.336C111.224 52.5893 111.576 51.5013 111.576 50.072C111.576 48.6427 111.224 47.5547 110.52 46.808C109.816 46.04 108.942 45.656 107.896 45.656ZM131.31 40.952C133.358 40.952 134.979 41.6347 136.174 43C137.39 44.3653 137.998 46.2427 137.998 48.632V59H132.526V49.272C132.526 48.0773 132.206 47.1493 131.566 46.488C130.947 45.8053 130.115 45.464 129.07 45.464C127.96 45.464 127.075 45.816 126.414 46.52C125.774 47.224 125.454 48.2267 125.454 49.528V59H119.982V41.144H125.454V44.408C125.966 43.3413 126.723 42.4987 127.726 41.88C128.75 41.2613 129.944 40.952 131.31 40.952ZM150.375 38.712C149.479 38.712 148.828 38.904 148.423 39.288C148.017 39.672 147.793 40.2907 147.751 41.144H150.983V45.752H147.751V59H142.279V45.752H140.135V41.144H142.279V40.952C142.279 38.7333 142.919 37.0267 144.199 35.832C145.5 34.616 147.377 34.008 149.831 34.008C150.343 34.008 150.727 34.0187 150.983 34.04V38.744L150.375 38.712ZM171.148 41.144V59H165.644V55.768C165.132 56.8133 164.364 57.6453 163.34 58.264C162.337 58.8827 161.164 59.192 159.82 59.192C157.772 59.192 156.14 58.5093 154.924 57.144C153.729 55.7787 153.132 53.9013 153.132 51.512V41.144H158.572V50.84C158.572 52.056 158.881 53.0053 159.5 53.688C160.14 54.3493 160.993 54.68 162.06 54.68C163.169 54.68 164.044 54.328 164.684 53.624C165.324 52.92 165.644 51.9173 165.644 50.616V41.144H171.148ZM181.415 40.92C183.677 40.92 185.479 41.4853 186.823 42.616C188.189 43.7467 189.042 45.24 189.383 47.096H184.263C184.114 46.3707 183.773 45.8053 183.239 45.4C182.727 44.9733 182.077 44.76 181.287 44.76C180.669 44.76 180.199 44.8987 179.879 45.176C179.559 45.432 179.399 45.8053 179.399 46.296C179.399 46.8507 179.687 47.2667 180.263 47.544C180.861 47.8213 181.789 48.0987 183.047 48.376C184.413 48.696 185.533 49.0267 186.407 49.368C187.282 49.688 188.039 50.2213 188.679 50.968C189.319 51.7147 189.639 52.7173 189.639 53.976C189.639 55 189.362 55.9067 188.807 56.696C188.253 57.4853 187.453 58.104 186.407 58.552C185.362 59 184.125 59.224 182.695 59.224C180.285 59.224 178.354 58.6907 176.903 57.624C175.453 56.5573 174.567 55.032 174.247 53.048H179.527C179.613 53.816 179.933 54.4027 180.487 54.808C181.063 55.2133 181.799 55.416 182.695 55.416C183.314 55.416 183.783 55.2773 184.103 55C184.423 54.7013 184.583 54.3173 184.583 53.848C184.583 53.2293 184.285 52.792 183.687 52.536C183.111 52.2587 182.162 51.9707 180.839 51.672C179.517 51.3947 178.429 51.096 177.575 50.776C176.722 50.456 175.986 49.944 175.367 49.24C174.749 48.5147 174.439 47.5333 174.439 46.296C174.439 44.696 175.047 43.4053 176.263 42.424C177.479 41.4213 179.197 40.92 181.415 40.92ZM192.157 36.12C192.157 35.288 192.456 34.6053 193.053 34.072C193.651 33.5173 194.44 33.24 195.421 33.24C196.403 33.24 197.192 33.5173 197.789 34.072C198.387 34.6053 198.685 35.288 198.685 36.12C198.685 36.9307 198.387 37.6133 197.789 38.168C197.192 38.7013 196.403 38.968 195.421 38.968C194.44 38.968 193.651 38.7013 193.053 38.168C192.456 37.6133 192.157 36.9307 192.157 36.12ZM198.141 41.144V59H192.669V41.144H198.141ZM210.271 40.92C212.042 40.92 213.621 41.2933 215.007 42.04C216.415 42.7653 217.514 43.8213 218.303 45.208C219.114 46.5947 219.519 48.216 219.519 50.072C219.519 51.928 219.114 53.5493 218.303 54.936C217.514 56.3227 216.415 57.3893 215.007 58.136C213.621 58.8613 212.042 59.224 210.271 59.224C208.501 59.224 206.911 58.8613 205.503 58.136C204.095 57.3893 202.986 56.3227 202.175 54.936C201.386 53.5493 200.991 51.928 200.991 50.072C200.991 48.216 201.386 46.5947 202.175 45.208C202.986 43.8213 204.095 42.7653 205.503 42.04C206.911 41.2933 208.501 40.92 210.271 40.92ZM210.271 45.656C209.226 45.656 208.341 46.04 207.615 46.808C206.911 47.5547 206.559 48.6427 206.559 50.072C206.559 51.5013 206.911 52.5893 207.615 53.336C208.341 54.0827 209.226 54.456 210.271 54.456C211.317 54.456 212.191 54.0827 212.895 53.336C213.599 52.5893 213.951 51.5013 213.951 50.072C213.951 48.6427 213.599 47.5547 212.895 46.808C212.191 46.04 211.317 45.656 210.271 45.656ZM233.685 40.952C235.733 40.952 237.354 41.6347 238.549 43C239.765 44.3653 240.373 46.2427 240.373 48.632V59H234.901V49.272C234.901 48.0773 234.581 47.1493 233.941 46.488C233.322 45.8053 232.49 45.464 231.445 45.464C230.335 45.464 229.45 45.816 228.789 46.52C228.149 47.224 227.829 48.2267 227.829 49.528V59H222.357V41.144H227.829V44.408C228.341 43.3413 229.098 42.4987 230.101 41.88C231.125 41.2613 232.319 40.952 233.685 40.952Z" fill="#0086C9"/>
<path id="lines" d="M158.378 140.426C153.29 144.761 140.116 161.51 133.496 171.226C128.989 177.839 121.799 193.224 113.75 213.624C107.558 229.318 105.647 243.263 103.998 256.005C101.368 276.342 105.262 283.811 107.822 290.921C109.733 296.227 116.228 298.414 125.914 300.976C134.89 303.35 144.061 299.903 151.181 296.269C159.78 291.879 168.948 283.515 180.447 273.871C203.408 254.613 212.922 249.919 217.328 244.812C224.311 236.719 228.305 230.586 232.168 224.74C236.195 218.645 240.392 202.583 241.705 184.811C242.226 177.76 236.041 172.194 232.195 167.81C228.357 163.435 221.405 160.875 206.253 158.313C193.497 156.157 184.76 158.302 179.123 160.295C155.286 168.72 146.687 172.895 137.001 178.522C117.5 189.85 115.547 202.781 110.965 209.913C105.089 219.059 103.086 227.609 97.4165 243.449C94.4416 251.76 92.8236 261.873 92.6313 269.399C92.5981 270.698 93.1752 271.769 93.7246 272.869C94.274 273.969 94.9992 275.053 108.608 276.334C122.216 277.615 148.686 279.06 165.949 279.262C183.211 279.465 190.463 278.381 200.544 275.475C223.615 268.824 238.568 261.588 244.584 256.87C265.039 240.827 272.631 225.485 276.488 214.724C277.319 212.406 277.048 210.881 276.323 209.414C273.21 203.119 264.654 197.395 247.644 190.985C234.343 185.973 223.954 187.137 217.587 186.59C204.377 185.454 193.199 186.765 183.007 187.854C148.54 191.538 142.665 193.322 135.512 196.064C129.754 198.272 125.436 201.357 117.937 206.995C111.217 212.046 107.482 215.567 105.641 220.504C104.655 223.149 104.899 226.525 106.355 230.165C108.083 234.485 112.943 237.472 116.777 241.112C120.806 244.936 135.907 250.948 162.57 258.419C176.356 262.282 191.408 263.362 202.148 264.112C219.017 265.289 227.943 263.406 233.239 261.227C239.457 258.67 247.326 248.145 256.11 236.114C265.01 223.926 264.961 209.436 263.324 197.586C260.447 176.762 242.304 161.269 237.14 155.949C232.269 150.931 208.747 139.791 194.116 133.321C185.641 129.573 172.772 126.217 162.614 124.191C155.55 122.783 142.357 133.069 132.759 141.132C128.06 145.08 131.633 156.431 136.017 169.567C141.021 184.56 146.654 197.701 152.098 211.451C156.999 223.828 166.97 246.875 172.739 261.315C178.508 275.754 179.958 280.811 183.244 288.836C191.061 307.928 197.924 319.947 200.116 321.228C206.14 324.748 214.746 303.625 218.251 293.718C220.453 287.496 222.833 281.304 223.932 272.054C226.004 254.612 222.855 235.742 220.295 223.706C219.082 218.005 216.625 214.527 212.257 206.18C204.275 190.924 195.396 178.774 189.375 172.222C177.42 159.214 164.311 158.686 151.824 158.122C145.808 157.85 139.369 163.021 129.485 169.956C119.235 177.147 114.448 180.908 111.141 186.924C106.316 195.699 107.833 204.62 106.921 212.463C105.159 227.622 116.602 251.67 119.728 257.543C122.375 262.517 126.491 271.375 135.814 283.608C141.529 291.107 149.192 292.941 153.966 294.955C158.871 297.024 164.575 298.064 170.981 298.973C185.309 301.005 207.296 291.561 219.158 284.944C227.337 280.381 233.074 271.09 239.293 264.708C250.106 253.613 250.655 246.635 253.781 235.89C257.005 224.807 253.622 206.875 249.781 196.847C244.716 183.622 233.514 178.785 224.701 173.284C221.347 171.19 211.933 168.177 194.226 165.259C173.485 161.842 157.323 164.86 146.923 168.675C123.836 177.144 117.766 182.003 107.504 188.385C99.233 193.528 94.296 200.613 90.8128 210.077C88.2955 216.916 91.3402 222.879 93.5323 225.791C97.9001 231.593 107.767 237.089 142.484 244.582C157.27 247.773 166.773 247.335 177.513 248.43C197.941 250.512 214.021 248.441 219.867 247.352C231.849 245.119 244.37 237.154 252.853 234.396C258.863 232.441 261.654 228.375 263.483 226.558C264.422 225.625 264.588 224.018 264.412 222.732C264.069 220.22 259.5 216.716 253.468 212.343C248.817 208.971 237.579 206.13 213.334 203.207C197.886 201.345 175.673 203.175 156.482 204.269C137.292 205.364 121.7 206.809 112.399 207.915C100.502 209.329 95.7683 210.849 89.0272 212.841C64.1233 220.201 52.19 233.082 47.7783 238.928C45.9007 241.416 45.5752 244.774 44.4764 248.408C43.0021 253.285 45.1907 258.271 47.7454 261.911C50.5589 265.92 55.7941 268.857 65.0844 272.311C71.3617 274.645 81.2642 276.849 104.619 279.235C127.974 281.621 164.597 283.789 188.721 283.822C212.845 283.855 223.361 281.687 230.228 279.487C240.421 276.221 244.798 271.441 248.452 267.626C253.092 262.78 259.05 243.843 266.741 220.679C272.223 204.171 271.554 185.375 267.181 173.672C263.415 163.596 252.918 158.335 244.661 154.668C237.613 151.538 226.91 149.917 211.62 147.202C200.254 145.184 181.826 140.513 170.487 138.28C159.147 136.047 155.521 136.047 147.67 140.563C139.819 145.078 127.853 154.11 119.695 160.93C107.039 171.509 101.625 180.164 98.6966 187.263C96.0653 193.642 96.8452 209.272 98.2956 233.657C99.8084 259.091 107.811 276.849 111.651 285.234C115.594 293.842 123.898 302.027 134.704 309.17C142.959 314.626 154.301 315.207 165.251 316.302C179.037 317.68 189.122 315.952 194.05 313.954C200.316 311.414 207.055 305.76 215.268 297.04C226.559 285.054 231.624 272.557 232.723 261.484C233.46 254.051 233.096 242.825 232.008 232.179C229.908 211.628 224.328 195.227 219.762 183.388C215.973 173.562 210.406 167.816 206.934 163.267C203.406 158.646 195.44 148.527 183.189 136.315C174.893 128.047 167.926 125.472 162.812 124.377C153.836 122.456 146.335 127.99 133.886 138.193C123.383 146.8 120.315 162.583 119.365 175.96C118.35 190.245 127.963 198.424 131.26 206.437C133.549 212.002 137.116 219.924 141.676 231.199C147.253 244.989 157.224 259.311 167.641 271.884C180.613 287.541 190.573 288.562 199.55 290.215C201.557 290.585 203.033 290.401 204.868 289.859C209.019 288.633 216.922 278.808 226.619 264.232C233.114 254.468 234.558 248.813 235.288 242.655C236.953 228.629 234.217 212.02 228.564 198.002C219.038 174.382 206.395 172.194 201.066 169.808C194.305 166.78 182.969 169.239 169.239 174.882C160.849 178.331 154.378 184.554 148.351 189.469C142.272 194.427 130.622 205.287 116.904 221.319C107.305 232.537 102.361 240.384 97.0704 247.286C89.349 257.359 85.132 265.573 83.6706 267.221C82.5394 268.496 79.2864 258.72 75.2648 245.255C71.096 231.297 70.474 215.676 71.3805 199.661C73.1172 168.978 84.7364 155.774 88.5877 151.57C93.293 146.434 103.02 148.811 113.107 151.181C121.386 153.126 133.743 157.547 147.895 165.571C153.639 168.828 157.982 176.508 164.553 188.495C168.633 195.938 172.574 206.984 175.722 216.722C186.342 249.569 183.277 266.307 184.919 268.49C189.221 274.209 197.913 276.52 212.889 279.082C216.557 279.709 218.768 279.454 220.976 277.828C226.262 273.938 229.415 264.183 233.25 250.915C242.314 219.554 239.326 210.137 238.052 207.586C237.412 206.305 235.689 205.758 233.673 205.928C231.657 206.097 229.118 207.181 218.927 214.784C208.736 222.387 190.968 236.476 181.271 244.275C165.543 256.927 149.675 268.091 141.731 271.605C136.537 273.903 132.018 269.974 130.188 268.157C126.159 264.155 130.886 245.299 139.116 226.957C143.942 216.202 159.411 210.159 169.327 205.939C184.229 199.597 201.89 200.635 214.378 198.637C222.719 197.303 231.953 182.813 235.288 176.206C235.968 174.86 236.019 172.939 236.024 171.466C236.034 168.886 222.603 160.207 201.379 147.99C189.321 141.049 180.035 139.342 171.986 138.784C159.449 137.914 154.752 163.327 151.609 175.588C148.937 186.013 149.587 196.946 150.131 205.857C151.303 225.046 164.158 237.767 171.36 246.224C181.156 257.726 194.968 265.201 203.945 265.595C214.672 266.066 219.889 248.824 221.74 243.531C222.532 241.268 220.284 238.961 218.279 236.596C215.614 233.453 206.428 229.13 195.265 224.204C186.327 220.26 177.453 225.813 160.103 232.71C143.382 239.357 138.995 247.313 134.221 250.8C132.304 252.2 128.732 252.086 124.892 251.906C116.789 251.524 107.855 241.533 103.817 234.96C100.429 229.444 101.24 212.786 104.339 197.395C106.261 187.846 124.579 175.172 144.929 165.084C165.75 154.763 180.31 161.948 187.474 164.679C192.852 166.729 193.891 175.785 196.462 181.094C199.598 187.569 198.308 196.957 194.116 204.609C189.084 213.794 177.486 223.93 166.877 233.591C160.22 239.653 156.191 241.862 153.818 242.776C151.261 243.76 148.5 241.511 146.489 239.875C144.479 238.239 143.731 234.593 143.181 230.586C142.735 227.327 144.083 224.368 146.275 221.637C151.873 214.662 172.904 210.859 182.172 211.938C186.9 212.488 184.749 225.025 182.024 237.614C179.401 249.732 170.849 257.177 165.927 261.178C159.077 266.745 149.269 270.313 137.413 274.134C121.149 279.375 106.053 280.91 97.0924 280.915C90.5094 280.919 86.967 277.637 84.5936 275.639C76.6414 268.945 76.3416 250.707 74.8747 237.204C72.6476 216.703 74.4956 199.212 76.1383 192.654C78.9379 181.479 90.2084 173.661 105.938 165.632C112.66 162.2 118.437 162.692 128.254 161.417C150.234 158.562 166.784 160.492 170.075 161.401C172.835 162.163 179.563 166.666 191.798 174.663C216.273 190.66 219.515 204.948 223.927 212.835C225.698 216.002 225.405 225.737 224.317 240.844C223.232 255.905 216.636 266.285 210.983 273.559C198.501 289.62 189.913 292.196 166.712 302.043C159.147 305.254 155.092 304.994 152.538 305.36C141.799 306.902 128.381 292.985 119.409 282.793C104.532 265.893 106.383 254.67 102.537 241.566C99.8358 232.362 99.779 223.657 99.2296 213.492C97.5132 181.738 102.691 170.749 106.899 162.353C112.12 151.937 120.997 144.827 135.243 138.986C145.388 134.827 156.84 133.507 186.837 132.944C197.264 132.748 209.56 140.732 218.24 145.522C226.983 150.346 235.228 162.254 240.595 170.142C242.608 173.099 242.612 177.624 243.711 191.385C244.634 202.947 244.084 223.93 243.722 236.53C243.254 252.773 241.887 257.91 240.799 263.712C238.582 275.537 233.843 285.628 230.558 291.633C226.947 298.232 219.592 306.044 211.181 314.063C204.945 319.192 191.814 324.665 174.25 330.139C167.201 332 163.938 332 160.575 332" stroke="#0086C9" stroke-width="4" stroke-linecap="round"/>
</g>
</svg>
