<svg width="320" height="384" viewBox="0 0 320 384" fill="none" xmlns="http://www.w3.org/2000/svg">
<g id="disapproval">
<rect width="320" height="384" rx="16" fill="#F5FBFF"/>
<path id="disapproval_2" d="M68.672 40.92C70.0373 40.92 71.2107 41.2293 72.192 41.848C73.1733 42.4667 73.888 43.3093 74.336 44.376V35.32H79.808V59H74.336V55.768C73.888 56.8347 73.1733 57.6773 72.192 58.296C71.2107 58.9147 70.0373 59.224 68.672 59.224C67.2 59.224 65.8773 58.8613 64.704 58.136C63.552 57.3893 62.6347 56.3227 61.952 54.936C61.2907 53.5493 60.96 51.928 60.96 50.072C60.96 48.1947 61.2907 46.5733 61.952 45.208C62.6347 43.8213 63.552 42.7653 64.704 42.04C65.8773 41.2933 67.2 40.92 68.672 40.92ZM70.432 45.72C69.2587 45.72 68.3093 46.104 67.584 46.872C66.88 47.64 66.528 48.7067 66.528 50.072C66.528 51.4373 66.88 52.504 67.584 53.272C68.3093 54.04 69.2587 54.424 70.432 54.424C71.584 54.424 72.5227 54.0293 73.248 53.24C73.9947 52.4507 74.368 51.3947 74.368 50.072C74.368 48.728 73.9947 47.672 73.248 46.904C72.5227 46.1147 71.584 45.72 70.432 45.72ZM83.0635 36.12C83.0635 35.288 83.3622 34.6053 83.9595 34.072C84.5568 33.5173 85.3462 33.24 86.3275 33.24C87.3088 33.24 88.0982 33.5173 88.6955 34.072C89.2928 34.6053 89.5915 35.288 89.5915 36.12C89.5915 36.9307 89.2928 37.6133 88.6955 38.168C88.0982 38.7013 87.3088 38.968 86.3275 38.968C85.3462 38.968 84.5568 38.7013 83.9595 38.168C83.3622 37.6133 83.0635 36.9307 83.0635 36.12ZM89.0475 41.144V59H83.5755V41.144H89.0475ZM99.3215 40.92C101.583 40.92 103.385 41.4853 104.729 42.616C106.095 43.7467 106.948 45.24 107.289 47.096H102.169C102.02 46.3707 101.679 45.8053 101.145 45.4C100.633 44.9733 99.9828 44.76 99.1935 44.76C98.5748 44.76 98.1055 44.8987 97.7855 45.176C97.4655 45.432 97.3055 45.8053 97.3055 46.296C97.3055 46.8507 97.5935 47.2667 98.1695 47.544C98.7668 47.8213 99.6948 48.0987 100.953 48.376C102.319 48.696 103.439 49.0267 104.313 49.368C105.188 49.688 105.945 50.2213 106.585 50.968C107.225 51.7147 107.545 52.7173 107.545 53.976C107.545 55 107.268 55.9067 106.713 56.696C106.159 57.4853 105.359 58.104 104.313 58.552C103.268 59 102.031 59.224 100.601 59.224C98.1908 59.224 96.2602 58.6907 94.8095 57.624C93.3588 56.5573 92.4735 55.032 92.1535 53.048H97.4335C97.5188 53.816 97.8388 54.4027 98.3935 54.808C98.9695 55.2133 99.7055 55.416 100.601 55.416C101.22 55.416 101.689 55.2773 102.009 55C102.329 54.7013 102.489 54.3173 102.489 53.848C102.489 53.2293 102.191 52.792 101.593 52.536C101.017 52.2587 100.068 51.9707 98.7455 51.672C97.4228 51.3947 96.3348 51.096 95.4815 50.776C94.6282 50.456 93.8922 49.944 93.2735 49.24C92.6548 48.5147 92.3455 47.5333 92.3455 46.296C92.3455 44.696 92.9535 43.4053 94.1695 42.424C95.3855 41.4213 97.1028 40.92 99.3215 40.92ZM117.359 40.92C118.725 40.92 119.898 41.2293 120.879 41.848C121.861 42.4667 122.586 43.3093 123.055 44.376V41.144H128.495V59H123.055V55.768C122.586 56.8347 121.861 57.6773 120.879 58.296C119.898 58.9147 118.725 59.224 117.359 59.224C115.887 59.224 114.565 58.8613 113.391 58.136C112.239 57.3893 111.322 56.3227 110.639 54.936C109.978 53.5493 109.647 51.928 109.647 50.072C109.647 48.1947 109.978 46.5733 110.639 45.208C111.322 43.8213 112.239 42.7653 113.391 42.04C114.565 41.2933 115.887 40.92 117.359 40.92ZM119.119 45.72C117.946 45.72 116.997 46.104 116.271 46.872C115.567 47.64 115.215 48.7067 115.215 50.072C115.215 51.4373 115.567 52.504 116.271 53.272C116.997 54.04 117.946 54.424 119.119 54.424C120.271 54.424 121.21 54.0293 121.935 53.24C122.682 52.4507 123.055 51.3947 123.055 50.072C123.055 48.728 122.682 47.672 121.935 46.904C121.21 46.1147 120.271 45.72 119.119 45.72ZM143.399 40.92C144.871 40.92 146.183 41.2933 147.335 42.04C148.508 42.7653 149.426 43.8213 150.087 45.208C150.77 46.5733 151.111 48.1947 151.111 50.072C151.111 51.928 150.77 53.5493 150.087 54.936C149.426 56.3227 148.508 57.3893 147.335 58.136C146.183 58.8613 144.871 59.224 143.399 59.224C142.034 59.224 140.86 58.9147 139.879 58.296C138.898 57.6773 138.183 56.8347 137.735 55.768V67.512H132.263V41.144H137.735V44.376C138.183 43.3093 138.898 42.4667 139.879 41.848C140.86 41.2293 142.034 40.92 143.399 40.92ZM141.639 45.72C140.487 45.72 139.538 46.1147 138.791 46.904C138.066 47.672 137.703 48.728 137.703 50.072C137.703 51.3947 138.066 52.4507 138.791 53.24C139.538 54.0293 140.487 54.424 141.639 54.424C142.812 54.424 143.751 54.04 144.455 53.272C145.18 52.504 145.543 51.4373 145.543 50.072C145.543 48.7067 145.18 47.64 144.455 46.872C143.751 46.104 142.812 45.72 141.639 45.72ZM165.086 40.92C166.558 40.92 167.87 41.2933 169.022 42.04C170.196 42.7653 171.113 43.8213 171.774 45.208C172.457 46.5733 172.798 48.1947 172.798 50.072C172.798 51.928 172.457 53.5493 171.774 54.936C171.113 56.3227 170.196 57.3893 169.022 58.136C167.87 58.8613 166.558 59.224 165.086 59.224C163.721 59.224 162.548 58.9147 161.566 58.296C160.585 57.6773 159.87 56.8347 159.422 55.768V67.512H153.95V41.144H159.422V44.376C159.87 43.3093 160.585 42.4667 161.566 41.848C162.548 41.2293 163.721 40.92 165.086 40.92ZM163.326 45.72C162.174 45.72 161.225 46.1147 160.478 46.904C159.753 47.672 159.39 48.728 159.39 50.072C159.39 51.3947 159.753 52.4507 160.478 53.24C161.225 54.0293 162.174 54.424 163.326 54.424C164.5 54.424 165.438 54.04 166.142 53.272C166.868 52.504 167.23 51.4373 167.23 50.072C167.23 48.7067 166.868 47.64 166.142 46.872C165.438 46.104 164.5 45.72 163.326 45.72ZM181.11 44.504C181.793 43.416 182.667 42.552 183.734 41.912C184.822 41.272 185.995 40.952 187.254 40.952V46.808H185.686C184.235 46.808 183.105 47.1173 182.294 47.736C181.505 48.3547 181.11 49.4 181.11 50.872V59H175.638V41.144H181.11V44.504ZM197.896 40.92C199.667 40.92 201.246 41.2933 202.632 42.04C204.04 42.7653 205.139 43.8213 205.928 45.208C206.739 46.5947 207.144 48.216 207.144 50.072C207.144 51.928 206.739 53.5493 205.928 54.936C205.139 56.3227 204.04 57.3893 202.632 58.136C201.246 58.8613 199.667 59.224 197.896 59.224C196.126 59.224 194.536 58.8613 193.128 58.136C191.72 57.3893 190.611 56.3227 189.8 54.936C189.011 53.5493 188.616 51.928 188.616 50.072C188.616 48.216 189.011 46.5947 189.8 45.208C190.611 43.8213 191.72 42.7653 193.128 42.04C194.536 41.2933 196.126 40.92 197.896 40.92ZM197.896 45.656C196.851 45.656 195.966 46.04 195.24 46.808C194.536 47.5547 194.184 48.6427 194.184 50.072C194.184 51.5013 194.536 52.5893 195.24 53.336C195.966 54.0827 196.851 54.456 197.896 54.456C198.942 54.456 199.816 54.0827 200.52 53.336C201.224 52.5893 201.576 51.5013 201.576 50.072C201.576 48.6427 201.224 47.5547 200.52 46.808C199.816 46.04 198.942 45.656 197.896 45.656ZM218.238 53.656L222.11 41.144H227.934L221.598 59H214.814L208.478 41.144H214.302L218.238 53.656ZM236.984 40.92C238.35 40.92 239.523 41.2293 240.504 41.848C241.486 42.4667 242.211 43.3093 242.68 44.376V41.144H248.12V59H242.68V55.768C242.211 56.8347 241.486 57.6773 240.504 58.296C239.523 58.9147 238.35 59.224 236.984 59.224C235.512 59.224 234.19 58.8613 233.016 58.136C231.864 57.3893 230.947 56.3227 230.264 54.936C229.603 53.5493 229.272 51.928 229.272 50.072C229.272 48.1947 229.603 46.5733 230.264 45.208C230.947 43.8213 231.864 42.7653 233.016 42.04C234.19 41.2933 235.512 40.92 236.984 40.92ZM238.744 45.72C237.571 45.72 236.622 46.104 235.896 46.872C235.192 47.64 234.84 48.7067 234.84 50.072C234.84 51.4373 235.192 52.504 235.896 53.272C236.622 54.04 237.571 54.424 238.744 54.424C239.896 54.424 240.835 54.0293 241.56 53.24C242.307 52.4507 242.68 51.3947 242.68 50.072C242.68 48.728 242.307 47.672 241.56 46.904C240.835 46.1147 239.896 45.72 238.744 45.72ZM257.36 35.32V59H251.888V35.32H257.36Z" fill="#0086C9"/>
<g id="x">
<line id="line 2" x1="244.267" y1="301.154" x2="71.9124" y2="134.14" stroke="#0086C9" stroke-width="6"/>
<line id="line 1" x1="247.482" y1="131.116" x2="78.2363" y2="301.28" stroke="#0086C9" stroke-width="6"/>
</g>
</g>
</svg>
