<svg width="320" height="384" viewBox="0 0 320 384" fill="none" xmlns="http://www.w3.org/2000/svg">
<g id="disgust">
<rect width="320" height="384" rx="16" fill="#FDA29B"/>
<path id="disgust_2" d="M107.672 40.92C109.037 40.92 110.211 41.2293 111.192 41.848C112.173 42.4667 112.888 43.3093 113.336 44.376V35.32H118.808V59H113.336V55.768C112.888 56.8347 112.173 57.6773 111.192 58.296C110.211 58.9147 109.037 59.224 107.672 59.224C106.2 59.224 104.877 58.8613 103.704 58.136C102.552 57.3893 101.635 56.3227 100.952 54.936C100.291 53.5493 99.96 51.928 99.96 50.072C99.96 48.1947 100.291 46.5733 100.952 45.208C101.635 43.8213 102.552 42.7653 103.704 42.04C104.877 41.2933 106.2 40.92 107.672 40.92ZM109.432 45.72C108.259 45.72 107.309 46.104 106.584 46.872C105.88 47.64 105.528 48.7067 105.528 50.072C105.528 51.4373 105.88 52.504 106.584 53.272C107.309 54.04 108.259 54.424 109.432 54.424C110.584 54.424 111.523 54.0293 112.248 53.24C112.995 52.4507 113.368 51.3947 113.368 50.072C113.368 48.728 112.995 47.672 112.248 46.904C111.523 46.1147 110.584 45.72 109.432 45.72ZM122.063 36.12C122.063 35.288 122.362 34.6053 122.959 34.072C123.557 33.5173 124.346 33.24 125.327 33.24C126.309 33.24 127.098 33.5173 127.695 34.072C128.293 34.6053 128.591 35.288 128.591 36.12C128.591 36.9307 128.293 37.6133 127.695 38.168C127.098 38.7013 126.309 38.968 125.327 38.968C124.346 38.968 123.557 38.7013 122.959 38.168C122.362 37.6133 122.063 36.9307 122.063 36.12ZM128.047 41.144V59H122.575V41.144H128.047ZM138.321 40.92C140.583 40.92 142.385 41.4853 143.729 42.616C145.095 43.7467 145.948 45.24 146.289 47.096H141.169C141.02 46.3707 140.679 45.8053 140.145 45.4C139.633 44.9733 138.983 44.76 138.193 44.76C137.575 44.76 137.105 44.8987 136.785 45.176C136.465 45.432 136.305 45.8053 136.305 46.296C136.305 46.8507 136.593 47.2667 137.169 47.544C137.767 47.8213 138.695 48.0987 139.953 48.376C141.319 48.696 142.439 49.0267 143.313 49.368C144.188 49.688 144.945 50.2213 145.585 50.968C146.225 51.7147 146.545 52.7173 146.545 53.976C146.545 55 146.268 55.9067 145.713 56.696C145.159 57.4853 144.359 58.104 143.313 58.552C142.268 59 141.031 59.224 139.601 59.224C137.191 59.224 135.26 58.6907 133.809 57.624C132.359 56.5573 131.473 55.032 131.153 53.048H136.433C136.519 53.816 136.839 54.4027 137.393 54.808C137.969 55.2133 138.705 55.416 139.601 55.416C140.22 55.416 140.689 55.2773 141.009 55C141.329 54.7013 141.489 54.3173 141.489 53.848C141.489 53.2293 141.191 52.792 140.593 52.536C140.017 52.2587 139.068 51.9707 137.745 51.672C136.423 51.3947 135.335 51.096 134.481 50.776C133.628 50.456 132.892 49.944 132.273 49.24C131.655 48.5147 131.345 47.5333 131.345 46.296C131.345 44.696 131.953 43.4053 133.169 42.424C134.385 41.4213 136.103 40.92 138.321 40.92ZM156.359 40.92C157.725 40.92 158.898 41.2293 159.879 41.848C160.861 42.4667 161.586 43.3093 162.055 44.376V41.144H167.495V58.904C167.495 60.568 167.175 62.0613 166.535 63.384C165.895 64.728 164.914 65.7947 163.591 66.584C162.269 67.3733 160.626 67.768 158.663 67.768C155.975 67.768 153.821 67.128 152.199 65.848C150.599 64.5893 149.639 62.872 149.319 60.696H154.727C154.898 61.4213 155.282 61.9867 155.879 62.392C156.498 62.7973 157.298 63 158.279 63C159.41 63 160.317 62.6693 160.999 62.008C161.703 61.368 162.055 60.3333 162.055 58.904V55.768C161.586 56.8347 160.861 57.6773 159.879 58.296C158.898 58.9147 157.725 59.224 156.359 59.224C154.887 59.224 153.565 58.8613 152.391 58.136C151.239 57.3893 150.322 56.3227 149.639 54.936C148.978 53.5493 148.647 51.928 148.647 50.072C148.647 48.1947 148.978 46.5733 149.639 45.208C150.322 43.8213 151.239 42.7653 152.391 42.04C153.565 41.2933 154.887 40.92 156.359 40.92ZM158.119 45.72C156.946 45.72 155.997 46.104 155.271 46.872C154.567 47.64 154.215 48.7067 154.215 50.072C154.215 51.4373 154.567 52.504 155.271 53.272C155.997 54.04 156.946 54.424 158.119 54.424C159.271 54.424 160.21 54.0293 160.935 53.24C161.682 52.4507 162.055 51.3947 162.055 50.072C162.055 48.728 161.682 47.672 160.935 46.904C160.21 46.1147 159.271 45.72 158.119 45.72ZM189.023 41.144V59H183.519V55.768C183.007 56.8133 182.239 57.6453 181.215 58.264C180.212 58.8827 179.039 59.192 177.695 59.192C175.647 59.192 174.015 58.5093 172.799 57.144C171.604 55.7787 171.007 53.9013 171.007 51.512V41.144H176.447V50.84C176.447 52.056 176.756 53.0053 177.375 53.688C178.015 54.3493 178.868 54.68 179.935 54.68C181.044 54.68 181.919 54.328 182.559 53.624C183.199 52.92 183.519 51.9173 183.519 50.616V41.144H189.023ZM199.29 40.92C201.552 40.92 203.354 41.4853 204.698 42.616C206.064 43.7467 206.917 45.24 207.258 47.096H202.138C201.989 46.3707 201.648 45.8053 201.114 45.4C200.602 44.9733 199.952 44.76 199.162 44.76C198.544 44.76 198.074 44.8987 197.754 45.176C197.434 45.432 197.274 45.8053 197.274 46.296C197.274 46.8507 197.562 47.2667 198.138 47.544C198.736 47.8213 199.664 48.0987 200.922 48.376C202.288 48.696 203.408 49.0267 204.282 49.368C205.157 49.688 205.914 50.2213 206.554 50.968C207.194 51.7147 207.514 52.7173 207.514 53.976C207.514 55 207.237 55.9067 206.682 56.696C206.128 57.4853 205.328 58.104 204.282 58.552C203.237 59 202 59.224 200.57 59.224C198.16 59.224 196.229 58.6907 194.778 57.624C193.328 56.5573 192.442 55.032 192.122 53.048H197.402C197.488 53.816 197.808 54.4027 198.362 54.808C198.938 55.2133 199.674 55.416 200.57 55.416C201.189 55.416 201.658 55.2773 201.978 55C202.298 54.7013 202.458 54.3173 202.458 53.848C202.458 53.2293 202.16 52.792 201.562 52.536C200.986 52.2587 200.037 51.9707 198.714 51.672C197.392 51.3947 196.304 51.096 195.45 50.776C194.597 50.456 193.861 49.944 193.242 49.24C192.624 48.5147 192.314 47.5333 192.314 46.296C192.314 44.696 192.922 43.4053 194.138 42.424C195.354 41.4213 197.072 40.92 199.29 40.92ZM220.656 54.296V59H218.192C216.102 59 214.47 58.488 213.296 57.464C212.144 56.4187 211.568 54.7013 211.568 52.312V45.752H209.168V41.144H211.568V36.76H217.04V41.144H220.624V45.752H217.04V52.408C217.04 53.112 217.179 53.6027 217.456 53.88C217.755 54.1573 218.246 54.296 218.928 54.296H220.656Z" fill="#FFFBFA"/>
<g id="drip">
<g id="Vector">
<path d="M86.9254 134.877C81.9729 137.833 76.2655 144.451 77.3298 155C78.2313 163.938 78.4758 162.662 79.5618 171.657C80.8217 182.117 78.1499 181.616 79.5618 191.22C80.6153 198.376 77.5091 201.427 80.2243 214C81.6362 220.546 88.9488 229.084 88.8293 231C88.2754 240.28 80.8217 235.345 78.8885 246.383C77.8458 252.301 77.3897 255.327 80.2243 258.512C84.9814 263.846 96.7111 267.697 107.018 267.12C113.839 266.739 125.145 264.125 129.12 263.206C132.508 262.425 135.69 261.594 138.493 262.425C142.229 263.523 142.869 266.847 143.184 268.686C144.292 275.182 139.47 277.047 138.493 283.942C137.971 287.577 137.189 293.102 143.184 296.071C148.007 298.463 155.87 298.52 161.268 296.851C167.621 294.891 169.685 290.819 171.987 286.29C175.745 278.893 172.704 276.476 177.342 271.814C179.731 269.41 185.618 264.956 190.744 265.553C190.744 265.553 195.816 266.143 203.473 285.503C203.473 285.503 208.642 288.871 212.183 289.024C218.363 289.29 224.26 279.908 224.912 278.849C233.177 265.401 243.707 272.784 242.328 262.425C239.83 243.63 225.737 224.289 224.912 211.164C223.848 194.271 244.446 221.999 242.328 208.5C240.699 198.097 221.198 156.036 207.828 145.5C202.169 141.034 190.983 133.184 172.661 132.53C161.213 132.118 155.859 135.709 138.503 134.878C130.097 134.478 130.238 133.583 119.073 132.53C102.511 130.976 94.6692 130.253 86.9254 134.877Z" fill="#FFFBFA"/>
<path d="M116.107 130.303C118.117 130.263 120.075 130.678 121.966 131.521C123.544 132.226 125.133 132.682 126.724 132.904C128.328 133.128 129.975 133.15 131.669 132.951C133.657 132.718 135.62 132.817 137.54 133.267C139.21 133.659 140.892 133.921 142.591 134.041C144.339 134.165 146.094 134.236 147.853 134.252C149.435 134.266 150.988 133.957 152.517 133.326C154.356 132.567 156.237 132.097 158.154 131.92C159.943 131.755 161.745 131.639 163.544 131.568C165.239 131.501 166.93 131.306 168.618 130.982L170.095 130.783C171.571 130.655 173.045 130.761 174.513 131.099L177.021 131.557C177.855 131.669 178.691 131.745 179.529 131.779C181.456 131.858 183.337 132.223 185.154 132.881L190.134 134.685C191.751 135.275 193.394 135.822 195.068 136.314C196.83 136.833 198.561 137.464 200.259 138.201L202.79 139.42C203.613 139.862 204.419 140.338 205.204 140.849C206.761 141.863 208.243 142.983 209.657 144.201C211.131 145.47 212.399 146.925 213.454 148.56L214.931 150.693C215.441 151.381 215.973 152.048 216.525 152.697L219.935 156.892C221.058 158.343 222.097 159.854 223.052 161.416C224.013 162.988 224.87 164.624 225.618 166.314C226.322 167.902 227.088 169.45 227.927 170.955C228.828 172.571 229.598 174.257 230.236 176.006C230.832 177.642 231.493 179.245 232.216 180.81L233.365 183.096C233.771 183.847 234.199 184.593 234.654 185.322C235.664 186.943 236.453 188.665 237.009 190.49L237.841 192.892C238.15 193.678 238.491 194.454 238.861 195.213L240.056 197.51C240.475 198.269 240.918 199.023 241.38 199.771C242.492 201.573 243 203.565 242.904 205.701C242.862 206.63 242.813 207.471 242.751 208.221L242.529 210.201C242.462 210.658 242.298 211.14 241.966 211.56C241.625 211.991 241.174 212.27 240.689 212.416C239.798 212.683 238.807 212.502 237.911 212.217C236.106 211.642 234.42 210.762 232.872 209.58C231.914 208.849 230.85 208.23 229.673 207.728L228.466 207.271C227.784 207.04 227.484 207.124 227.376 207.178C227.324 207.204 227.232 207.263 227.13 207.4L226.802 208.115C226.307 209.693 226.258 211.189 226.626 212.639L227.212 215.381C227.375 216.302 227.504 217.232 227.599 218.17C227.769 219.851 228.136 221.474 228.7 223.033L229.685 225.342C230.051 226.094 230.456 226.829 230.904 227.545C231.908 229.148 232.744 230.835 233.411 232.584L234.443 234.799C234.838 235.52 235.289 236.218 235.79 236.896C237.041 238.59 237.748 240.522 237.911 242.65C238.042 244.351 238.425 245.925 239.048 247.385C239.734 248.99 240.443 250.597 241.181 252.201L241.732 253.549C242.223 254.91 242.53 256.324 242.657 257.779L242.95 263.017L242.857 264.471C242.651 265.884 242.087 267.167 241.157 268.291C240.311 269.313 239.307 270.216 238.146 270.998L236.939 271.736C235.387 272.602 233.846 273.438 232.322 274.232C230.892 274.977 229.483 275.874 228.115 276.928C226.817 277.927 225.758 279.097 224.915 280.432C223.913 282.018 222.739 283.452 221.411 284.744L217.603 288.459C216.796 289.244 215.866 289.806 214.814 290.064C214.023 290.259 213.218 290.269 212.411 290.123L211.603 289.924C210.72 289.653 209.853 289.36 209.001 289.045L206.505 288.037C204.679 287.237 203.203 286.04 202.134 284.439C201.142 282.953 200.381 281.27 199.837 279.412C199.371 277.819 198.688 276.328 197.798 274.935C196.935 273.585 195.84 272.427 194.505 271.455C192.972 270.338 191.554 269.159 190.263 267.928C189.431 267.136 188.484 266.878 187.204 267.224C185.649 267.646 184.265 268.36 183.032 269.346C181.673 270.433 180.38 271.557 179.165 272.732C178.033 273.827 177.1 275.096 176.353 276.529C175.57 278.031 174.929 279.56 174.431 281.111C173.918 282.706 173.455 284.346 173.06 286.033C172.629 287.874 171.98 289.656 171.115 291.377C170.141 293.311 168.639 294.734 166.65 295.596C165.012 296.305 163.424 297.063 161.88 297.857C160.042 298.803 158.066 299.156 155.997 298.935C154.274 298.752 152.575 298.666 150.9 298.678C149.97 298.684 149.041 298.644 148.122 298.537L145.392 298.045C143.448 297.574 141.742 296.651 140.306 295.291C138.922 293.979 137.787 292.405 136.907 290.58C135.95 288.592 135.732 286.498 136.263 284.369C136.719 282.539 137.255 280.741 137.88 278.978C138.513 277.194 139.255 275.513 140.095 273.939L140.517 272.99C140.873 272.032 141.016 271.048 140.939 270.025C140.823 268.517 140.468 266.954 139.884 265.349C139.45 264.162 138.647 263.469 137.247 263.205C135.547 262.885 133.925 262.908 132.372 263.264C130.74 263.638 129.174 264.227 127.673 265.033C125.934 265.967 124.119 266.625 122.236 267.014C121.312 267.204 120.374 267.345 119.435 267.435L116.599 267.564C114.877 267.55 113.186 267.669 111.525 267.928C109.714 268.21 107.891 268.372 106.064 268.408C104.272 268.444 102.473 268.42 100.673 268.338C99.2419 268.272 97.833 268.061 96.4543 267.705L95.095 267.307C93.4332 266.753 91.7611 266.234 90.0911 265.748C88.3417 265.239 86.6085 264.623 84.9114 263.896C83.5242 263.302 82.2827 262.499 81.1965 261.494L80.1653 260.416C78.8846 258.931 77.9123 257.265 77.259 255.435C76.5646 253.488 76.5045 251.485 77.0598 249.471C77.544 247.714 78.0649 246.011 78.6418 244.373C79.2662 242.601 80.1802 241.013 81.3723 239.627L83.1887 237.705C83.8374 237.072 84.5302 236.453 85.2629 235.842C86.3654 234.922 86.9688 233.766 87.1145 232.303C87.2237 231.202 87.0464 230.239 86.5754 229.373L86.0129 228.541C84.798 227.06 83.7657 225.472 82.9309 223.771C82.5196 222.933 82.148 222.081 81.8176 221.217L80.9504 218.58C80.7282 217.785 80.4604 216.998 80.1536 216.224L79.1106 213.928C78.1728 212.129 77.6795 210.214 77.6458 208.197C77.6315 207.329 77.5945 206.455 77.5403 205.584L77.3176 202.959C77.1086 201.015 77.2015 199.095 77.5989 197.205C77.9236 195.663 77.9489 194.124 77.6575 192.588C77.3144 190.785 77.0925 188.937 77.0012 187.057C76.9101 185.173 76.9557 183.31 77.1301 181.478C77.2952 179.747 77.4076 178.026 77.47 176.334C77.5351 174.569 77.68 172.764 77.9036 170.92C78.0878 169.4 77.8484 167.942 77.177 166.525C76.2515 164.571 75.9793 162.5 76.3684 160.361C76.6803 158.645 76.7693 156.984 76.6497 155.381C76.5868 154.54 76.5028 153.688 76.3918 152.826L75.9934 150.201C75.6148 148.102 75.8292 146.053 76.6497 144.096C77.4163 142.268 78.4442 140.609 79.72 139.115C80.9695 137.653 82.361 136.354 83.8918 135.236C84.6142 134.709 85.2038 134.297 85.6497 134.006C85.8712 133.861 86.0786 133.729 86.259 133.631C86.3682 133.571 86.6866 133.401 87.0442 133.349L87.1965 133.303C87.3263 133.271 87.5061 133.224 87.7356 133.162C88.197 133.038 88.8492 132.86 89.6809 132.623C91.3116 132.159 92.9393 131.637 94.5559 131.041C96.4473 130.344 98.4073 130.14 100.415 130.443C102.132 130.703 103.846 130.882 105.548 130.982C107.194 131.079 108.869 131.005 110.564 130.76C112.415 130.492 114.263 130.339 116.107 130.303ZM116.165 133.303C114.449 133.336 112.727 133.486 110.997 133.736C109.109 134.01 107.227 134.091 105.372 133.982C103.577 133.877 101.776 133.681 99.97 133.408C98.4545 133.179 96.999 133.333 95.5872 133.853C94.7458 134.164 93.9018 134.456 93.0559 134.732L90.5012 135.517C89.6652 135.755 89.0037 135.939 88.5208 136.068C88.2192 136.149 87.9297 136.196 87.7122 136.244L87.7004 136.267C87.619 136.312 87.4819 136.389 87.2903 136.514L85.6614 137.662C84.3223 138.64 83.0942 139.772 81.9934 141.06C80.9225 142.315 80.063 143.711 79.4153 145.256C78.8205 146.675 78.6578 148.14 78.9348 149.674L79.3684 152.439C79.4863 153.354 79.5826 154.261 79.6497 155.158C79.7895 157.033 79.6762 158.95 79.3215 160.9C79.0434 162.429 79.2289 163.866 79.884 165.248C80.7942 167.168 81.1336 169.191 80.8801 171.283C80.6661 173.049 80.5318 174.774 80.47 176.451C80.4054 178.202 80.277 179.972 80.1067 181.76C79.9461 183.445 79.9169 185.16 80.0012 186.904C80.0857 188.651 80.2823 190.362 80.5989 192.025C80.9652 193.953 80.9459 195.887 80.5403 197.814C80.2075 199.394 80.1291 201.004 80.3059 202.642L80.5403 205.396C80.5973 206.311 80.6307 207.226 80.6458 208.139C80.6712 209.686 81.0455 211.154 81.7708 212.545C82.6492 214.23 83.343 215.975 83.845 217.771C84.2932 219.375 84.8837 220.934 85.6262 222.447C86.3581 223.938 87.2625 225.338 88.3333 226.642L89.2356 227.978C89.9835 229.373 90.2695 230.934 90.1028 232.607C89.8795 234.838 88.897 236.71 87.1848 238.139C86.5089 238.702 85.8751 239.275 85.2864 239.849L83.6458 241.584C82.7071 242.675 81.9833 243.936 81.4778 245.369C80.925 246.939 80.4094 248.574 79.9426 250.267C79.548 251.699 79.6004 253.073 80.0833 254.428C80.6105 255.904 81.396 257.25 82.4387 258.459L83.2356 259.279C84.0711 260.053 85.0207 260.67 86.095 261.131C87.6816 261.81 89.2925 262.391 90.9231 262.865C92.6306 263.362 94.3342 263.893 96.0325 264.459L98.3879 265.068C99.1822 265.216 99.9873 265.3 100.802 265.338C102.538 265.417 104.278 265.442 106.005 265.408C107.696 265.374 109.379 265.224 111.056 264.963C112.883 264.678 114.74 264.549 116.622 264.564L119.154 264.459C119.986 264.378 120.81 264.252 121.626 264.084C123.219 263.756 124.76 263.187 126.255 262.385C127.989 261.454 129.807 260.768 131.704 260.334C133.682 259.881 135.719 259.861 137.798 260.252C140.176 260.7 141.89 262.082 142.708 264.33C143.376 266.164 143.789 267.985 143.927 269.791C144.076 271.74 143.677 273.609 142.743 275.357C141.98 276.787 141.302 278.324 140.716 279.974C140.123 281.647 139.603 283.357 139.169 285.096C138.81 286.535 138.958 287.904 139.615 289.267C140.35 290.794 141.27 292.07 142.368 293.111C143.416 294.104 144.65 294.777 146.095 295.127L148.474 295.549C149.27 295.641 150.071 295.683 150.876 295.678C152.668 295.665 154.481 295.763 156.314 295.959C157.807 296.118 159.199 295.86 160.509 295.185C162.112 294.36 163.759 293.576 165.454 292.842C166.8 292.259 167.774 291.334 168.431 290.029C169.194 288.513 169.766 286.949 170.142 285.342C170.554 283.58 171.034 281.858 171.572 280.185L172.509 277.642C172.862 276.8 173.263 275.971 173.693 275.146C174.586 273.432 175.711 271.9 177.079 270.576L179.06 268.748C179.739 268.151 180.442 267.574 181.157 267.002C182.716 265.755 184.474 264.858 186.419 264.33C188.641 263.728 190.692 264.19 192.337 265.76C193.526 266.894 194.841 267.985 196.275 269.029C197.904 270.216 199.261 271.646 200.329 273.318C201.373 274.951 202.162 276.704 202.708 278.568C203.177 280.167 203.824 281.567 204.63 282.775C205.359 283.866 206.365 284.709 207.7 285.295L210.044 286.232C210.841 286.527 211.652 286.81 212.482 287.064L213.361 287.217C213.628 287.23 213.873 287.213 214.099 287.158C214.551 287.047 215.026 286.781 215.517 286.303L219.325 282.599C220.481 281.475 221.494 280.217 222.372 278.826C223.409 277.184 224.717 275.757 226.286 274.549C227.785 273.395 229.333 272.402 230.927 271.572C232.426 270.791 233.946 269.976 235.474 269.123L236.47 268.514C237.415 267.878 238.202 267.162 238.849 266.381C239.412 265.7 239.763 264.927 239.892 264.025L239.95 263.076L239.669 258.037C239.529 256.44 239.123 254.915 238.45 253.455C237.701 251.827 236.979 250.198 236.282 248.568C235.524 246.792 235.077 244.891 234.923 242.885C234.802 241.304 234.284 239.907 233.376 238.678C232.51 237.504 231.774 236.271 231.173 234.974L230.611 233.65C230.013 232.086 229.263 230.579 228.361 229.139C227.858 228.335 227.402 227.511 226.99 226.666L225.888 224.053C225.238 222.257 224.805 220.398 224.611 218.474C224.523 217.611 224.408 216.755 224.259 215.908L223.72 213.377C223.206 211.352 223.293 209.285 223.943 207.213L224.259 206.392C224.638 205.601 225.202 204.92 226.017 204.506C227.103 203.955 228.306 204.044 229.427 204.424L230.857 204.974C232.248 205.568 233.535 206.311 234.7 207.201C235.982 208.179 237.353 208.891 238.814 209.357C239.147 209.464 239.405 209.514 239.587 209.533C239.716 208.564 239.828 207.243 239.904 205.56C239.972 204.018 239.612 202.63 238.825 201.353C238.337 200.562 237.875 199.756 237.431 198.951L236.165 196.525C235.76 195.694 235.39 194.843 235.052 193.982L234.138 191.369C233.659 189.793 232.983 188.304 232.111 186.904C231.624 186.123 231.163 185.33 230.728 184.525L229.497 182.064C228.74 180.424 228.047 178.749 227.423 177.037C226.84 175.437 226.136 173.896 225.314 172.42C224.43 170.834 223.616 169.204 222.876 167.533C222.528 166.748 222.16 165.97 221.763 165.213L220.497 162.986C219.6 161.518 218.624 160.097 217.568 158.732L214.24 154.642C213.643 153.94 213.068 153.218 212.517 152.474L210.935 150.189C210.036 148.796 208.956 147.556 207.7 146.474C206.386 145.343 205.007 144.309 203.564 143.369C202.135 142.439 200.639 141.634 199.075 140.955C197.489 140.267 195.868 139.681 194.224 139.197C192.489 138.687 190.781 138.122 189.103 137.51L184.122 135.705C182.596 135.153 181.029 134.834 179.411 134.767C177.545 134.691 175.687 134.442 173.845 134.017C172.682 133.749 171.517 133.671 170.353 133.771L169.181 133.924C167.347 134.275 165.508 134.495 163.661 134.568C161.916 134.637 160.171 134.748 158.435 134.908C156.829 135.056 155.24 135.454 153.665 136.103C151.778 136.882 149.826 137.27 147.829 137.252C146.009 137.235 144.19 137.157 142.38 137.029C140.521 136.898 138.673 136.625 136.849 136.197C135.276 135.828 133.668 135.734 132.021 135.928C130.082 136.155 128.172 136.142 126.302 135.881C124.418 135.617 122.565 135.075 120.747 134.264C119.24 133.591 117.716 133.272 116.165 133.303Z" fill="#FFFBFA"/>
</g>
<g id="Vector_2">
<path d="M84.9777 272.944C80.7874 273.798 73.2116 287.353 78.4046 291.177C78.5108 291.253 80.7664 292.855 83.3707 291.939C87.1442 290.609 89.2759 284.822 89.4629 281.173C89.6662 277.197 87.7349 272.384 84.9743 272.949L84.9777 272.944Z" fill="#FFFBFA"/>
<path d="M84.2007 272.111C84.9378 271.785 85.7876 271.634 86.6431 271.914C87.4407 272.177 88.0529 272.744 88.5129 273.377C88.7424 273.694 88.9548 274.048 89.1463 274.437L89.6746 275.705C90.3044 277.473 90.6943 279.317 90.8601 281.23C91.0385 283.291 90.6773 285.275 89.7813 287.151C89.1135 288.549 88.2284 289.752 87.1215 290.744L85.9364 291.676C84.1532 292.887 82.1934 293.243 80.1918 292.605C78.2315 291.979 76.839 290.641 76.086 288.708C75.3218 286.742 75.489 284.738 76.4887 282.823C77.2937 281.281 78.0568 279.733 78.7719 278.186L79.4228 276.919C80.1379 275.692 81.0215 274.588 82.0666 273.608L83.1259 272.739C83.4805 272.486 83.8379 272.272 84.2007 272.111ZM85.4145 274.858C85.1142 274.992 84.6888 275.278 84.1298 275.801C83.0198 276.84 82.1415 278.052 81.4962 279.446L79.1447 284.208C78.5117 285.421 78.4556 286.522 78.8801 287.615C79.3164 288.737 80.0414 289.408 81.1111 289.749C82.1407 290.076 83.1459 289.941 84.2508 289.191L85.1055 288.516C85.9155 287.791 86.574 286.91 87.0781 285.855C87.7448 284.458 88.0045 283.012 87.8727 281.49C87.7283 279.823 87.391 278.23 86.8491 276.709L86.4568 275.766C86.3289 275.506 86.2068 275.297 86.0904 275.137C85.8566 274.815 85.7112 274.765 85.7081 274.764C85.7643 274.783 85.7031 274.731 85.4145 274.858Z" fill="#FFFBFA"/>
</g>
<g id="Vector_3">
<path d="M244.322 215.31C242.916 215.333 241.538 221.392 243.754 223.812C243.799 223.86 244.756 224.881 245.592 224.675C246.804 224.374 247.001 221.68 246.714 219.87C246.401 217.897 245.248 215.297 244.322 215.313L244.322 215.31Z" fill="#FFFBFA"/>
<path d="M243.265 214.653C243.339 214.573 243.855 214.021 244.686 214.167C245.538 214.317 245.826 215.036 245.869 215.148L245.901 215.211C245.918 215.249 245.935 215.301 245.963 215.363L247.115 217.669L247.664 219.006C248.005 220.124 248.041 221.249 247.635 222.308L247.336 222.942C246.988 223.547 246.199 224.574 244.872 224.381C244.29 224.296 243.841 223.99 243.536 223.699L242.745 222.666C241.768 221.019 241.634 219.171 242.194 217.257C242.426 216.465 242.626 215.826 242.803 215.407C242.867 215.257 243.017 214.92 243.265 214.653Z" fill="#FFFBFA"/>
</g>
<g id="Vector_4">
<path d="M191.765 302.278C190.44 303.631 189.299 305.581 188.935 316.878C188.706 323.913 189.078 325.471 190.078 326.988C190.233 327.226 193.069 331.418 196.369 330.859C200.534 330.156 202.707 322.351 203.303 318.381C204.546 310.093 201.696 300.059 196.889 299.653C194.535 299.457 192.396 301.633 191.768 302.268L191.765 302.278Z" fill="#FFFBFA"/>
<path d="M192.318 299.801C192.873 299.532 193.598 299.252 194.465 298.954C195.522 298.592 196.602 298.488 197.647 298.766C198.697 299.048 199.573 299.682 200.281 300.535C200.866 301.239 201.415 301.978 201.922 302.746L203.337 305.149C204.22 306.863 204.812 308.687 205.124 310.609C205.427 312.473 205.548 314.363 205.492 316.263C205.464 317.214 205.394 318.16 205.277 319.101L204.797 321.909C204.478 323.349 203.995 324.734 203.353 326.061L202.644 327.374C201.818 328.793 200.726 329.872 199.371 330.557L197.925 331.112C196.408 331.524 194.941 331.462 193.574 330.916L192.236 330.21C190.628 329.131 189.451 327.654 188.711 325.841C187.983 324.054 187.733 322.154 187.947 320.167C188.136 318.418 188.31 316.671 188.478 314.925L188.639 312.381C188.667 311.534 188.672 310.685 188.647 309.835L188.671 308.392C188.756 306.961 189.028 305.568 189.498 304.218L190.24 302.198C190.432 301.716 190.635 301.265 190.829 300.959L191.197 300.528C191.322 300.412 191.443 300.316 191.546 300.245C191.777 300.086 192.041 299.935 192.318 299.801ZM193.266 302.765C193.204 302.9 193.115 303.08 193.023 303.312L192.338 305.201C191.961 306.284 191.732 307.408 191.663 308.567L191.643 309.747C191.67 310.66 191.67 311.572 191.64 312.482L191.469 315.211C191.3 316.968 191.12 318.726 190.931 320.486C190.767 322.01 190.957 323.419 191.487 324.72C192.007 325.992 192.811 326.977 193.911 327.716L194.666 328.119C195.427 328.428 196.233 328.46 197.141 328.213L198.002 327.892C198.815 327.485 199.499 326.827 200.059 325.864L200.648 324.762C201.193 323.639 201.6 322.468 201.869 321.255L202.299 318.725C202.405 317.878 202.471 317.027 202.497 316.172C202.547 314.463 202.439 312.772 202.168 311.098C201.906 309.482 201.399 307.955 200.662 306.525L199.418 304.401C198.97 303.722 198.492 303.071 197.978 302.452C197.589 301.983 197.221 301.759 196.88 301.667C196.534 301.574 196.07 301.576 195.444 301.79C194.625 302.071 194.025 302.31 193.627 302.503C193.465 302.582 193.36 302.651 193.291 302.695C193.282 302.715 193.277 302.74 193.266 302.765Z" fill="#FFFBFA"/>
</g>
<g id="Vector_5">
<path d="M117.271 150.771C113.065 153.325 116.253 157.734 121.454 171.24C125.751 182.396 127.899 187.971 128.43 192.543C129.222 199.418 127.469 201.369 122.155 227.636C120.414 236.211 120.244 237.796 122.155 239.754C131.675 249.467 174.741 249.636 187.009 238.921C193.013 233.671 180.25 226.572 182.805 208.493C184.523 196.301 194.053 199.486 193.284 191.296C192.459 182.484 187.28 167.901 174.459 166.228C170.603 165.727 165.142 166.025 162.61 167.901C160.122 169.737 162.203 171.708 161.219 175.839C160.36 179.436 157.137 184.753 152.852 185.031C148.454 185.309 142.507 180.33 141.693 175.42C140.935 170.854 145.186 169.73 145.876 163.302C146.215 160.166 146.588 156.589 143.083 153.69C137.249 148.874 122.619 147.533 117.282 150.764L117.271 150.771Z" fill="#FDA29B"/>
<path d="M126.102 148.332C126.793 148.389 127.481 148.491 128.16 148.637C128.799 148.774 129.439 148.874 130.078 148.934C130.727 148.994 131.383 149.032 132.043 149.051C132.738 149.071 133.43 149.143 134.113 149.262C134.788 149.379 135.456 149.527 136.117 149.707C136.783 149.889 137.435 150.113 138.074 150.375C138.699 150.631 139.319 150.896 139.934 151.172C140.553 151.45 141.165 151.751 141.77 152.07L142.238 152.34C142.694 152.629 143.111 152.97 143.488 153.363C143.964 153.859 144.415 154.37 144.84 154.898L145.16 155.34C145.455 155.791 145.679 156.28 145.828 156.805L146.074 157.793C146.145 158.125 146.202 158.458 146.25 158.793C146.345 159.456 146.407 160.129 146.434 160.809L146.438 161.84L146.363 162.867C146.289 163.553 146.169 164.23 146 164.895C145.83 165.563 145.606 166.21 145.328 166.836C145.066 167.427 144.816 168.036 144.586 168.656C144.465 168.983 144.333 169.303 144.188 169.617L143.715 170.539L142.723 172.277C142.435 172.77 142.299 173.293 142.312 173.855L142.395 175.82L142.441 176.27C142.51 176.715 142.638 177.148 142.828 177.566C143.091 178.145 143.416 178.685 143.801 179.188L144.418 179.91C144.635 180.138 144.865 180.354 145.105 180.559C145.629 181.004 146.125 181.482 146.594 181.988L147.273 182.648C147.513 182.857 147.764 183.051 148.027 183.234L148.41 183.473C148.799 183.685 149.219 183.832 149.668 183.91C150.33 184.026 150.978 184.123 151.609 184.203C152.209 184.28 152.81 184.283 153.41 184.211C154.008 184.139 154.601 183.986 155.191 183.758L155.613 183.578C156.024 183.378 156.404 183.123 156.758 182.82L157.105 182.504C157.437 182.175 157.728 181.813 157.98 181.418C158.346 180.846 158.719 180.278 159.094 179.719L159.59 178.902C159.744 178.623 159.886 178.337 160.016 178.043C160.266 177.474 160.428 176.879 160.504 176.262C160.589 175.571 160.728 174.889 160.918 174.215L161.016 173.777C161.089 173.341 161.087 172.901 161.016 172.457C160.905 171.771 160.839 171.076 160.82 170.375C160.798 169.555 161.09 168.848 161.688 168.293C162.216 167.802 162.804 167.411 163.445 167.121L164.371 166.734C164.683 166.614 165 166.502 165.32 166.398C165.962 166.191 166.618 166.017 167.285 165.875C167.943 165.735 168.607 165.605 169.277 165.492C169.971 165.375 170.669 165.324 171.371 165.34C172.075 165.356 172.775 165.443 173.465 165.598C174.128 165.747 174.783 165.908 175.43 166.082L176.359 166.289C176.674 166.343 176.993 166.384 177.316 166.41C178.053 166.471 178.756 166.659 179.418 166.973C180.045 167.27 180.65 167.608 181.23 167.984C181.791 168.348 182.355 168.711 182.918 169.074C183.521 169.463 184.058 169.929 184.531 170.469L185.836 172.012L187.113 173.523C187.554 174.027 187.994 174.539 188.43 175.059C188.893 175.61 189.272 176.213 189.566 176.867L190.355 178.746L191.043 180.656C191.24 181.259 191.492 181.844 191.801 182.41L192.043 182.914C192.255 183.423 192.382 183.959 192.426 184.52L192.555 185.461C192.616 185.768 192.695 186.071 192.793 186.367C193.002 186.998 193.22 187.633 193.441 188.27C193.626 188.802 193.716 189.349 193.715 189.906L193.684 190.469C193.612 191.108 193.624 191.737 193.715 192.359C193.798 192.928 193.764 193.485 193.613 194.023L193.422 194.559C193.128 195.236 192.714 195.827 192.188 196.332C191.702 196.797 191.203 197.248 190.688 197.684L189.137 198.961C188.604 199.388 188.048 199.794 187.473 200.172C186.973 200.5 186.57 200.919 186.258 201.43C185.898 202.02 185.509 202.59 185.094 203.137C184.813 203.507 184.577 203.901 184.387 204.32L184.215 204.75C183.993 205.354 183.82 205.969 183.699 206.598C183.638 206.916 183.586 207.237 183.543 207.559L183.438 208.527C183.41 208.879 183.363 209.228 183.297 209.574L183.039 210.613C182.854 211.221 182.755 211.837 182.738 212.461C182.721 213.111 182.745 213.761 182.809 214.41C182.874 215.081 182.938 215.752 183 216.418C183.059 217.052 183.172 217.679 183.344 218.297C183.526 218.955 183.689 219.617 183.828 220.277C183.965 220.923 184.11 221.571 184.262 222.219L184.504 223.168C184.593 223.483 184.69 223.795 184.793 224.105C184.994 224.713 185.247 225.301 185.551 225.867L186.008 226.801C186.149 227.115 186.28 227.434 186.398 227.758C186.623 228.37 186.878 228.972 187.16 229.559C187.442 230.145 187.752 230.723 188.09 231.289C188.471 231.927 188.71 232.619 188.805 233.359C188.849 233.707 188.882 234.053 188.902 234.395L188.93 235.41C188.923 236.136 188.752 236.82 188.418 237.449C188.099 238.049 187.694 238.597 187.203 239.09C186.729 239.566 186.216 240.01 185.668 240.426C185.394 240.634 185.115 240.834 184.828 241.023L183.949 241.562C183.35 241.906 182.731 242.207 182.09 242.461C181.465 242.709 180.832 242.945 180.199 243.168C179.568 243.39 178.934 243.601 178.297 243.805C177.661 244.008 177.023 244.206 176.383 244.395C175.735 244.585 175.079 244.752 174.418 244.895C173.797 245.028 173.184 245.212 172.582 245.449C171.911 245.714 171.215 245.877 170.5 245.941C170.181 245.97 169.865 246.012 169.551 246.066L168.609 246.273C167.945 246.447 167.271 246.585 166.594 246.688C165.912 246.791 165.223 246.847 164.531 246.859L162.535 246.91C161.88 246.932 161.226 246.977 160.574 247.039C159.903 247.103 159.229 247.149 158.555 247.176L156.539 247.215C155.882 247.217 155.223 247.235 154.566 247.27C153.926 247.304 153.281 247.387 152.637 247.516C151.933 247.656 151.226 247.716 150.52 247.691C149.989 247.673 149.462 247.606 148.938 247.496L148.414 247.371C147.825 247.212 147.232 247.187 146.629 247.293C146.072 247.391 145.519 247.403 144.973 247.328L144.426 247.223C143.791 247.067 143.153 246.956 142.512 246.883L140.539 246.691C140.197 246.665 139.855 246.631 139.516 246.586L138.5 246.422C137.86 246.3 137.214 246.209 136.562 246.148C135.848 246.082 135.152 245.918 134.48 245.652C133.908 245.426 133.31 245.304 132.684 245.289C132.126 245.276 131.585 245.193 131.062 245.035L130.547 244.852C129.911 244.594 129.287 244.309 128.676 244C128.386 243.854 128.093 243.717 127.797 243.59L126.898 243.238C126.258 243.012 125.625 242.757 125.004 242.477C124.685 242.332 124.373 242.173 124.07 241.996L123.184 241.414C122.736 241.086 122.35 240.703 122.023 240.27L121.715 239.82C121.368 239.251 121.028 238.674 120.691 238.094C120.299 237.416 120.163 236.678 120.281 235.898C120.381 235.244 120.451 234.59 120.496 233.938C120.543 233.253 120.625 232.573 120.746 231.898C120.867 231.226 121.021 230.558 121.207 229.898C121.379 229.29 121.484 228.665 121.523 228.023C121.567 227.304 121.703 226.606 121.926 225.93L122.203 225C122.286 224.687 122.357 224.372 122.422 224.055C122.558 223.386 122.727 222.723 122.926 222.066L123.043 221.617C123.142 221.167 123.19 220.705 123.184 220.23C123.173 219.482 123.303 218.76 123.578 218.07C123.812 217.483 123.966 216.881 124.039 216.262C124.12 215.578 124.24 214.899 124.402 214.23C124.558 213.587 124.706 212.942 124.844 212.293C124.984 211.633 125.133 210.975 125.293 210.324C125.449 209.685 125.593 209.042 125.723 208.395C125.857 207.725 126.022 207.063 126.215 206.41L126.453 205.48C126.523 205.167 126.585 204.85 126.633 204.531C126.739 203.829 126.933 203.145 127.215 202.48C127.459 201.905 127.599 201.308 127.641 200.695C127.686 200.027 127.732 199.36 127.773 198.695C127.816 198.015 127.886 197.338 127.988 196.664L128.094 195.711L128.121 194.754C128.112 194.097 128.082 193.441 128.031 192.785C127.982 192.147 127.881 191.516 127.723 190.895C127.638 190.562 127.559 190.228 127.492 189.891L127.32 188.871C127.275 188.552 127.217 188.237 127.145 187.926L126.887 187.008C126.787 186.707 126.67 186.411 126.539 186.121L126.098 185.266C125.732 184.637 125.464 183.97 125.293 183.273C125.137 182.635 124.96 182.004 124.762 181.379C124.666 181.077 124.555 180.779 124.43 180.488L124.008 179.629C123.655 178.989 123.42 178.302 123.305 177.574C123.233 177.121 123.097 176.692 122.895 176.289L122.672 175.895C122.274 175.27 122 174.593 121.852 173.871C121.721 173.237 121.541 172.621 121.309 172.023C121.192 171.723 121.061 171.428 120.922 171.137L120.473 170.281C120.121 169.671 119.828 169.035 119.598 168.375C119.376 167.741 119.162 167.105 118.957 166.465C118.759 165.847 118.527 165.242 118.262 164.652C117.99 164.05 117.71 163.447 117.418 162.852C117.109 162.223 116.861 161.568 116.676 160.891C116.591 160.581 116.493 160.276 116.383 159.977L116.016 159.09C115.713 158.441 115.502 157.762 115.387 157.055C115.277 156.378 115.201 155.706 115.152 155.043C115.103 154.357 115.129 153.683 115.238 153.02C115.358 152.289 115.691 151.649 116.223 151.113L116.816 150.57C116.891 150.513 116.984 150.448 117.082 150.406C117.13 150.385 117.215 150.355 117.316 150.352C117.356 150.35 117.401 150.361 117.449 150.371C117.464 150.367 117.484 150.367 117.508 150.359C117.642 150.318 117.85 150.234 118.141 150.105L119.922 149.27L120.438 149.051C120.959 148.862 121.504 148.767 122.066 148.766L122.539 148.75C123.009 148.719 123.475 148.644 123.938 148.523C124.65 148.338 125.374 148.272 126.102 148.332ZM126.02 149.328C125.406 149.277 124.796 149.331 124.191 149.488C123.667 149.625 123.136 149.711 122.602 149.746L122.066 149.766C121.47 149.767 120.904 149.901 120.363 150.168C119.75 150.472 119.144 150.754 118.547 151.02C118.246 151.153 117.993 151.253 117.801 151.312C117.707 151.341 117.605 151.369 117.508 151.379C117.481 151.382 117.447 151.376 117.41 151.375L116.934 151.82C116.543 152.213 116.312 152.663 116.227 153.18C116.13 153.764 116.104 154.363 116.148 154.973C116.195 155.605 116.27 156.246 116.375 156.895C116.475 157.512 116.658 158.103 116.922 158.668L117.32 159.633C117.44 159.96 117.548 160.292 117.641 160.629C117.81 161.246 118.036 161.842 118.316 162.414C118.613 163.019 118.9 163.626 119.176 164.238C119.457 164.863 119.701 165.506 119.91 166.16C120.112 166.791 120.324 167.418 120.543 168.043C120.753 168.643 121.019 169.224 121.34 169.781L121.824 170.707C121.974 171.02 122.113 171.34 122.238 171.664C122.491 172.314 122.691 172.983 122.832 173.672C122.956 174.274 123.183 174.836 123.516 175.359L123.789 175.844C124.037 176.338 124.205 176.864 124.293 177.418C124.391 178.033 124.59 178.607 124.887 179.145L125.348 180.094C125.486 180.415 125.609 180.741 125.715 181.074C125.92 181.721 126.104 182.375 126.266 183.035C126.413 183.638 126.647 184.214 126.965 184.762L127.449 185.707C127.595 186.029 127.725 186.357 127.836 186.691L128.117 187.699C128.197 188.039 128.263 188.383 128.312 188.73L128.477 189.695C128.54 190.015 128.611 190.333 128.691 190.648C128.864 191.325 128.977 192.011 129.031 192.707C129.084 193.385 129.112 194.064 129.121 194.742L129.094 195.781L128.98 196.816C128.882 197.46 128.81 198.107 128.77 198.758C128.728 199.425 128.686 200.095 128.641 200.766C128.592 201.491 128.42 202.194 128.133 202.871C127.883 203.459 127.714 204.062 127.621 204.68C127.569 205.021 127.504 205.359 127.43 205.695L127.172 206.695C126.988 207.319 126.831 207.95 126.703 208.59C126.571 209.251 126.425 209.91 126.266 210.562C126.109 211.203 125.962 211.851 125.824 212.5C125.685 213.159 125.534 213.816 125.375 214.469C125.222 215.098 125.107 215.736 125.031 216.379C124.948 217.086 124.774 217.774 124.508 218.441C124.283 219.007 124.175 219.596 124.184 220.215C124.194 220.949 124.092 221.664 123.883 222.355C123.693 222.982 123.533 223.615 123.402 224.254C123.334 224.591 123.256 224.926 123.168 225.258L122.875 226.242C122.679 226.835 122.562 227.451 122.523 228.086C122.48 228.797 122.359 229.494 122.168 230.172C121.991 230.8 121.845 231.434 121.73 232.074C121.616 232.712 121.537 233.356 121.492 234.004C121.446 234.684 121.373 235.365 121.27 236.047C121.185 236.604 121.278 237.116 121.555 237.594C121.888 238.168 122.227 238.737 122.57 239.301L122.82 239.668C123.087 240.022 123.404 240.334 123.773 240.605L124.574 241.133C124.847 241.293 125.13 241.436 125.418 241.566C126.013 241.835 126.617 242.08 127.23 242.297L128.191 242.672C128.507 242.807 128.821 242.953 129.129 243.109C129.715 243.406 130.312 243.678 130.922 243.926L131.352 244.078C131.786 244.21 132.238 244.278 132.707 244.289C133.45 244.306 134.164 244.452 134.848 244.723C135.431 244.954 136.033 245.099 136.652 245.156C137.335 245.219 138.013 245.314 138.684 245.441L139.645 245.594C139.966 245.636 140.289 245.671 140.613 245.695L142.625 245.887C143.309 245.965 143.989 246.089 144.664 246.254L145.105 246.336C145.549 246.397 145.997 246.389 146.453 246.309C147.2 246.177 147.945 246.209 148.676 246.406L149.613 246.605C149.926 246.653 150.241 246.681 150.555 246.691C151.183 246.713 151.812 246.661 152.441 246.535C153.132 246.397 153.823 246.31 154.512 246.273C155.185 246.238 155.861 246.217 156.535 246.215L158.512 246.176C159.168 246.15 159.824 246.105 160.477 246.043C161.149 245.979 161.824 245.937 162.5 245.914L164.516 245.859C165.164 245.848 165.807 245.796 166.445 245.699C167.089 245.602 167.728 245.469 168.359 245.305L169.379 245.082C169.72 245.023 170.064 244.976 170.41 244.945C171.029 244.89 171.632 244.749 172.215 244.52C172.867 244.263 173.531 244.059 174.207 243.914C174.843 243.777 175.473 243.617 176.098 243.434C176.73 243.247 177.363 243.056 177.992 242.855C178.62 242.655 179.246 242.445 179.867 242.227C180.488 242.008 181.106 241.774 181.719 241.531C182.316 241.295 182.894 241.016 183.453 240.695L184.277 240.188C184.545 240.01 184.806 239.823 185.062 239.629C185.575 239.24 186.052 238.825 186.492 238.383C186.916 237.957 187.264 237.487 187.535 236.977C187.791 236.494 187.924 235.973 187.93 235.402L187.902 234.453C187.883 234.135 187.854 233.813 187.812 233.488C187.735 232.883 187.541 232.321 187.23 231.801C186.877 231.209 186.553 230.606 186.258 229.992C185.962 229.377 185.696 228.744 185.461 228.102C185.35 227.799 185.229 227.501 185.098 227.207L184.668 226.34C184.338 225.724 184.063 225.084 183.844 224.422C183.736 224.098 183.636 223.77 183.543 223.441L183.285 222.445C183.132 221.79 182.986 221.134 182.848 220.48C182.713 219.842 182.559 219.203 182.383 218.566C182.195 217.89 182.068 217.203 182.004 216.508C181.942 215.844 181.878 215.176 181.812 214.508C181.745 213.818 181.72 213.128 181.738 212.438C181.757 211.721 181.874 211.014 182.086 210.32L182.316 209.387C182.376 209.076 182.416 208.763 182.441 208.449L182.551 207.426C182.597 207.086 182.654 206.747 182.719 206.41C182.85 205.728 183.033 205.057 183.273 204.402L183.477 203.906C183.697 203.419 183.971 202.96 184.297 202.531C184.691 202.012 185.06 201.471 185.402 200.91C185.791 200.272 186.301 199.746 186.926 199.336C187.475 198.975 188.004 198.591 188.512 198.184L190.043 196.922C190.542 196.5 191.026 196.064 191.496 195.613C191.925 195.202 192.262 194.718 192.504 194.16L192.648 193.758C192.763 193.352 192.786 192.934 192.723 192.504C192.619 191.795 192.611 191.078 192.691 190.355L192.715 189.906C192.716 189.459 192.644 189.023 192.496 188.598C192.273 187.956 192.054 187.315 191.844 186.68C191.677 186.176 191.557 185.658 191.484 185.129L191.43 184.598C191.394 184.142 191.289 183.709 191.117 183.297L190.922 182.891C190.584 182.271 190.31 181.627 190.094 180.965L189.426 179.109L188.656 177.277C188.4 176.707 188.068 176.18 187.664 175.699C187.232 175.185 186.799 174.678 186.363 174.18L185.062 172.645L183.781 171.129C183.369 170.658 182.9 170.252 182.375 169.914C181.81 169.55 181.246 169.185 180.684 168.82C180.141 168.468 179.575 168.153 178.988 167.875C178.437 167.614 177.852 167.457 177.234 167.406C176.881 167.377 176.532 167.333 176.188 167.273L175.172 167.051C174.539 166.88 173.896 166.72 173.246 166.574C172.621 166.434 171.989 166.355 171.352 166.34C170.712 166.325 170.074 166.374 169.441 166.48C168.786 166.591 168.135 166.714 167.492 166.852C166.859 166.987 166.237 167.151 165.629 167.348C165.325 167.446 165.026 167.554 164.73 167.668L163.855 168.031C163.316 168.275 162.823 168.608 162.371 169.027C161.988 169.383 161.806 169.809 161.82 170.348C161.838 171.005 161.9 171.655 162.004 172.297C162.093 172.849 162.091 173.398 162 173.941L161.879 174.484C161.703 175.11 161.575 175.746 161.496 176.387C161.408 177.1 161.219 177.787 160.93 178.445C160.789 178.766 160.633 179.078 160.465 179.383L159.922 180.277C159.551 180.829 159.185 181.388 158.824 181.953C158.532 182.411 158.192 182.83 157.809 183.211L157.41 183.582C156.992 183.94 156.539 184.239 156.051 184.477L155.551 184.691C154.887 184.948 154.214 185.121 153.531 185.203C152.85 185.285 152.166 185.282 151.484 185.195C150.836 185.113 150.173 185.013 149.496 184.895C148.939 184.797 148.416 184.613 147.93 184.348L147.457 184.055C147.164 183.851 146.884 183.634 146.617 183.402L145.859 182.668C145.417 182.19 144.95 181.74 144.457 181.32C144.189 181.092 143.933 180.852 143.691 180.598L143.008 179.793C142.577 179.23 142.212 178.624 141.918 177.977C141.691 177.476 141.535 176.957 141.453 176.422L141.395 175.879L141.312 173.879C141.295 173.13 141.479 172.424 141.859 171.773L142.844 170.051L143.281 169.195C143.415 168.905 143.536 168.607 143.648 168.305C143.886 167.666 144.143 167.04 144.414 166.43C144.669 165.856 144.875 165.262 145.031 164.648C145.188 164.03 145.298 163.4 145.367 162.762L145.438 161.805L145.434 160.848C145.408 160.203 145.352 159.566 145.262 158.938C145.217 158.626 145.16 158.313 145.094 158.004L144.863 157.078C144.741 156.651 144.561 156.254 144.32 155.887L144.059 155.527C143.652 155.022 143.221 154.529 142.766 154.055C142.444 153.72 142.091 153.43 141.703 153.184L141.301 152.953C140.715 152.644 140.123 152.355 139.523 152.086C138.919 151.814 138.31 151.553 137.695 151.301C137.094 151.054 136.478 150.843 135.852 150.672C135.221 150.5 134.584 150.358 133.941 150.246C133.306 150.135 132.663 150.069 132.016 150.051C131.334 150.031 130.656 149.993 129.984 149.93C129.305 149.866 128.626 149.762 127.949 149.617C127.312 149.481 126.668 149.382 126.02 149.328ZM117.719 150.512C117.66 150.452 117.595 150.423 117.547 150.406C117.604 150.431 117.666 150.459 117.719 150.512Z" fill="#FFFBFA"/>
</g>
<path id="Vector_6" d="M87.2096 150.489C89.1666 152.171 88.8079 152.854 89.9151 153.293C92.1528 154.175 95.5912 152.171 96.2306 152.701C96.7218 153.104 95.3105 154.736 93.0728 155.506C91.0768 156.189 88.2855 156.23 86.079 155.21C82.968 153.772 83.3033 151.274 83.3735 150.784C83.4125 150.489 83.5918 149.173 84.504 149.015C85.3305 148.872 86.3675 149.765 87.2096 150.489Z" fill="#FDA29B" stroke="#FDA29B" stroke-miterlimit="10"/>
<path id="Vector_7" d="M106.21 192.489C108.167 194.171 107.808 194.854 108.915 195.293C111.153 196.175 114.591 194.171 115.231 194.701C115.722 195.104 114.311 196.736 112.073 197.506C110.077 198.189 107.286 198.23 105.079 197.21C101.968 195.772 102.303 193.274 102.373 192.784C102.412 192.489 101.461 188.158 102.373 188C103.2 187.857 105.367 191.765 106.21 192.489Z" fill="#FDA29B" stroke="#FDA29B" stroke-miterlimit="10"/>
<path id="Vector_8" d="M208.157 194.679C210.669 194.084 211.011 194.776 212.016 194.137C214.045 192.845 214.443 188.885 215.248 188.679C215.862 188.518 216.353 190.619 215.662 192.882C215.042 194.899 213.435 197.181 211.314 198.368C208.323 200.041 206.498 198.302 206.143 197.957C205.927 197.752 201.863 195.978 202.271 195.147C202.641 194.394 207.077 194.936 208.157 194.679Z" fill="#FDA29B" stroke="#FDA29B" stroke-miterlimit="10"/>
<path id="Vector_9" d="M211.876 278.457C213.14 278.838 213.114 279.231 213.722 279.207C214.95 279.155 216.142 277.506 216.551 277.622C216.864 277.708 216.542 278.763 215.656 279.586C214.865 280.319 213.569 280.917 212.326 280.898C210.575 280.871 210.214 279.634 210.145 279.39C210.102 279.244 208.76 277.417 209.153 277.154C209.51 276.916 211.333 278.293 211.876 278.457Z" fill="#FDA29B" stroke="#FDA29B" stroke-miterlimit="10"/>
<path id="Vector_10" d="M91.3188 243.779C92.6085 245.758 92.798 246.673 93.3072 247.131C94.3344 248.051 94.47 245.137 94.8831 245.759C95.1984 246.23 95.4903 248.469 95.1726 249.677C94.8877 250.751 94.0964 251.073 93.0191 249.972C91.5001 248.419 90.5242 245.168 90.3343 244.53C90.2185 244.145 89.7055 242.433 89.9019 242.141C90.0801 241.877 90.7638 242.927 91.3188 243.779Z" fill="#FDA29B" stroke="#FDA29B" stroke-miterlimit="10"/>
<path id="Vector_11" d="M200.375 226.094C202.875 228.023 202.905 229.134 204.066 229.467C206.411 230.133 208.36 226.195 209.167 226.796C209.785 227.251 209.383 230.063 207.852 231.837C206.484 233.414 204.121 234.269 201.735 233.391C198.37 232.152 197.427 228.366 197.245 227.623C197.133 227.175 196.639 225.181 197.34 224.688C197.975 224.242 199.3 225.265 200.375 226.094Z" fill="#FDA29B" stroke="#FDA29B" stroke-miterlimit="10"/>
</g>
</g>
</svg>
