<svg width="320" height="384" viewBox="0 0 320 384" fill="none" xmlns="http://www.w3.org/2000/svg">
<g id="embarrassmeent">
<rect width="320" height="384" rx="8" fill="#F5FBFF"/>
<path id="embarrassment" d="M44.848 44.592C44.848 45.04 44.7947 45.5307 44.688 46.064H32.304C32.368 47.408 32.7093 48.3787 33.328 48.976C33.9467 49.552 34.736 49.84 35.696 49.84C36.5067 49.84 37.1787 49.6373 37.712 49.232C38.2453 48.8267 38.5973 48.304 38.768 47.664H44.56C44.3253 48.9227 43.8133 50.0533 43.024 51.056C42.2347 52.0373 41.232 52.816 40.016 53.392C38.8 53.9467 37.4453 54.224 35.952 54.224C34.2027 54.224 32.6453 53.8613 31.28 53.136C29.936 52.3893 28.88 51.3227 28.112 49.936C27.344 48.5493 26.96 46.928 26.96 45.072C26.96 43.1947 27.3333 41.5733 28.08 40.208C28.848 38.8213 29.9147 37.7653 31.28 37.04C32.6453 36.2933 34.2027 35.92 35.952 35.92C37.7227 35.92 39.28 36.2827 40.624 37.008C41.968 37.7333 43.0027 38.7573 43.728 40.08C44.4747 41.3813 44.848 42.8853 44.848 44.592ZM39.312 43.76C39.3333 42.5867 39.0133 41.712 38.352 41.136C37.712 40.5387 36.912 40.24 35.952 40.24C34.9493 40.24 34.1173 40.5387 33.456 41.136C32.7947 41.7333 32.4213 42.608 32.336 43.76H39.312ZM70.8365 35.952C73.0338 35.952 74.7618 36.6347 76.0205 38C77.2792 39.344 77.9085 41.2213 77.9085 43.632V54H72.4685V44.272C72.4685 43.1413 72.1592 42.2667 71.5405 41.648C70.9432 41.008 70.1218 40.688 69.0765 40.688C67.9885 40.688 67.1245 41.0293 66.4845 41.712C65.8658 42.3733 65.5565 43.312 65.5565 44.528V54H60.0845V44.272C60.0845 43.1413 59.7858 42.2667 59.1885 41.648C58.5912 41.008 57.7698 40.688 56.7245 40.688C55.6365 40.688 54.7725 41.0187 54.1325 41.68C53.4925 42.3413 53.1725 43.2907 53.1725 44.528V54H47.7005V36.144H53.1725V39.184C53.6418 38.1813 54.3565 37.392 55.3165 36.816C56.2978 36.24 57.4392 35.952 58.7405 35.952C60.1058 35.952 61.3112 36.272 62.3565 36.912C63.4018 37.5307 64.1912 38.4267 64.7245 39.6C65.3432 38.4907 66.1858 37.6053 67.2525 36.944C68.3405 36.2827 69.5352 35.952 70.8365 35.952ZM92.6802 35.92C94.1522 35.92 95.4642 36.2933 96.6162 37.04C97.7896 37.7653 98.7069 38.8213 99.3682 40.208C100.051 41.5733 100.392 43.1947 100.392 45.072C100.392 46.928 100.051 48.5493 99.3682 49.936C98.7069 51.3227 97.7896 52.3893 96.6162 53.136C95.4642 53.8613 94.1522 54.224 92.6802 54.224C91.3149 54.224 90.1416 53.9147 89.1602 53.296C88.1789 52.6773 87.4642 51.8347 87.0162 50.768V54H81.5442V30.32H87.0162V39.376C87.4642 38.3093 88.1789 37.4667 89.1602 36.848C90.1416 36.2293 91.3149 35.92 92.6802 35.92ZM90.9202 40.72C89.7682 40.72 88.8189 41.1147 88.0722 41.904C87.3469 42.672 86.9842 43.728 86.9842 45.072C86.9842 46.3947 87.3469 47.4507 88.0722 48.24C88.8189 49.0293 89.7682 49.424 90.9202 49.424C92.0936 49.424 93.0322 49.04 93.7362 48.272C94.4616 47.504 94.8242 46.4373 94.8242 45.072C94.8242 43.7067 94.4616 42.64 93.7362 41.872C93.0322 41.104 92.0936 40.72 90.9202 40.72ZM110.016 35.92C111.381 35.92 112.554 36.2293 113.536 36.848C114.517 37.4667 115.242 38.3093 115.712 39.376V36.144H121.152V54H115.712V50.768C115.242 51.8347 114.517 52.6773 113.536 53.296C112.554 53.9147 111.381 54.224 110.016 54.224C108.544 54.224 107.221 53.8613 106.048 53.136C104.896 52.3893 103.978 51.3227 103.296 49.936C102.634 48.5493 102.304 46.928 102.304 45.072C102.304 43.1947 102.634 41.5733 103.296 40.208C103.978 38.8213 104.896 37.7653 106.048 37.04C107.221 36.2933 108.544 35.92 110.016 35.92ZM111.776 40.72C110.602 40.72 109.653 41.104 108.928 41.872C108.224 42.64 107.872 43.7067 107.872 45.072C107.872 46.4373 108.224 47.504 108.928 48.272C109.653 49.04 110.602 49.424 111.776 49.424C112.928 49.424 113.866 49.0293 114.592 48.24C115.338 47.4507 115.712 46.3947 115.712 45.072C115.712 43.728 115.338 42.672 114.592 41.904C113.866 41.1147 112.928 40.72 111.776 40.72ZM130.391 39.504C131.074 38.416 131.949 37.552 133.015 36.912C134.103 36.272 135.277 35.952 136.535 35.952V41.808H134.967C133.517 41.808 132.386 42.1173 131.575 42.736C130.786 43.3547 130.391 44.4 130.391 45.872V54H124.919V36.144H130.391V39.504ZM144.297 39.504C144.98 38.416 145.855 37.552 146.921 36.912C148.009 36.272 149.183 35.952 150.441 35.952V41.808H148.873C147.423 41.808 146.292 42.1173 145.481 42.736C144.692 43.3547 144.297 44.4 144.297 45.872V54H138.825V36.144H144.297V39.504ZM159.516 35.92C160.881 35.92 162.054 36.2293 163.036 36.848C164.017 37.4667 164.742 38.3093 165.212 39.376V36.144H170.652V54H165.212V50.768C164.742 51.8347 164.017 52.6773 163.036 53.296C162.054 53.9147 160.881 54.224 159.516 54.224C158.044 54.224 156.721 53.8613 155.548 53.136C154.396 52.3893 153.478 51.3227 152.796 49.936C152.134 48.5493 151.804 46.928 151.804 45.072C151.804 43.1947 152.134 41.5733 152.796 40.208C153.478 38.8213 154.396 37.7653 155.548 37.04C156.721 36.2933 158.044 35.92 159.516 35.92ZM161.276 40.72C160.102 40.72 159.153 41.104 158.428 41.872C157.724 42.64 157.372 43.7067 157.372 45.072C157.372 46.4373 157.724 47.504 158.428 48.272C159.153 49.04 160.102 49.424 161.276 49.424C162.428 49.424 163.366 49.0293 164.092 48.24C164.838 47.4507 165.212 46.3947 165.212 45.072C165.212 43.728 164.838 42.672 164.092 41.904C163.366 41.1147 162.428 40.72 161.276 40.72ZM180.915 35.92C183.177 35.92 184.979 36.4853 186.323 37.616C187.689 38.7467 188.542 40.24 188.883 42.096H183.763C183.614 41.3707 183.273 40.8053 182.739 40.4C182.227 39.9733 181.577 39.76 180.787 39.76C180.169 39.76 179.699 39.8987 179.379 40.176C179.059 40.432 178.899 40.8053 178.899 41.296C178.899 41.8507 179.187 42.2667 179.763 42.544C180.361 42.8213 181.289 43.0987 182.547 43.376C183.913 43.696 185.033 44.0267 185.907 44.368C186.782 44.688 187.539 45.2213 188.179 45.968C188.819 46.7147 189.139 47.7173 189.139 48.976C189.139 50 188.862 50.9067 188.307 51.696C187.753 52.4853 186.953 53.104 185.907 53.552C184.862 54 183.625 54.224 182.195 54.224C179.785 54.224 177.854 53.6907 176.403 52.624C174.953 51.5573 174.067 50.032 173.747 48.048H179.027C179.113 48.816 179.433 49.4027 179.987 49.808C180.563 50.2133 181.299 50.416 182.195 50.416C182.814 50.416 183.283 50.2773 183.603 50C183.923 49.7013 184.083 49.3173 184.083 48.848C184.083 48.2293 183.785 47.792 183.187 47.536C182.611 47.2587 181.662 46.9707 180.339 46.672C179.017 46.3947 177.929 46.096 177.075 45.776C176.222 45.456 175.486 44.944 174.867 44.24C174.249 43.5147 173.939 42.5333 173.939 41.296C173.939 39.696 174.547 38.4053 175.763 37.424C176.979 36.4213 178.697 35.92 180.915 35.92ZM198.665 35.92C200.927 35.92 202.729 36.4853 204.073 37.616C205.439 38.7467 206.292 40.24 206.633 42.096H201.513C201.364 41.3707 201.023 40.8053 200.489 40.4C199.977 39.9733 199.327 39.76 198.537 39.76C197.919 39.76 197.449 39.8987 197.129 40.176C196.809 40.432 196.649 40.8053 196.649 41.296C196.649 41.8507 196.937 42.2667 197.513 42.544C198.111 42.8213 199.039 43.0987 200.297 43.376C201.663 43.696 202.783 44.0267 203.657 44.368C204.532 44.688 205.289 45.2213 205.929 45.968C206.569 46.7147 206.889 47.7173 206.889 48.976C206.889 50 206.612 50.9067 206.057 51.696C205.503 52.4853 204.703 53.104 203.657 53.552C202.612 54 201.375 54.224 199.945 54.224C197.535 54.224 195.604 53.6907 194.153 52.624C192.703 51.5573 191.817 50.032 191.497 48.048H196.777C196.863 48.816 197.183 49.4027 197.737 49.808C198.313 50.2133 199.049 50.416 199.945 50.416C200.564 50.416 201.033 50.2773 201.353 50C201.673 49.7013 201.833 49.3173 201.833 48.848C201.833 48.2293 201.535 47.792 200.937 47.536C200.361 47.2587 199.412 46.9707 198.089 46.672C196.767 46.3947 195.679 46.096 194.825 45.776C193.972 45.456 193.236 44.944 192.617 44.24C191.999 43.5147 191.689 42.5333 191.689 41.296C191.689 39.696 192.297 38.4053 193.513 37.424C194.729 36.4213 196.447 35.92 198.665 35.92ZM233.055 35.952C235.253 35.952 236.981 36.6347 238.239 38C239.498 39.344 240.127 41.2213 240.127 43.632V54H234.687V44.272C234.687 43.1413 234.378 42.2667 233.759 41.648C233.162 41.008 232.341 40.688 231.295 40.688C230.207 40.688 229.343 41.0293 228.703 41.712C228.085 42.3733 227.775 43.312 227.775 44.528V54H222.303V44.272C222.303 43.1413 222.005 42.2667 221.407 41.648C220.81 41.008 219.989 40.688 218.943 40.688C217.855 40.688 216.991 41.0187 216.351 41.68C215.711 42.3413 215.391 43.2907 215.391 44.528V54H209.919V36.144H215.391V39.184C215.861 38.1813 216.575 37.392 217.535 36.816C218.517 36.24 219.658 35.952 220.959 35.952C222.325 35.952 223.53 36.272 224.575 36.912C225.621 37.5307 226.41 38.4267 226.943 39.6C227.562 38.4907 228.405 37.6053 229.471 36.944C230.559 36.2827 231.754 35.952 233.055 35.952ZM260.723 44.592C260.723 45.04 260.67 45.5307 260.563 46.064H248.179C248.243 47.408 248.584 48.3787 249.203 48.976C249.822 49.552 250.611 49.84 251.571 49.84C252.382 49.84 253.054 49.6373 253.587 49.232C254.12 48.8267 254.472 48.304 254.643 47.664H260.435C260.2 48.9227 259.688 50.0533 258.899 51.056C258.11 52.0373 257.107 52.816 255.891 53.392C254.675 53.9467 253.32 54.224 251.827 54.224C250.078 54.224 248.52 53.8613 247.155 53.136C245.811 52.3893 244.755 51.3227 243.987 49.936C243.219 48.5493 242.835 46.928 242.835 45.072C242.835 43.1947 243.208 41.5733 243.955 40.208C244.723 38.8213 245.79 37.7653 247.155 37.04C248.52 36.2933 250.078 35.92 251.827 35.92C253.598 35.92 255.155 36.2827 256.499 37.008C257.843 37.7333 258.878 38.7573 259.603 40.08C260.35 41.3813 260.723 42.8853 260.723 44.592ZM255.187 43.76C255.208 42.5867 254.888 41.712 254.227 41.136C253.587 40.5387 252.787 40.24 251.827 40.24C250.824 40.24 249.992 40.5387 249.331 41.136C248.67 41.7333 248.296 42.608 248.211 43.76H255.187ZM274.903 35.952C276.951 35.952 278.573 36.6347 279.767 38C280.983 39.3653 281.591 41.2427 281.591 43.632V54H276.119V44.272C276.119 43.0773 275.799 42.1493 275.159 41.488C274.541 40.8053 273.709 40.464 272.663 40.464C271.554 40.464 270.669 40.816 270.007 41.52C269.367 42.224 269.047 43.2267 269.047 44.528V54H263.575V36.144H269.047V39.408C269.559 38.3413 270.317 37.4987 271.319 36.88C272.343 36.2613 273.538 35.952 274.903 35.952ZM295.312 49.296V54H292.848C290.758 54 289.126 53.488 287.952 52.464C286.8 51.4187 286.224 49.7013 286.224 47.312V40.752H283.824V36.144H286.224V31.76H291.696V36.144H295.28V40.752H291.696V47.408C291.696 48.112 291.835 48.6027 292.112 48.88C292.411 49.1573 292.902 49.296 293.584 49.296H295.312Z" fill="#0086C9"/>
<path id="Rectangle 89" d="M45 209.5V209.5C71.2335 183.266 113.766 183.266 140 209.5V209.5V209.5C113.766 235.734 71.2335 235.734 45 209.5V209.5Z" fill="#F5FBFF"/>
<path id="Rectangle 90" d="M185 209.5V209.5C211.234 183.266 253.766 183.266 280 209.5V209.5V209.5C253.766 235.734 211.234 235.734 185 209.5V209.5Z" fill="#F5FBFF"/>
<g id="Group 14">
<path id="Vector" d="M210.206 277.376L199.061 274.788C189.299 272.508 179.205 277.043 174.414 285.856L168.931 295.925L160.963 287.727C153.968 280.527 143.054 278.887 134.266 283.704L124.223 289.213L121.943 277.991C119.944 268.178 111.643 260.876 101.651 260.184L90.2243 259.39L94.3749 248.732C98.013 239.381 94.9641 228.774 86.9449 222.778L77.7727 215.938L87.0474 209.199C95.1691 203.307 98.3461 192.725 94.8104 183.348L90.788 172.613L102.215 171.947C112.232 171.383 120.61 164.184 122.737 154.397L125.145 143.201L135.112 148.837C143.848 153.756 154.788 152.27 161.86 145.174L169.956 137.077L175.31 147.198C179.999 156.062 190.017 160.725 199.804 158.573L211 156.114L210.026 167.515C209.181 177.507 215.074 186.833 224.476 190.317L235.211 194.314L228.217 203.384C222.094 211.326 222.017 222.368 228.038 230.388L234.904 239.534L224.118 243.377C214.664 246.759 208.643 256.008 209.36 266L210.206 277.376Z" fill="#0086C9"/>
<path id="Rectangle 89_2" d="M55 218.082L57.1285 215.953C78.239 194.843 112.466 194.843 133.576 215.953V215.953C134.752 217.129 134.752 219.035 133.576 220.21V220.21C112.466 241.321 78.239 241.321 57.1285 220.21L55 218.082Z" fill="#F5FBFF"/>
<path id="Rectangle 90_2" d="M186.425 220.21C185.25 219.035 185.25 217.129 186.425 215.953V215.953C207.536 194.843 241.763 194.843 262.873 215.953L263.45 216.53C264.307 217.387 264.307 218.777 263.45 219.634L262.873 220.21C241.763 241.321 207.536 241.321 186.425 220.21V220.21Z" fill="#F5FBFF"/>
<path id="Vector_2" d="M209.817 277.035L198.672 274.447C188.911 272.167 178.816 276.702 174.025 285.515L168.542 295.584L160.574 287.386C153.58 280.186 142.666 278.546 133.878 283.363L123.834 288.872L121.554 277.65C119.556 267.837 111.255 260.535 101.263 259.843L89.8359 259.049L93.9864 248.391C97.6246 239.039 94.5757 228.433 86.5565 222.437L77.3843 215.597L86.6589 208.858C94.7807 202.966 97.9576 192.384 94.422 183.007L90.3995 172.272L101.826 171.606C111.844 171.042 120.222 163.843 122.348 154.056L124.757 142.86L134.723 148.496C143.46 153.415 154.4 151.929 161.471 144.832L169.567 136.736L174.922 146.856C179.611 155.721 189.628 160.384 199.415 158.232L210.611 155.772L209.638 167.174C208.792 177.166 214.685 186.492 224.088 189.976L234.823 193.973L227.829 203.042C221.705 210.985 221.628 222.027 227.649 230.047L234.516 239.193L223.729 243.036C214.275 246.418 208.254 255.667 208.972 265.659L209.817 277.035Z" stroke="#0086C9" stroke-width="2" stroke-miterlimit="16"/>
</g>
</g>
</svg>
