<svg width="320" height="384" viewBox="0 0 320 384" fill="none" xmlns="http://www.w3.org/2000/svg">
  <g id="embarrassmeent">
    <rect width="320" height="384" fill="#F5FBFF" rx="8"/>
    <path id="embarrassment" fill="#0086C9" d="M45 45v1H32l1 3 3 1 2-1 1-1h6a8 8 0 0 1-5 5l-4 1-5-1-3-3-1-5 1-5 3-3 5-1 5 1 3 3 1 5Zm-6-1-1-3-2-1-3 1-1 3h7Zm32-8 5 2 2 6v10h-6V42l-3-1-3 1v12h-6V44l-1-2-2-1-3 1-1 3v9h-5V36h5v3l2-2 4-1 3 1 3 3c0-2 1-2 2-3l4-1Zm22 0 4 1 2 3 1 5-1 5-2 3-4 1-4-1-2-2v3h-5V30h5v9l2-2 4-1Zm-2 5-3 1-1 3 1 3 3 1 3-1 1-3-1-3-3-1Zm19-5 4 1 2 2v-3h5v18h-5v-3l-2 2-4 1-4-1-3-3-1-5 1-5 3-3 4-1Zm2 5-3 1-1 3 1 3 3 1 3-1 1-3-1-3-3-1Zm18-1 3-3 4-1v6h-2l-3 1c-1 0-2 1-2 3v8h-5V36h5v4Zm14 0 3-3 3-1v6h-1l-4 1-1 3v8h-5V36h5v4Zm16-4 3 1 2 2v-3h6v18h-6v-3l-2 2-3 1-4-1-3-3-1-5 1-5 3-3 4-1Zm1 5-3 1-1 3 1 3 3 1 3-1 1-3-1-3-3-1Zm20-5c2 0 4 0 5 2 2 1 3 2 3 4h-5l-1-2h-4v1l1 2h3l3 1 2 2 1 3-1 3-2 2h-4l-6-1-2-5h5l1 2h4v-1l-1-1-3-1-3-1-2-2-1-3 2-4 5-1Zm18 0c2 0 4 0 5 2l3 4h-5l-2-2h-3v1l1 2h2l4 1 2 2 1 3-1 3-2 2h-4l-6-1-3-5h6l1 2h3l1-1-1-1-3-1-3-1-2-2-1-3c0-1 0-3 2-4l5-1Zm34 0 5 2 2 6v10h-5V44l-1-2-3-1-2 1-1 3v9h-6V44l-1-2-2-1-3 1-1 3v9h-5V36h5v3l3-2 3-1 4 1 2 3 2-3 4-1Zm28 9v1h-13l1 3 3 1 2-1 1-1h5a8 8 0 0 1-4 5l-4 1-5-1-3-3-1-5 1-5 3-3 5-1 4 1 4 3 1 5Zm-6-1-1-3-2-1-3 1-1 3h7Zm20-8 5 2 2 6v10h-6V44l-1-3-2-1-3 2-1 3v9h-5V36h5v3l2-2 4-1Zm20 13v5h-2l-5-2c-1-1-2-2-2-5v-6h-2v-5h2v-4h6v4h3v5h-3v8h3Z"/>
    <path id="Rectangle 89" fill="#F5FBFF" d="M45 210c26-27 69-27 95 0a67 67 0 0 1-95 0Z"/>
    <path id="Rectangle 90" fill="#F5FBFF" d="M185 210c26-27 69-27 95 0a67 67 0 0 1-95 0Z"/>
    <g id="Group 14">
      <path id="Vector" fill="#0086C9" d="m210 277-11-2c-10-2-20 2-25 11l-5 10-8-8c-7-7-18-9-27-4l-10 5-2-11c-2-10-10-17-20-18l-12-1 4-10c4-10 1-20-7-26l-9-7 9-7c8-6 11-16 8-26l-4-10 11-1c10-1 19-8 21-18l2-11 10 6c9 5 20 3 27-4l8-8 5 10c5 9 15 14 25 12l11-3-1 12c-1 10 5 19 14 22l11 4-7 9c-6 8-6 19 0 27l7 10-11 3c-9 4-15 13-15 23l1 11Z"/>
      <path id="Rectangle 89_2" fill="#F5FBFF" d="m55 218 2-2c21-21 55-21 77 0v4a54 54 0 0 1-77 0l-2-2Z"/>
      <path id="Rectangle 90_2" fill="#F5FBFF" d="M186 220v-4c22-21 56-21 77 0v4a54 54 0 0 1-77 0Z"/>
      <path id="Vector_2" stroke="#0086C9" stroke-miterlimit="16" stroke-width="2" d="m210 277-11-3c-10-2-20 3-25 12l-5 10-8-9c-7-7-18-8-27-4l-10 6-2-11c-2-10-11-17-21-18l-11-1 4-11c4-9 1-20-7-26l-10-6 10-7c8-6 11-17 7-26l-4-11h12c10-1 18-8 20-18l3-11 10 5c8 5 19 4 26-3l9-8 5 10c5 9 15 13 24 11l12-2-1 11c-1 10 5 19 14 23l11 4-7 9c-6 8-6 19 0 27l7 9-11 4c-10 3-16 13-15 23l1 11Z"/>
    </g>
  </g>
</svg>