<svg width="320" height="384" viewBox="0 0 320 384" fill="none" xmlns="http://www.w3.org/2000/svg">
<g id="gratitude">
<rect width="320" height="384" rx="16" fill="#12B76A"/>
<path id="gratitude_2" d="M90.672 40.92C92.0373 40.92 93.2107 41.2293 94.192 41.848C95.1733 42.4667 95.8987 43.3093 96.368 44.376V41.144H101.808V58.904C101.808 60.568 101.488 62.0613 100.848 63.384C100.208 64.728 99.2267 65.7947 97.904 66.584C96.5813 67.3733 94.9387 67.768 92.976 67.768C90.288 67.768 88.1333 67.128 86.512 65.848C84.912 64.5893 83.952 62.872 83.632 60.696H89.04C89.2107 61.4213 89.5947 61.9867 90.192 62.392C90.8107 62.7973 91.6107 63 92.592 63C93.7227 63 94.6293 62.6693 95.312 62.008C96.016 61.368 96.368 60.3333 96.368 58.904V55.768C95.8987 56.8347 95.1733 57.6773 94.192 58.296C93.2107 58.9147 92.0373 59.224 90.672 59.224C89.2 59.224 87.8773 58.8613 86.704 58.136C85.552 57.3893 84.6347 56.3227 83.952 54.936C83.2907 53.5493 82.96 51.928 82.96 50.072C82.96 48.1947 83.2907 46.5733 83.952 45.208C84.6347 43.8213 85.552 42.7653 86.704 42.04C87.8773 41.2933 89.2 40.92 90.672 40.92ZM92.432 45.72C91.2587 45.72 90.3093 46.104 89.584 46.872C88.88 47.64 88.528 48.7067 88.528 50.072C88.528 51.4373 88.88 52.504 89.584 53.272C90.3093 54.04 91.2587 54.424 92.432 54.424C93.584 54.424 94.5227 54.0293 95.248 53.24C95.9947 52.4507 96.368 51.3947 96.368 50.072C96.368 48.728 95.9947 47.672 95.248 46.904C94.5227 46.1147 93.584 45.72 92.432 45.72ZM111.047 44.504C111.73 43.416 112.605 42.552 113.671 41.912C114.759 41.272 115.933 40.952 117.191 40.952V46.808H115.623C114.173 46.808 113.042 47.1173 112.231 47.736C111.442 48.3547 111.047 49.4 111.047 50.872V59H105.575V41.144H111.047V44.504ZM126.266 40.92C127.631 40.92 128.804 41.2293 129.786 41.848C130.767 42.4667 131.492 43.3093 131.962 44.376V41.144H137.402V59H131.962V55.768C131.492 56.8347 130.767 57.6773 129.786 58.296C128.804 58.9147 127.631 59.224 126.266 59.224C124.794 59.224 123.471 58.8613 122.298 58.136C121.146 57.3893 120.228 56.3227 119.546 54.936C118.884 53.5493 118.554 51.928 118.554 50.072C118.554 48.1947 118.884 46.5733 119.546 45.208C120.228 43.8213 121.146 42.7653 122.298 42.04C123.471 41.2933 124.794 40.92 126.266 40.92ZM128.026 45.72C126.852 45.72 125.903 46.104 125.178 46.872C124.474 47.64 124.122 48.7067 124.122 50.072C124.122 51.4373 124.474 52.504 125.178 53.272C125.903 54.04 126.852 54.424 128.026 54.424C129.178 54.424 130.116 54.0293 130.842 53.24C131.588 52.4507 131.962 51.3947 131.962 50.072C131.962 48.728 131.588 47.672 130.842 46.904C130.116 46.1147 129.178 45.72 128.026 45.72ZM151.281 54.296V59H148.817C146.727 59 145.095 58.488 143.921 57.464C142.769 56.4187 142.193 54.7013 142.193 52.312V45.752H139.793V41.144H142.193V36.76H147.665V41.144H151.249V45.752H147.665V52.408C147.665 53.112 147.804 53.6027 148.081 53.88C148.38 54.1573 148.871 54.296 149.553 54.296H151.281ZM153.845 36.12C153.845 35.288 154.143 34.6053 154.741 34.072C155.338 33.5173 156.127 33.24 157.109 33.24C158.09 33.24 158.879 33.5173 159.477 34.072C160.074 34.6053 160.373 35.288 160.373 36.12C160.373 36.9307 160.074 37.6133 159.477 38.168C158.879 38.7013 158.09 38.968 157.109 38.968C156.127 38.968 155.338 38.7013 154.741 38.168C154.143 37.6133 153.845 36.9307 153.845 36.12ZM159.829 41.144V59H154.357V41.144H159.829ZM173.719 54.296V59H171.255C169.164 59 167.532 58.488 166.359 57.464C165.207 56.4187 164.631 54.7013 164.631 52.312V45.752H162.231V41.144H164.631V36.76H170.103V41.144H173.687V45.752H170.103V52.408C170.103 53.112 170.241 53.6027 170.519 53.88C170.817 54.1573 171.308 54.296 171.991 54.296H173.719ZM194.554 41.144V59H189.05V55.768C188.538 56.8133 187.77 57.6453 186.746 58.264C185.744 58.8827 184.57 59.192 183.226 59.192C181.178 59.192 179.546 58.5093 178.33 57.144C177.136 55.7787 176.538 53.9013 176.538 51.512V41.144H181.978V50.84C181.978 52.056 182.288 53.0053 182.906 53.688C183.546 54.3493 184.4 54.68 185.466 54.68C186.576 54.68 187.45 54.328 188.09 53.624C188.73 52.92 189.05 51.9173 189.05 50.616V41.144H194.554ZM205.109 40.92C206.475 40.92 207.648 41.2293 208.629 41.848C209.611 42.4667 210.325 43.3093 210.773 44.376V35.32H216.245V59H210.773V55.768C210.325 56.8347 209.611 57.6773 208.629 58.296C207.648 58.9147 206.475 59.224 205.109 59.224C203.637 59.224 202.315 58.8613 201.141 58.136C199.989 57.3893 199.072 56.3227 198.389 54.936C197.728 53.5493 197.397 51.928 197.397 50.072C197.397 48.1947 197.728 46.5733 198.389 45.208C199.072 43.8213 199.989 42.7653 201.141 42.04C202.315 41.2933 203.637 40.92 205.109 40.92ZM206.869 45.72C205.696 45.72 204.747 46.104 204.021 46.872C203.317 47.64 202.965 48.7067 202.965 50.072C202.965 51.4373 203.317 52.504 204.021 53.272C204.747 54.04 205.696 54.424 206.869 54.424C208.021 54.424 208.96 54.0293 209.685 53.24C210.432 52.4507 210.805 51.3947 210.805 50.072C210.805 48.728 210.432 47.672 209.685 46.904C208.96 46.1147 208.021 45.72 206.869 45.72ZM236.973 49.592C236.973 50.04 236.92 50.5307 236.813 51.064H224.429C224.493 52.408 224.834 53.3787 225.453 53.976C226.072 54.552 226.861 54.84 227.821 54.84C228.632 54.84 229.304 54.6373 229.837 54.232C230.37 53.8267 230.722 53.304 230.893 52.664H236.685C236.45 53.9227 235.938 55.0533 235.149 56.056C234.36 57.0373 233.357 57.816 232.141 58.392C230.925 58.9467 229.57 59.224 228.077 59.224C226.328 59.224 224.77 58.8613 223.405 58.136C222.061 57.3893 221.005 56.3227 220.237 54.936C219.469 53.5493 219.085 51.928 219.085 50.072C219.085 48.1947 219.458 46.5733 220.205 45.208C220.973 43.8213 222.04 42.7653 223.405 42.04C224.77 41.2933 226.328 40.92 228.077 40.92C229.848 40.92 231.405 41.2827 232.749 42.008C234.093 42.7333 235.128 43.7573 235.853 45.08C236.6 46.3813 236.973 47.8853 236.973 49.592ZM231.437 48.76C231.458 47.5867 231.138 46.712 230.477 46.136C229.837 45.5387 229.037 45.24 228.077 45.24C227.074 45.24 226.242 45.5387 225.581 46.136C224.92 46.7333 224.546 47.608 224.461 48.76H231.437Z" fill="#F6FEF9"/>
<g id="hearts">
<path id="h5" d="M164.5 140.447C133.423 82.8883 40 97.6188 40 183.46C40 286.426 164.5 322 164.5 322C164.5 322 289 286.426 289 183.46C289 97.6188 195.577 82.8883 164.5 140.447Z" stroke="#F6FEF9" stroke-width="4" stroke-miterlimit="10"/>
<path id="h4" d="M165.039 157.058C139.548 110.151 63 122.143 63 192.119C63 276.025 165 305.018 165 305.018C165 305.018 267 276.025 267 192.119C267 122.143 190.49 110.151 165.039 157.058Z" stroke="#F6FEF9" stroke-width="3" stroke-miterlimit="10"/>
<path id="h3" d="M165 170.158C145.269 133.149 86 142.632 86 197.831C86 264.025 165 286.939 165 286.939C165 286.939 244 264.062 244 197.831C244 142.632 184.731 133.149 165 170.158Z" stroke="#F6FEF9" stroke-width="2.5" stroke-miterlimit="10"/>
<path id="h2" d="M164.5 182.351C150.404 155.232 108 162.171 108 202.605C108 251.141 164.5 267.908 164.5 267.908C164.5 267.908 221 251.141 221 202.605C221 162.133 178.597 155.194 164.5 182.351Z" stroke="#F6FEF9" stroke-width="2" stroke-miterlimit="10"/>
<path id="h1" d="M165 196.599C156.24 180.636 130 184.708 130 208.526C130 237.1 165 246.974 165 246.974C165 246.974 200 237.1 200 208.526C200 184.708 173.721 180.6 165 196.599Z" stroke="#F6FEF9" stroke-width="1.5" stroke-miterlimit="10"/>
</g>
</g>
</svg>
