<svg width="320" height="384" viewBox="0 0 320 384" fill="none" xmlns="http://www.w3.org/2000/svg">
<g id="nervourseness">
<rect width="320" height="384" rx="16" fill="#FEE4E2"/>
<path id="nervousness" d="M67.216 40.952C69.264 40.952 70.8853 41.6347 72.08 43C73.296 44.3653 73.904 46.2427 73.904 48.632V59H68.432V49.272C68.432 48.0773 68.112 47.1493 67.472 46.488C66.8533 45.8053 66.0213 45.464 64.976 45.464C63.8667 45.464 62.9813 45.816 62.32 46.52C61.68 47.224 61.36 48.2267 61.36 49.528V59H55.888V41.144H61.36V44.408C61.872 43.3413 62.6293 42.4987 63.632 41.88C64.656 41.2613 65.8507 40.952 67.216 40.952ZM94.473 49.592C94.473 50.04 94.4197 50.5307 94.313 51.064H81.929C81.993 52.408 82.3343 53.3787 82.953 53.976C83.5717 54.552 84.361 54.84 85.321 54.84C86.1317 54.84 86.8037 54.6373 87.337 54.232C87.8703 53.8267 88.2223 53.304 88.393 52.664H94.185C93.9503 53.9227 93.4383 55.0533 92.649 56.056C91.8597 57.0373 90.857 57.816 89.641 58.392C88.425 58.9467 87.0703 59.224 85.577 59.224C83.8277 59.224 82.2703 58.8613 80.905 58.136C79.561 57.3893 78.505 56.3227 77.737 54.936C76.969 53.5493 76.585 51.928 76.585 50.072C76.585 48.1947 76.9583 46.5733 77.705 45.208C78.473 43.8213 79.5397 42.7653 80.905 42.04C82.2703 41.2933 83.8277 40.92 85.577 40.92C87.3477 40.92 88.905 41.2827 90.249 42.008C91.593 42.7333 92.6277 43.7573 93.353 45.08C94.0997 46.3813 94.473 47.8853 94.473 49.592ZM88.937 48.76C88.9583 47.5867 88.6383 46.712 87.977 46.136C87.337 45.5387 86.537 45.24 85.577 45.24C84.5743 45.24 83.7423 45.5387 83.081 46.136C82.4197 46.7333 82.0463 47.608 81.961 48.76H88.937ZM102.797 44.504C103.48 43.416 104.355 42.552 105.421 41.912C106.509 41.272 107.683 40.952 108.941 40.952V46.808H107.373C105.923 46.808 104.792 47.1173 103.981 47.736C103.192 48.3547 102.797 49.4 102.797 50.872V59H97.3255V41.144H102.797V44.504ZM119.488 53.656L123.36 41.144H129.184L122.848 59H116.064L109.728 41.144H115.552L119.488 53.656ZM139.802 40.92C141.573 40.92 143.152 41.2933 144.538 42.04C145.946 42.7653 147.045 43.8213 147.834 45.208C148.645 46.5947 149.05 48.216 149.05 50.072C149.05 51.928 148.645 53.5493 147.834 54.936C147.045 56.3227 145.946 57.3893 144.538 58.136C143.152 58.8613 141.573 59.224 139.802 59.224C138.032 59.224 136.442 58.8613 135.034 58.136C133.626 57.3893 132.517 56.3227 131.706 54.936C130.917 53.5493 130.522 51.928 130.522 50.072C130.522 48.216 130.917 46.5947 131.706 45.208C132.517 43.8213 133.626 42.7653 135.034 42.04C136.442 41.2933 138.032 40.92 139.802 40.92ZM139.802 45.656C138.757 45.656 137.872 46.04 137.146 46.808C136.442 47.5547 136.09 48.6427 136.09 50.072C136.09 51.5013 136.442 52.5893 137.146 53.336C137.872 54.0827 138.757 54.456 139.802 54.456C140.848 54.456 141.722 54.0827 142.426 53.336C143.13 52.5893 143.482 51.5013 143.482 50.072C143.482 48.6427 143.13 47.5547 142.426 46.808C141.722 46.04 140.848 45.656 139.802 45.656ZM169.648 41.144V59H164.144V55.768C163.632 56.8133 162.864 57.6453 161.84 58.264C160.837 58.8827 159.664 59.192 158.32 59.192C156.272 59.192 154.64 58.5093 153.424 57.144C152.229 55.7787 151.632 53.9013 151.632 51.512V41.144H157.072V50.84C157.072 52.056 157.381 53.0053 158 53.688C158.64 54.3493 159.493 54.68 160.56 54.68C161.669 54.68 162.544 54.328 163.184 53.624C163.824 52.92 164.144 51.9173 164.144 50.616V41.144H169.648ZM179.915 40.92C182.177 40.92 183.979 41.4853 185.323 42.616C186.689 43.7467 187.542 45.24 187.883 47.096H182.763C182.614 46.3707 182.273 45.8053 181.739 45.4C181.227 44.9733 180.577 44.76 179.787 44.76C179.169 44.76 178.699 44.8987 178.379 45.176C178.059 45.432 177.899 45.8053 177.899 46.296C177.899 46.8507 178.187 47.2667 178.763 47.544C179.361 47.8213 180.289 48.0987 181.547 48.376C182.913 48.696 184.033 49.0267 184.907 49.368C185.782 49.688 186.539 50.2213 187.179 50.968C187.819 51.7147 188.139 52.7173 188.139 53.976C188.139 55 187.862 55.9067 187.307 56.696C186.753 57.4853 185.953 58.104 184.907 58.552C183.862 59 182.625 59.224 181.195 59.224C178.785 59.224 176.854 58.6907 175.403 57.624C173.953 56.5573 173.067 55.032 172.747 53.048H178.027C178.113 53.816 178.433 54.4027 178.987 54.808C179.563 55.2133 180.299 55.416 181.195 55.416C181.814 55.416 182.283 55.2773 182.603 55C182.923 54.7013 183.083 54.3173 183.083 53.848C183.083 53.2293 182.785 52.792 182.187 52.536C181.611 52.2587 180.662 51.9707 179.339 51.672C178.017 51.3947 176.929 51.096 176.075 50.776C175.222 50.456 174.486 49.944 173.867 49.24C173.249 48.5147 172.939 47.5333 172.939 46.296C172.939 44.696 173.547 43.4053 174.763 42.424C175.979 41.4213 177.697 40.92 179.915 40.92ZM202.497 40.952C204.545 40.952 206.167 41.6347 207.361 43C208.577 44.3653 209.185 46.2427 209.185 48.632V59H203.713V49.272C203.713 48.0773 203.393 47.1493 202.753 46.488C202.135 45.8053 201.303 45.464 200.257 45.464C199.148 45.464 198.263 45.816 197.601 46.52C196.961 47.224 196.641 48.2267 196.641 49.528V59H191.169V41.144H196.641V44.408C197.153 43.3413 197.911 42.4987 198.913 41.88C199.937 41.2613 201.132 40.952 202.497 40.952ZM229.754 49.592C229.754 50.04 229.701 50.5307 229.594 51.064H217.21C217.274 52.408 217.616 53.3787 218.234 53.976C218.853 54.552 219.642 54.84 220.602 54.84C221.413 54.84 222.085 54.6373 222.618 54.232C223.152 53.8267 223.504 53.304 223.674 52.664H229.466C229.232 53.9227 228.72 55.0533 227.93 56.056C227.141 57.0373 226.138 57.816 224.922 58.392C223.706 58.9467 222.352 59.224 220.858 59.224C219.109 59.224 217.552 58.8613 216.186 58.136C214.842 57.3893 213.786 56.3227 213.018 54.936C212.25 53.5493 211.866 51.928 211.866 50.072C211.866 48.1947 212.24 46.5733 212.986 45.208C213.754 43.8213 214.821 42.7653 216.186 42.04C217.552 41.2933 219.109 40.92 220.858 40.92C222.629 40.92 224.186 41.2827 225.53 42.008C226.874 42.7333 227.909 43.7573 228.634 45.08C229.381 46.3813 229.754 47.8853 229.754 49.592ZM224.218 48.76C224.24 47.5867 223.92 46.712 223.258 46.136C222.618 45.5387 221.818 45.24 220.858 45.24C219.856 45.24 219.024 45.5387 218.362 46.136C217.701 46.7333 217.328 47.608 217.242 48.76H224.218ZM239.103 40.92C241.364 40.92 243.167 41.4853 244.511 42.616C245.876 43.7467 246.729 45.24 247.071 47.096H241.951C241.801 46.3707 241.46 45.8053 240.927 45.4C240.415 44.9733 239.764 44.76 238.975 44.76C238.356 44.76 237.887 44.8987 237.567 45.176C237.247 45.432 237.087 45.8053 237.087 46.296C237.087 46.8507 237.375 47.2667 237.951 47.544C238.548 47.8213 239.476 48.0987 240.735 48.376C242.1 48.696 243.22 49.0267 244.095 49.368C244.969 49.688 245.727 50.2213 246.367 50.968C247.007 51.7147 247.327 52.7173 247.327 53.976C247.327 55 247.049 55.9067 246.495 56.696C245.94 57.4853 245.14 58.104 244.095 58.552C243.049 59 241.812 59.224 240.383 59.224C237.972 59.224 236.041 58.6907 234.591 57.624C233.14 56.5573 232.255 55.032 231.935 53.048H237.215C237.3 53.816 237.62 54.4027 238.175 54.808C238.751 55.2133 239.487 55.416 240.383 55.416C241.001 55.416 241.471 55.2773 241.791 55C242.111 54.7013 242.271 54.3173 242.271 53.848C242.271 53.2293 241.972 52.792 241.375 52.536C240.799 52.2587 239.849 51.9707 238.527 51.672C237.204 51.3947 236.116 51.096 235.263 50.776C234.409 50.456 233.673 49.944 233.055 49.24C232.436 48.5147 232.127 47.5333 232.127 46.296C232.127 44.696 232.735 43.4053 233.951 42.424C235.167 41.4213 236.884 40.92 239.103 40.92ZM256.853 40.92C259.114 40.92 260.917 41.4853 262.261 42.616C263.626 43.7467 264.479 45.24 264.821 47.096H259.701C259.551 46.3707 259.21 45.8053 258.677 45.4C258.165 44.9733 257.514 44.76 256.725 44.76C256.106 44.76 255.637 44.8987 255.317 45.176C254.997 45.432 254.837 45.8053 254.837 46.296C254.837 46.8507 255.125 47.2667 255.701 47.544C256.298 47.8213 257.226 48.0987 258.485 48.376C259.85 48.696 260.97 49.0267 261.845 49.368C262.719 49.688 263.477 50.2213 264.117 50.968C264.757 51.7147 265.077 52.7173 265.077 53.976C265.077 55 264.799 55.9067 264.245 56.696C263.69 57.4853 262.89 58.104 261.845 58.552C260.799 59 259.562 59.224 258.133 59.224C255.722 59.224 253.791 58.6907 252.341 57.624C250.89 56.5573 250.005 55.032 249.685 53.048H254.965C255.05 53.816 255.37 54.4027 255.925 54.808C256.501 55.2133 257.237 55.416 258.133 55.416C258.751 55.416 259.221 55.2773 259.541 55C259.861 54.7013 260.021 54.3173 260.021 53.848C260.021 53.2293 259.722 52.792 259.125 52.536C258.549 52.2587 257.599 51.9707 256.277 51.672C254.954 51.3947 253.866 51.096 253.013 50.776C252.159 50.456 251.423 49.944 250.805 49.24C250.186 48.5147 249.877 47.5333 249.877 46.296C249.877 44.696 250.485 43.4053 251.701 42.424C252.917 41.4213 254.634 40.92 256.853 40.92Z" fill="#D92D20"/>
<path id="ellipse" d="M163.25 122.344L163.891 122.766L165.406 124.125L166.359 124.984L167.203 124.734L168.797 124.25L169.844 124.188C170.179 124.242 170.498 124.371 170.781 124.562C171.02 124.726 171.212 124.923 171.359 125.109L171.688 125.625L172.938 128.047L173.047 128.266L173.391 127.875L175.297 125.625L175.844 125.125C176.105 124.939 176.447 124.764 176.875 124.703C177.448 124.623 177.928 124.753 178.297 124.969L179.078 125.719L181.516 129.344L181.734 129.625L183.797 131.688L184.75 131.609L186.344 131.469L187.047 131.5C187.492 131.582 187.881 131.779 188.203 132.047L188.641 132.484L189.719 133.922L190.578 135.062L191.609 135.312L192.422 135.5L194.516 133.969L196.891 132.219L197.719 131.75C198.06 131.607 198.464 131.505 198.906 131.516L200.625 131.562L202.359 131.594L202.953 131.688C203.513 131.851 203.972 132.224 204.266 132.703C204.423 132.961 204.521 133.229 204.578 133.469L204.672 134.078L204.828 137.141L204.875 138L204.984 137.969L207.25 137.094L208.344 136.859C208.558 136.856 208.784 136.879 209.016 136.938L209.734 137.25L211.062 138.078L212.391 138.922L213 139.453C213.16 139.653 213.273 139.868 213.359 140.078L213.594 141.188L213.688 143.766L213.766 145.656L214.312 145.922L215.5 146.516L217.359 146.531L219.281 146.562L220.016 146.672C220.28 146.753 220.555 146.886 220.812 147.094C221.069 147.301 221.256 147.54 221.391 147.781L221.656 148.484L222.469 152.203L222.484 152.25L223.25 153.594L223.469 153.969L225.25 153.641L227.906 153.141L228.859 153.125C229.291 153.201 229.784 153.416 230.188 153.922C230.546 154.374 230.661 154.851 230.672 155.25L230.562 156.094L229.734 158.922L229.047 161.281L229.5 161.891L230.391 163.062L230.625 163.344L231.625 164.438L232.188 165.047L234.469 165L237.125 164.922L237.672 164.953C238.099 165.012 238.636 165.176 239.078 165.578L239.641 166.375L240.281 167.812L240.922 169.266L241.234 170.391L241.453 172.047L241.672 173.609L242.391 174.844L242.906 175.734L244.688 176.297L246.812 176.953L247.594 177.359C247.877 177.574 248.153 177.877 248.328 178.312C248.494 178.727 248.51 179.121 248.469 179.453L248.25 180.234L247.25 182.391L246.266 184.562C246.231 184.639 246.201 184.693 246.188 184.734L246.172 184.797L245.891 186.531L245.812 186.922L246.906 187.297L249.156 188.078L250.109 188.594C250.271 188.723 250.424 188.879 250.562 189.062L250.922 189.719L251.453 191.172L251.969 192.625L252.203 193.828L252.25 195.422L252.266 196.344L253.438 197.203L255.078 198.422L255.469 198.781C255.603 198.937 255.729 199.129 255.828 199.359C256.037 199.846 256.05 200.359 255.938 200.797C255.841 201.169 255.666 201.472 255.484 201.703L255 202.188L252.531 204.234L252.094 204.578L252.234 204.641L254.875 205.766L255.797 206.328C255.96 206.47 256.112 206.643 256.25 206.844L256.594 207.547L257.031 209.094L257.484 210.625L257.547 211.656C257.495 211.971 257.377 212.247 257.234 212.484L256.391 213.406L254.047 215.125L253.484 215.516L253.656 215.641L255.703 217.094L256.094 217.422C256.251 217.576 256.429 217.768 256.562 218.016C256.714 218.298 256.865 218.736 256.812 219.266C256.785 219.542 256.7 219.787 256.594 220L256.219 220.547L255.75 221.016L256.219 221.531L257.703 223.109L258.281 223.984C258.358 224.158 258.429 224.344 258.469 224.547L258.5 225.203L258.406 226.797L258.312 228.375C258.291 228.729 258.204 229.052 258.078 229.344L257.609 230.109L256.406 231.562L255.609 232.5L255.875 233.453L256.312 235.078L256.5 235.812L257.219 239.156L257.281 239.734C257.282 239.925 257.258 240.113 257.219 240.297L256.75 241.344L255.734 242.734L254.984 243.75L255.156 244.969L255.391 246.672L255.312 247.688C255.212 248.01 255.031 248.304 254.797 248.562C254.599 248.781 254.381 248.942 254.172 249.062L253.609 249.328L251.062 250.172L250.562 250.328L250.844 250.734L252.344 252.891L252.703 253.609C252.809 253.936 252.862 254.34 252.766 254.797C252.656 255.313 252.407 255.687 252.125 255.953L251.312 256.469L249.172 257.312L247.875 257.797V260.125L247.766 260.953L247.422 261.75L246.594 263.062L245.781 264.391C245.595 264.692 245.354 264.931 245.109 265.125L244.359 265.578L242.547 266.344L242.391 266.406L243 267.547L244.359 270.141L244.625 270.891C244.696 271.244 244.708 271.686 244.531 272.156C244.317 272.723 243.947 273.069 243.578 273.281L242.625 273.594L240.188 273.891L238.188 274.125L237.688 274.875L237.156 275.656L237.609 277.625L238.141 279.984L238.172 281.172C238.131 281.403 238.059 281.641 237.938 281.875L237.422 282.547L236.25 283.641L235.062 284.719C234.68 285.072 234.26 285.27 233.859 285.359L232.812 285.406L230.203 285.172L229.484 285.094L229.531 285.484L229.734 287.812L229.703 288.578C229.642 288.881 229.509 289.212 229.266 289.531C228.998 289.881 228.677 290.113 228.359 290.25L227.484 290.438L225.422 290.531L224.531 290.562L224.391 291.281L224.016 293.172C223.936 293.568 223.747 294.047 223.359 294.453C223.159 294.663 222.933 294.82 222.703 294.938L222.016 295.172L220.281 295.5L218.672 295.797L217.609 296.609L216.391 297.547C216.197 297.695 215.994 297.822 215.781 297.922L215.109 298.156L213.516 298.531L213.047 298.641L212.922 300.219L212.734 302.766C212.702 303.189 212.581 303.857 212.125 304.422L211.547 304.938L210.203 305.812L208.875 306.672L208.266 307.047L205.516 308.641C205.311 308.758 205.093 308.849 204.875 308.922L204.203 309.078L200.891 309.516L200.281 309.594L198.672 309.828L197.062 310.047L196.516 310.125L194.969 310.391L193.406 310.656C192.956 310.733 192.544 310.684 192.188 310.578L191.297 310.156L189.234 308.828L188.734 308.5L188.594 308.844L187.672 310.922C187.511 311.284 187.121 311.939 186.297 312.234C185.865 312.389 185.467 312.392 185.125 312.328L184.297 312.016L182.453 310.938L181.219 310.203L180.594 310.531L179.234 311.234L178.266 311.609L176.828 311.969L175.375 312.344L175.344 312.359L173.938 313.156L172.703 313.859L171.391 316.031L170.047 318.203C169.916 318.415 169.657 318.759 169.219 319.016C168.697 319.319 168.061 319.401 167.453 319.203C166.936 319.035 166.596 318.727 166.422 318.531L166 317.922L164.266 314.75L163.984 314.234L162.547 317.016C162.397 317.301 162.134 317.746 161.672 318.078C161.238 318.389 160.671 318.563 160.078 318.5L159.469 318.344L157.922 317.734L156.359 317.109L156.25 317.078L154.703 316.875L153.625 316.719L152.25 317.641L150.578 318.75C150.19 319.008 149.695 319.217 149.125 319.25L148.531 319.219L146.969 318.969L145.391 318.719L144.375 318.438L141.375 317.219C141.156 317.13 140.941 317.03 140.75 316.906L140.219 316.484L137.562 314.047L137.094 313.641L135.812 312.516L135.094 311.891L134.047 312.203L132.312 312.703L131.656 312.906L129.797 313.469L127.953 314.031C127.306 314.229 126.434 314.188 125.734 313.562C125.46 313.317 125.278 313.039 125.156 312.781L124.938 312.125L124.344 309.375L124.125 308.375L123.922 308.469L121.922 309.25C121.546 309.398 120.941 309.552 120.266 309.344C119.902 309.231 119.606 309.041 119.375 308.828L118.859 308.156L117.969 306.469L117.406 305.422L116.531 305.359L114.875 305.234C114.246 305.186 113.643 304.879 113.219 304.359C113.035 304.133 112.914 303.895 112.828 303.672L112.672 303.062L112.297 300.703L112.188 300.062L111.797 300.172L109.672 300.719C109.159 300.85 108.395 300.883 107.703 300.484L107.031 299.922L106.031 298.703L105.516 298.094L104.094 298.281L101.953 298.547C101.691 298.58 101.406 298.595 101.109 298.562L100.203 298.328L98.7031 297.656L97.2031 297C95.9221 296.432 95.7298 295.174 95.75 294.516L95.8281 292.078L95.875 289.719L95.25 288.578L94.4688 287.203L94.0469 286.188L93.5938 284.547L93.5312 284.359L91.9688 284.656L89.1406 285.172C88.8557 285.224 87.9871 285.361 87.2031 284.781C86.2273 284.058 86.2693 282.972 86.3438 282.531L86.7344 280.203L86.8125 279.719H86.2344L83.7969 279.672C83.4006 279.663 82.4112 279.54 81.8281 278.578C81.2957 277.698 81.5628 276.823 81.6719 276.516L82.5469 274.016L82.9062 272.984L82.6875 272.922L80.8125 272.344C80.5697 272.269 80.3192 272.171 80.0781 272.031L79.3906 271.5L78.3125 270.359L77.2188 269.219C76.5844 268.552 76.4258 267.705 76.5156 267L76.7656 265.141L77 263.281L77.0156 262.969L76.9375 261.344L76.9219 261.047L75.2188 260.797L72.4062 260.391C72.1192 260.348 71.1818 260.185 70.6406 259.281C70.0127 258.229 70.4978 257.229 70.6875 256.906L71.9531 254.75L72.9844 252.969L72.7188 252.188L72.3594 251.188L70.9062 250.328L69.1562 249.281C68.7882 249.063 68.3146 248.668 68.0781 248C67.8355 247.314 67.9562 246.684 68.1406 246.25L68.8906 244.469L69.6094 242.781L69.5312 241.453L69.4531 239.938C69.4318 239.573 69.4471 239.211 69.5156 238.859L69.8281 237.297L70.0781 235.984L69.6719 234.812L69.1719 233.406L68.9688 232.734L68.5469 231.297L68.1719 230L67.0156 228.609L65.8125 227.188L65.4219 226.766L62.3281 223.734C62.1251 223.536 61.8624 223.221 61.7188 222.766C61.5621 222.267 61.5822 221.744 61.7656 221.281C62.074 220.505 62.7269 220.126 62.9844 219.984L65.7344 218.469L66.2188 218.188L66.0625 218.094L63.7344 216.453C63.5428 216.318 62.4336 215.519 62.7344 214.109C62.8707 213.476 63.2487 213.069 63.5 212.859C63.752 212.649 64.0138 212.519 64.2031 212.438L67.1562 211.172L68.8438 210.422L68.8281 210.375L68.1875 208.812L67.9219 208.188L67.25 206.547L66.5781 204.891L66.2812 204.141L65.7188 202.438L65.1406 200.734C64.9984 200.313 64.9179 199.851 64.9375 199.375L65.0625 196.156L65.2344 195.094L66.1094 192.062L66.3438 191.484C66.6308 190.972 67.0558 190.621 67.4531 190.391L69.25 189.344L71.0469 188.312L71.1719 188.234L72.375 187.031L73.5469 185.844L74.2188 185.266L75.5625 184.219L75.5781 184.188L74.3906 182.625L72.3594 179.984C72.1636 179.728 71.9557 179.4 71.8125 179.016C71.6686 178.629 71.5439 178.051 71.7344 177.406L72.2031 175.844L72.6562 174.297L73.1562 173.391C73.7782 172.695 74.6943 172.571 75.0781 172.547L78.3594 172.328L78.1875 171.953L77.0312 169.406C76.9112 169.141 76.491 168.104 77.1719 167.094C77.8409 166.105 78.9361 166.104 79.2188 166.109L82.0469 166.156L83.6875 166.172L83.75 165.891L84.0312 164.203V164.031L83.7812 161.828L83.5469 159.641C83.5156 159.353 83.5105 158.908 83.7188 158.438C83.9485 157.918 84.3633 157.541 84.8281 157.328C85.2058 157.156 85.5782 157.118 85.8906 157.125L86.5938 157.219L89.8594 158.016L92.6719 158.703L93.1562 158.25L93.9688 157.469L94.2969 155.984L94.6562 154.234L95.0312 153.297C95.2178 152.996 95.4638 152.711 95.7969 152.484L97.0625 151.625L98 150.969L98.5 149.625L99.0938 147.969L99.5625 147.172C99.7734 146.935 100.043 146.722 100.375 146.578C100.67 146.451 100.96 146.404 101.219 146.391L101.891 146.438L104.141 146.875L104.797 146.984L104.875 146.531L105.219 144.453L105.344 143.641L106.031 139.016L106.188 138.422C106.268 138.204 106.378 137.971 106.547 137.75C106.92 137.264 107.453 136.951 108.031 136.844L109.703 136.531L111.359 136.234L112.469 136.25L113.359 136.547L115.719 137.656L116.922 138.219L117.094 137.953L118.016 136.438L118.625 135.625L120.875 133.125L121.422 132.672C121.63 132.542 121.868 132.44 122.125 132.375C122.371 132.313 122.607 132.289 122.828 132.297L123.438 132.391L125.297 132.875L127.156 133.375L127.859 133.562L129.609 134.047L130.109 134.172L130.531 133.375L131.484 131.453L132.062 130.641C132.326 130.375 132.662 130.13 133.094 129.984L136 129.016L136.75 128.797L139.719 128.109L140.516 128.031L141.266 128.141L142.891 128.562L143.703 128.766L144.484 127.984L145.812 126.625L146.359 126.188C146.577 126.059 146.835 125.964 147.125 125.906C147.422 125.848 147.709 125.85 147.969 125.891L148.672 126.109L150.297 126.891L150.891 127.188L151.594 126.406L153.016 124.828L153.484 124.422C153.847 124.165 154.301 123.959 154.828 123.938L155.656 124.047L157.219 124.531L158.078 124.812L159.141 123.953L160.719 122.688L161.391 122.281C161.659 122.176 161.978 122.115 162.328 122.125C162.68 122.136 162.987 122.222 163.25 122.344ZM248.203 193.969L248.188 193.953L247.688 192.531L247.375 191.688L245.609 191.078L243.344 190.297C243.006 190.179 242.511 189.945 242.125 189.453C241.681 188.886 241.558 188.209 241.656 187.609L242.219 184.141L242.625 182.891L243.625 180.719L243.844 180.203L243.5 180.109L241.375 179.453C240.977 179.329 240.475 179.102 240.062 178.672L239.688 178.172L238.156 175.547V175.531C238.04 175.328 237.946 175.119 237.875 174.906L237.719 174.25L237.5 172.594L237.266 170.922V170.875L236.625 169.438L236.391 168.938L234.562 169L231.906 169.062C231.546 169.072 230.882 169.055 230.266 168.703L229.672 168.219L228.688 167.141L227.688 166.062L227.203 165.484L226.312 164.328L225.422 163.156C224.675 162.178 224.958 161.041 225.078 160.625L225.891 157.797L225.953 157.562L223.328 158.062C222.959 158.132 222.038 158.237 221.266 157.703L220.578 156.953L219.797 155.594L219.016 154.25L218.562 153.062L218.156 151.203L218 150.531H217.312L215.391 150.516C215.161 150.513 214.919 150.489 214.672 150.438L213.922 150.188L212.547 149.516L211.188 148.859C210.583 148.563 210.242 148.102 210.047 147.656L209.797 146.516L209.688 143.922L209.609 141.891L208.922 141.469L208.203 141L206.453 141.703L204.203 142.594C203.743 142.775 202.69 143.002 201.797 142.203C201.445 141.888 201.249 141.515 201.141 141.188L201 140.422L200.844 137.359L200.734 135.562H200.531L199.141 135.516L196.875 137.188L194.5 138.938C194.233 139.133 193.66 139.522 192.922 139.594L192.125 139.531L190.688 139.203L189.25 138.859C188.884 138.772 188.566 138.613 188.297 138.422L187.641 137.781L186.547 136.344L185.922 135.516L185.125 135.594L183.531 135.734C183.1 135.774 182.69 135.719 182.328 135.578L181.375 134.953L178.906 132.453L178.188 131.578L176.984 129.797L176.438 130.453L174.531 132.703C174.334 132.935 173.662 133.685 172.562 133.625C171.956 133.592 171.516 133.33 171.203 133.047L170.625 132.297L169.375 129.875L168.656 128.469L168.344 128.562L166.75 129.047C165.982 129.277 165.28 129.125 164.734 128.812L164.25 128.453L162.734 127.094L162.188 126.625L161.641 127.062L160.062 128.328C159.628 128.677 159.03 128.962 158.344 128.953L157.625 128.844L156.047 128.359L155.391 128.156L154.547 129.094L153.125 130.656C152.861 130.947 152.443 131.286 151.859 131.438C151.549 131.517 151.25 131.535 150.969 131.5L150.203 131.281L148.578 130.5L147.922 130.172L147.344 130.781L146.016 132.141C145.575 132.591 144.953 132.913 144.25 132.938L143.516 132.859L141.891 132.438L140.422 132.047L139.141 132.359L137.641 132.703L137.266 132.797L135.828 133.297L134.859 133.609L134.109 135.156L133.156 137.078C132.982 137.429 132.651 137.898 132.078 138.203C131.771 138.366 131.454 138.446 131.156 138.469L130.312 138.391L128.547 137.906L126.797 137.422L126.125 137.234L124.266 136.75L123.234 136.469L122.719 137.047L121.609 138.297L121.438 138.531L120.5 140.047L119.578 141.562C119.225 142.139 118.619 142.581 117.859 142.672C117.541 142.709 117.25 142.668 117 142.609L116.391 142.406L114.016 141.281L111.766 140.203L110.422 140.469L109.828 140.578L109.641 141.922L109.297 144.234L109.156 145.094L108.469 149.281C108.39 149.753 108.135 150.448 107.422 150.906C107.081 151.124 106.733 151.231 106.422 151.266L105.625 151.234L103.391 150.797L102.391 150.609L102.266 150.969L101.672 152.625C101.574 152.898 101.449 153.173 101.266 153.422L100.562 154.078L99.3125 154.938L98.4688 155.5L98.2031 156.797L97.8438 158.562C97.7886 158.825 97.6972 159.096 97.5625 159.359L97 160.125L95.9375 161.141L94.8594 162.172C94.314 162.692 93.6621 162.808 93.2656 162.828L92.1719 162.703L88.9062 161.906L87.7812 161.625L88 163.594L87.9688 164.875L87.6875 166.562L87.4062 168.234C87.2787 168.979 86.8163 169.577 86.1875 169.906C85.9266 170.042 85.6591 170.115 85.4219 170.156L84.7969 170.203L81.9688 170.156L81.75 170.141L81.8281 170.297L82.9844 172.844L83.2188 173.719C83.2532 174.117 83.1864 174.594 82.8906 175.078C82.5985 175.555 82.2086 175.832 81.8438 175.984L80.9688 176.188L78.1406 176.359L76.1719 176.469L76.0312 176.984L75.7656 177.844L77.5625 180.188L79.5781 182.828L79.9219 183.344C80.0356 183.559 80.133 183.818 80.1875 184.109C80.2469 184.43 80.2586 184.845 80.1094 185.281C80.0316 185.506 79.9248 185.717 79.7969 185.891L79.3594 186.328L76.6719 188.422L76.375 188.688L74.0312 191.031L73.0469 191.766L71.25 192.812L69.8125 193.625L69.5156 194.672L69.0938 196.203L69.0625 196.328L69 197.938L68.9375 199.5L69.5 201.156L70.0781 202.859L70.2656 203.375L70.9531 205.016L71.625 206.672L71.875 207.281L72.5312 208.859L73.1719 210.438L73.3281 211.016C73.3544 211.222 73.366 211.445 73.3281 211.672C73.2528 212.119 73.0516 212.476 72.8438 212.734C72.656 212.967 72.4383 213.147 72.2344 213.281L71.6875 213.578L68.7344 214.844L68.5 214.938L70.6875 216.469L71.3594 217.156C71.6069 217.523 71.8044 218.027 71.7188 218.672C71.6424 219.237 71.3701 219.65 71.0938 219.938L70.4219 220.453L67.6719 221.969L66.7656 222.469L68.2188 223.906L68.875 224.609L70.0781 226.031L71.2812 227.469L71.6875 228.047L71.9844 228.75L72.3906 230.203L72.8125 231.641L72.9375 232.062L73.4375 233.484L73.9531 234.891L74.1094 235.703L74.0625 236.516L73.75 238.062L73.4531 239.625C73.4455 239.664 73.4367 239.688 73.4375 239.703L73.5312 241.219L73.6094 242.719L73.5625 243.547L73.3281 244.25L72.5781 246.031L72.3594 246.531L72.9375 246.891L74.7031 247.922L75.4219 248.516L76 249.453L76.4844 250.859L76.9844 252.266L77.125 253C77.133 253.233 77.1071 253.454 77.0625 253.656L76.6719 254.625L75.4062 256.781H75.3906L75.7969 256.844L78.5938 257.25L79.1719 257.391C79.3919 257.464 79.6296 257.572 79.8594 257.734C80.2674 258.022 80.5937 258.448 80.75 258.969L80.8438 259.516L80.9219 261.141L81.0156 262.766L80.9688 263.781L80.7344 265.641L80.5625 266.922L81.2031 267.594L82.125 268.562L83.8594 269.109L85.7344 269.688L86.625 270.188C86.8993 270.433 87.1296 270.762 87.2656 271.188C87.3773 271.538 87.4026 271.872 87.375 272.156L87.2188 272.844L86.3281 275.359L86.1875 275.703L86.3281 275.719L88.7656 275.781L89.5938 275.922C89.9173 276.037 90.2638 276.247 90.5625 276.594C90.8706 276.953 91.0179 277.337 91.0781 277.688V278.562L90.6875 280.812L91.25 280.719L94.0781 280.203L94.7031 280.156C94.9486 280.159 95.2289 280.184 95.5156 280.281C96.0524 280.464 96.5023 280.834 96.7812 281.328L97 281.859L97.4531 283.484L97.8906 285.125L97.9375 285.234L99.5 287.984L99.8281 288.922L99.8906 289.75L99.8125 292.203L99.7656 293.75L100.328 294L101.578 294.547L103.578 294.312L105.719 294.047L106.281 294.016C106.682 294.041 107.123 294.159 107.531 294.422L108.109 294.938L109.109 296.156L109.5 296.625L110.797 296.297L112.922 295.75L113.812 295.672C114.162 295.708 114.551 295.824 114.922 296.094C115.268 296.346 115.481 296.661 115.625 296.953L115.875 297.719L116.25 300.078L116.438 301.328L116.844 301.375L118.5 301.5L119.203 301.656C119.633 301.816 119.994 302.072 120.266 302.391L120.609 302.906L121.5 304.594L121.719 305.031L122.453 304.75L124.469 303.953L125.484 303.781C125.88 303.801 126.309 303.926 126.719 304.234C127.05 304.484 127.265 304.783 127.406 305.062L127.656 305.766L128.25 308.516L128.484 309.672L128.625 309.641L130.484 309.078L131.203 308.859L132.938 308.359L134.688 307.859L135.312 307.75C135.736 307.729 136.166 307.807 136.562 308L137.125 308.375L138.422 309.5L139.719 310.609L140.25 311.094L141.594 312.312L142.906 313.531L142.922 313.547L144.375 314.125L145.875 314.719L146.031 314.766L147.609 315.016L148.688 315.188L150.047 314.312L151.719 313.188L152.594 312.781C152.927 312.687 153.302 312.65 153.703 312.703L155.234 312.906L156.781 313.109L157.844 313.391L159.391 314.016L159.562 314.078L160.469 312.375L161.906 309.609L162.531 308.812C162.895 308.505 163.487 308.222 164.219 308.312C164.883 308.396 165.323 308.757 165.547 308.984L166.047 309.656L167.781 312.828L168.188 313.578L169.312 311.75L169.812 311.109C170.014 310.89 170.254 310.669 170.547 310.5L171.938 309.703L173.344 308.891L174.391 308.453L175.844 308.094L177.281 307.734L177.391 307.688L180.109 306.281L180.859 306.031C181.098 305.994 181.33 305.988 181.547 306.016L182.656 306.406L184.5 307.484L184.75 307.625L184.938 307.219L185.875 305.141L186.375 304.391C186.627 304.133 186.973 303.898 187.438 303.781C187.879 303.671 188.282 303.707 188.609 303.797L189.359 304.141L191.406 305.469L193.219 306.625L194.297 306.453L195.844 306.188L196.516 306.078L199.734 305.641L200.375 305.547L202.016 305.328L203.594 305.109L204.891 304.375L206.281 303.578L206.688 303.328L208.031 302.453L208.781 301.953L208.938 299.922L209.125 297.359L209.234 296.781C209.293 296.563 209.375 296.325 209.516 296.094C209.835 295.57 210.354 295.17 211 295.016L212.594 294.641L214.047 294.297L215.188 293.438L216.391 292.516L217.078 292.109C217.315 292.008 217.557 291.936 217.797 291.891L219.531 291.562L220.281 291.406L220.469 290.5L220.844 288.609L221.109 287.875C221.246 287.628 221.446 287.396 221.703 287.188C222.204 286.781 222.762 286.644 223.188 286.625L225.234 286.547L225.594 286.516L225.547 285.828L225.328 283.516C225.286 283.046 225.351 282.16 226.109 281.5C226.798 280.902 227.596 280.903 227.969 280.938L230.578 281.188L232.781 281.375L233.531 280.703L234.078 280.188L233.703 278.516L233.172 276.156C233.052 275.627 232.975 274.732 233.531 273.906L234.375 272.641L235.234 271.391L235.719 270.844C236.247 270.411 236.861 270.268 237.266 270.219L239.703 269.922L239.719 269.906L239.453 269.406L238.109 266.828C237.956 266.535 237.684 265.939 237.781 265.219C237.909 264.291 238.547 263.692 239.188 263.422L240.984 262.656L242.547 261.984L243.203 260.969L243.875 259.859V258.438L243.891 256.75L244.047 255.922C244.144 255.659 244.281 255.408 244.469 255.188C244.815 254.781 245.234 254.551 245.562 254.422L247.703 253.578L247.891 253.5L247.562 253.016L246.047 250.859C245.825 250.54 245.361 249.723 245.703 248.719C246.042 247.73 246.894 247.354 247.25 247.234L249.781 246.391L251.234 245.891L251.188 245.516L250.969 243.828C250.869 243.095 251.04 242.371 251.469 241.781L252.5 240.391L253.172 239.438L252.938 238.328L252.578 236.656L252.453 236.125L252.016 234.484L251.578 232.859C251.333 231.945 251.616 231.084 252.125 230.469L253.328 229.016L254.344 227.781L254.422 226.547L254.469 225.516L253.297 224.25L251.812 222.672C251.636 222.483 251.336 222.099 251.188 221.562C250.998 220.87 251.133 220.061 251.719 219.453L251.875 219.281L251.344 218.906L249.312 217.469C248.954 217.214 248.187 216.517 248.297 215.359C248.392 214.371 249.087 213.814 249.344 213.625L251.672 211.906L253.328 210.688L253.188 210.203L252.922 209.266L250.672 208.312L248.031 207.188C247.737 207.061 246.635 206.529 246.562 205.203C246.531 204.597 246.751 204.113 246.938 203.828C247.122 203.547 247.35 203.34 247.516 203.203L249.984 201.156L250.953 200.344L249.422 199.203C249.012 198.898 248.598 198.436 248.406 197.812L248.297 197.125L248.25 195.531L248.203 193.969Z" fill="#D92D20"/>
</g>
</svg>
