<svg width="320" height="384" viewBox="0 0 320 384" fill="none" xmlns="http://www.w3.org/2000/svg">
<g id="optimism">
<g clip-path="url(#clip0_293_11400)">
<rect width="320" height="384" rx="16" fill="#A6F4C5"/>
<path id="optimism_2" d="M90.24 40.92C92.0107 40.92 93.5893 41.2933 94.976 42.04C96.384 42.7653 97.4827 43.8213 98.272 45.208C99.0827 46.5947 99.488 48.216 99.488 50.072C99.488 51.928 99.0827 53.5493 98.272 54.936C97.4827 56.3227 96.384 57.3893 94.976 58.136C93.5893 58.8613 92.0107 59.224 90.24 59.224C88.4693 59.224 86.88 58.8613 85.472 58.136C84.064 57.3893 82.9547 56.3227 82.144 54.936C81.3547 53.5493 80.96 51.928 80.96 50.072C80.96 48.216 81.3547 46.5947 82.144 45.208C82.9547 43.8213 84.064 42.7653 85.472 42.04C86.88 41.2933 88.4693 40.92 90.24 40.92ZM90.24 45.656C89.1947 45.656 88.3093 46.04 87.584 46.808C86.88 47.5547 86.528 48.6427 86.528 50.072C86.528 51.5013 86.88 52.5893 87.584 53.336C88.3093 54.0827 89.1947 54.456 90.24 54.456C91.2853 54.456 92.16 54.0827 92.864 53.336C93.568 52.5893 93.92 51.5013 93.92 50.072C93.92 48.6427 93.568 47.5547 92.864 46.808C92.16 46.04 91.2853 45.656 90.24 45.656ZM113.461 40.92C114.933 40.92 116.245 41.2933 117.397 42.04C118.571 42.7653 119.488 43.8213 120.149 45.208C120.832 46.5733 121.173 48.1947 121.173 50.072C121.173 51.928 120.832 53.5493 120.149 54.936C119.488 56.3227 118.571 57.3893 117.397 58.136C116.245 58.8613 114.933 59.224 113.461 59.224C112.096 59.224 110.923 58.9147 109.941 58.296C108.96 57.6773 108.245 56.8347 107.797 55.768V67.512H102.325V41.144H107.797V44.376C108.245 43.3093 108.96 42.4667 109.941 41.848C110.923 41.2293 112.096 40.92 113.461 40.92ZM111.701 45.72C110.549 45.72 109.6 46.1147 108.853 46.904C108.128 47.672 107.765 48.728 107.765 50.072C107.765 51.3947 108.128 52.4507 108.853 53.24C109.6 54.0293 110.549 54.424 111.701 54.424C112.875 54.424 113.813 54.04 114.517 53.272C115.243 52.504 115.605 51.4373 115.605 50.072C115.605 48.7067 115.243 47.64 114.517 46.872C113.813 46.104 112.875 45.72 111.701 45.72ZM134.125 54.296V59H131.661C129.57 59 127.938 58.488 126.765 57.464C125.613 56.4187 125.037 54.7013 125.037 52.312V45.752H122.637V41.144H125.037V36.76H130.509V41.144H134.093V45.752H130.509V52.408C130.509 53.112 130.648 53.6027 130.925 53.88C131.224 54.1573 131.714 54.296 132.397 54.296H134.125ZM136.688 36.12C136.688 35.288 136.987 34.6053 137.584 34.072C138.182 33.5173 138.971 33.24 139.952 33.24C140.934 33.24 141.723 33.5173 142.32 34.072C142.918 34.6053 143.216 35.288 143.216 36.12C143.216 36.9307 142.918 37.6133 142.32 38.168C141.723 38.7013 140.934 38.968 139.952 38.968C138.971 38.968 138.182 38.7013 137.584 38.168C136.987 37.6133 136.688 36.9307 136.688 36.12ZM142.672 41.144V59H137.2V41.144H142.672ZM169.586 40.952C171.784 40.952 173.512 41.6347 174.77 43C176.029 44.344 176.658 46.2213 176.658 48.632V59H171.218V49.272C171.218 48.1413 170.909 47.2667 170.29 46.648C169.693 46.008 168.872 45.688 167.826 45.688C166.738 45.688 165.874 46.0293 165.234 46.712C164.616 47.3733 164.306 48.312 164.306 49.528V59H158.834V49.272C158.834 48.1413 158.536 47.2667 157.938 46.648C157.341 46.008 156.52 45.688 155.474 45.688C154.386 45.688 153.522 46.0187 152.882 46.68C152.242 47.3413 151.922 48.2907 151.922 49.528V59H146.45V41.144H151.922V44.184C152.392 43.1813 153.106 42.392 154.066 41.816C155.048 41.24 156.189 40.952 157.49 40.952C158.856 40.952 160.061 41.272 161.106 41.912C162.152 42.5307 162.941 43.4267 163.474 44.6C164.093 43.4907 164.936 42.6053 166.002 41.944C167.09 41.2827 168.285 40.952 169.586 40.952ZM179.782 36.12C179.782 35.288 180.081 34.6053 180.678 34.072C181.276 33.5173 182.065 33.24 183.046 33.24C184.028 33.24 184.817 33.5173 185.414 34.072C186.012 34.6053 186.31 35.288 186.31 36.12C186.31 36.9307 186.012 37.6133 185.414 38.168C184.817 38.7013 184.028 38.968 183.046 38.968C182.065 38.968 181.276 38.7013 180.678 38.168C180.081 37.6133 179.782 36.9307 179.782 36.12ZM185.766 41.144V59H180.294V41.144H185.766ZM196.04 40.92C198.302 40.92 200.104 41.4853 201.448 42.616C202.814 43.7467 203.667 45.24 204.008 47.096H198.888C198.739 46.3707 198.398 45.8053 197.864 45.4C197.352 44.9733 196.702 44.76 195.912 44.76C195.294 44.76 194.824 44.8987 194.504 45.176C194.184 45.432 194.024 45.8053 194.024 46.296C194.024 46.8507 194.312 47.2667 194.888 47.544C195.486 47.8213 196.414 48.0987 197.672 48.376C199.038 48.696 200.158 49.0267 201.032 49.368C201.907 49.688 202.664 50.2213 203.304 50.968C203.944 51.7147 204.264 52.7173 204.264 53.976C204.264 55 203.987 55.9067 203.432 56.696C202.878 57.4853 202.078 58.104 201.032 58.552C199.987 59 198.75 59.224 197.32 59.224C194.91 59.224 192.979 58.6907 191.528 57.624C190.078 56.5573 189.192 55.032 188.872 53.048H194.152C194.238 53.816 194.558 54.4027 195.112 54.808C195.688 55.2133 196.424 55.416 197.32 55.416C197.939 55.416 198.408 55.2773 198.728 55C199.048 54.7013 199.208 54.3173 199.208 53.848C199.208 53.2293 198.91 52.792 198.312 52.536C197.736 52.2587 196.787 51.9707 195.464 51.672C194.142 51.3947 193.054 51.096 192.2 50.776C191.347 50.456 190.611 49.944 189.992 49.24C189.374 48.5147 189.064 47.5333 189.064 46.296C189.064 44.696 189.672 43.4053 190.888 42.424C192.104 41.4213 193.822 40.92 196.04 40.92ZM230.43 40.952C232.628 40.952 234.356 41.6347 235.614 43C236.873 44.344 237.502 46.2213 237.502 48.632V59H232.062V49.272C232.062 48.1413 231.753 47.2667 231.134 46.648C230.537 46.008 229.716 45.688 228.67 45.688C227.582 45.688 226.718 46.0293 226.078 46.712C225.46 47.3733 225.15 48.312 225.15 49.528V59H219.678V49.272C219.678 48.1413 219.38 47.2667 218.782 46.648C218.185 46.008 217.364 45.688 216.318 45.688C215.23 45.688 214.366 46.0187 213.726 46.68C213.086 47.3413 212.766 48.2907 212.766 49.528V59H207.294V41.144H212.766V44.184C213.236 43.1813 213.95 42.392 214.91 41.816C215.892 41.24 217.033 40.952 218.334 40.952C219.7 40.952 220.905 41.272 221.95 41.912C222.996 42.5307 223.785 43.4267 224.318 44.6C224.937 43.4907 225.78 42.6053 226.846 41.944C227.934 41.2827 229.129 40.952 230.43 40.952Z" fill="#027A48"/>
<circle id="sun" cx="160.5" cy="375.5" r="63.5" fill="#027A48"/>
<path id="shines_small" d="M124.001 176.5L147.487 296.954M194.302 176.564L175.174 297.787M260.342 200.669L200.906 308.038M314.154 245.907L221.581 326.473M349.249 306.821L234.703 350.867M361.394 376.066L238.691 378.278M349.123 445.288L233.064 405.399M313.917 506.138L218.499 428.961M260.022 551.278L196.755 446.12M193.938 575.262L170.453 454.807M123.637 575.197L142.766 453.975M57.5976 551.093L117.033 443.723M3.78504 505.855L96.3587 425.289M-31.3099 444.94L83.2362 400.895M-43.4543 375.696L79.2481 373.484M-31.1835 306.474L84.8757 346.362M4.02267 245.624L99.4401 322.801M57.9177 200.484L121.185 305.642" stroke="#027A48" stroke-width="2"/>
<path id="shines" d="M163 94V297.929M260.556 111.731L190.809 303.361M346.165 161.758L215.082 317.977M409.5 238.049L232.893 340.013M442.923 331.401L242.093 366.812M442.402 430.554L241.572 395.142M408 523.549L231.393 421.585M343.867 599.17L212.784 442.952M257.737 648.295L187.99 456.665M160 665L160 461.071M62.4438 647.269L132.191 455.639M-23.1649 597.242L107.918 441.023M-86.5003 520.951L90.1071 418.987M-119.923 427.599L80.9073 392.188M-119.402 328.446L81.4283 363.858M-85.0003 235.451L91.6071 337.415M-20.8668 159.83L110.216 316.048M65.2627 110.705L135.01 302.335" stroke="#027A48" stroke-width="3"/>
</g>
</g>
<defs>
<clipPath id="clip0_293_11400">
<rect width="320" height="384" rx="16" fill="white"/>
</clipPath>
</defs>
</svg>
