<svg width="320" height="384" viewBox="0 0 320 384" fill="none" xmlns="http://www.w3.org/2000/svg">
<rect width="320" height="384" fill="white"/>
<g id="pride">
<rect width="320" height="384" rx="16" fill="#FEDF89"/>
<text id="pride_2" fill="#FF9409" xml:space="preserve" style="white-space: pre" font-family="Poppins" font-size="32" font-weight="bold" letter-spacing="0em"><tspan x="117" y="59.2">pride</tspan></text>
<path id="Vector" d="M190.311 202.9C288.945 111.036 163.828 57.1134 164.101 191.652C163.828 57.1134 39.0724 103.115 138.197 201.494C39.1268 103.115 -11.9637 219.898 127.869 224.459C-11.9637 219.844 40.7785 342.807 139.468 250.888C40.833 342.752 164.373 394.616 164.101 260.077C164.373 394.616 286.619 349.268 187.494 250.888C286.564 349.268 338.124 233.237 198.292 228.677C338.124 233.292 289 110.982 190.311 202.9Z" stroke="#FF9409" stroke-width="6" stroke-miterlimit="10"/>
<path id="Ellipse" d="M164 190C183.919 190 200 205.93 200 225.5C200 245.07 183.919 261 164 261C144.081 261 128 245.07 128 225.5C128 205.93 144.081 190 164 190Z" stroke="#FF9409" stroke-width="6"/>
</g>
</svg>
