<svg width="320" height="384" viewBox="0 0 320 384" fill="none" xmlns="http://www.w3.org/2000/svg">
<rect width="320" height="384" fill="#FEDF89"/>
<path d="M130.024 40.92C131.496 40.92 132.808 41.2933 133.96 42.04C135.133 42.7653 136.051 43.8213 136.712 45.208C137.395 46.5733 137.736 48.1947 137.736 50.072C137.736 51.928 137.395 53.5493 136.712 54.936C136.051 56.3227 135.133 57.3893 133.96 58.136C132.808 58.8613 131.496 59.224 130.024 59.224C128.659 59.224 127.485 58.9147 126.504 58.296C125.523 57.6773 124.808 56.8347 124.36 55.768V67.512H118.888V41.144H124.36V44.376C124.808 43.3093 125.523 42.4667 126.504 41.848C127.485 41.2293 128.659 40.92 130.024 40.92ZM128.264 45.72C127.112 45.72 126.163 46.1147 125.416 46.904C124.691 47.672 124.328 48.728 124.328 50.072C124.328 51.3947 124.691 52.4507 125.416 53.24C126.163 54.0293 127.112 54.424 128.264 54.424C129.437 54.424 130.376 54.04 131.08 53.272C131.805 52.504 132.168 51.4373 132.168 50.072C132.168 48.7067 131.805 47.64 131.08 46.872C130.376 46.104 129.437 45.72 128.264 45.72ZM146.047 44.504C146.73 43.416 147.605 42.552 148.671 41.912C149.759 41.272 150.933 40.952 152.191 40.952V46.808H150.623C149.173 46.808 148.042 47.1173 147.231 47.736C146.442 48.3547 146.047 49.4 146.047 50.872V59H140.575V41.144H146.047V44.504ZM153.97 36.12C153.97 35.288 154.268 34.6053 154.866 34.072C155.463 33.5173 156.252 33.24 157.234 33.24C158.215 33.24 159.004 33.5173 159.602 34.072C160.199 34.6053 160.498 35.288 160.498 36.12C160.498 36.9307 160.199 37.6133 159.602 38.168C159.004 38.7013 158.215 38.968 157.234 38.968C156.252 38.968 155.463 38.7013 154.866 38.168C154.268 37.6133 153.97 36.9307 153.97 36.12ZM159.954 41.144V59H154.482V41.144H159.954ZM170.516 40.92C171.881 40.92 173.054 41.2293 174.036 41.848C175.017 42.4667 175.732 43.3093 176.18 44.376V35.32H181.652V59H176.18V55.768C175.732 56.8347 175.017 57.6773 174.036 58.296C173.054 58.9147 171.881 59.224 170.516 59.224C169.044 59.224 167.721 58.8613 166.548 58.136C165.396 57.3893 164.478 56.3227 163.796 54.936C163.134 53.5493 162.804 51.928 162.804 50.072C162.804 48.1947 163.134 46.5733 163.796 45.208C164.478 43.8213 165.396 42.7653 166.548 42.04C167.721 41.2933 169.044 40.92 170.516 40.92ZM172.276 45.72C171.102 45.72 170.153 46.104 169.428 46.872C168.724 47.64 168.372 48.7067 168.372 50.072C168.372 51.4373 168.724 52.504 169.428 53.272C170.153 54.04 171.102 54.424 172.276 54.424C173.428 54.424 174.366 54.0293 175.092 53.24C175.838 52.4507 176.212 51.3947 176.212 50.072C176.212 48.728 175.838 47.672 175.092 46.904C174.366 46.1147 173.428 45.72 172.276 45.72ZM202.379 49.592C202.379 50.04 202.326 50.5307 202.219 51.064H189.835C189.899 52.408 190.241 53.3787 190.859 53.976C191.478 54.552 192.267 54.84 193.227 54.84C194.038 54.84 194.71 54.6373 195.243 54.232C195.777 53.8267 196.129 53.304 196.299 52.664H202.091C201.857 53.9227 201.345 55.0533 200.555 56.056C199.766 57.0373 198.763 57.816 197.547 58.392C196.331 58.9467 194.977 59.224 193.483 59.224C191.734 59.224 190.177 58.8613 188.811 58.136C187.467 57.3893 186.411 56.3227 185.643 54.936C184.875 53.5493 184.491 51.928 184.491 50.072C184.491 48.1947 184.865 46.5733 185.611 45.208C186.379 43.8213 187.446 42.7653 188.811 42.04C190.177 41.2933 191.734 40.92 193.483 40.92C195.254 40.92 196.811 41.2827 198.155 42.008C199.499 42.7333 200.534 43.7573 201.259 45.08C202.006 46.3813 202.379 47.8853 202.379 49.592ZM196.843 48.76C196.865 47.5867 196.545 46.712 195.883 46.136C195.243 45.5387 194.443 45.24 193.483 45.24C192.481 45.24 191.649 45.5387 190.987 46.136C190.326 46.7333 189.953 47.608 189.867 48.76H196.843Z" fill="#FF9409"/>
<path d="M190.311 202.9C288.945 111.036 163.828 57.1134 164.101 191.652C163.828 57.1134 39.0724 103.115 138.197 201.494C39.1268 103.115 -11.9637 219.898 127.869 224.459C-11.9637 219.844 40.7785 342.807 139.468 250.888C40.833 342.752 164.373 394.616 164.101 260.077C164.373 394.616 286.619 349.268 187.494 250.888C286.564 349.268 338.124 233.237 198.292 228.677C338.124 233.292 289 110.982 190.311 202.9Z" stroke="#FF9409" stroke-width="6" stroke-miterlimit="10"/>
<path d="M164 190C183.919 190 200 205.93 200 225.5C200 245.07 183.919 261 164 261C144.081 261 128 245.07 128 225.5C128 205.93 144.081 190 164 190Z" stroke="#FF9409" stroke-width="6"/>
</svg>
