<svg width="320" height="384" viewBox="0 0 320 384" fill="none" xmlns="http://www.w3.org/2000/svg">
<g id="realization">
<rect width="320" height="384" rx="16" fill="#ECFDF3"/>
<path id="realization_2" d="M79.36 44.504C80.0427 43.416 80.9173 42.552 81.984 41.912C83.072 41.272 84.2453 40.952 85.504 40.952V46.808H83.936C82.4853 46.808 81.3547 47.1173 80.544 47.736C79.7547 48.3547 79.36 49.4 79.36 50.872V59H73.888V41.144H79.36V44.504ZM104.754 49.592C104.754 50.04 104.701 50.5307 104.594 51.064H92.2102C92.2742 52.408 92.6156 53.3787 93.2342 53.976C93.8529 54.552 94.6422 54.84 95.6022 54.84C96.4129 54.84 97.0849 54.6373 97.6182 54.232C98.1516 53.8267 98.5036 53.304 98.6742 52.664H104.466C104.232 53.9227 103.72 55.0533 102.93 56.056C102.141 57.0373 101.138 57.816 99.9222 58.392C98.7062 58.9467 97.3516 59.224 95.8582 59.224C94.1089 59.224 92.5516 58.8613 91.1862 58.136C89.8422 57.3893 88.7862 56.3227 88.0182 54.936C87.2502 53.5493 86.8662 51.928 86.8662 50.072C86.8662 48.1947 87.2396 46.5733 87.9862 45.208C88.7542 43.8213 89.8209 42.7653 91.1862 42.04C92.5516 41.2933 94.1089 40.92 95.8582 40.92C97.6289 40.92 99.1862 41.2827 100.53 42.008C101.874 42.7333 102.909 43.7573 103.634 45.08C104.381 46.3813 104.754 47.8853 104.754 49.592ZM99.2182 48.76C99.2396 47.5867 98.9196 46.712 98.2582 46.136C97.6182 45.5387 96.8182 45.24 95.8582 45.24C94.8556 45.24 94.0236 45.5387 93.3622 46.136C92.7009 46.7333 92.3276 47.608 92.2422 48.76H99.2182ZM114.391 40.92C115.756 40.92 116.929 41.2293 117.911 41.848C118.892 42.4667 119.617 43.3093 120.087 44.376V41.144H125.527V59H120.087V55.768C119.617 56.8347 118.892 57.6773 117.911 58.296C116.929 58.9147 115.756 59.224 114.391 59.224C112.919 59.224 111.596 58.8613 110.423 58.136C109.271 57.3893 108.353 56.3227 107.671 54.936C107.009 53.5493 106.679 51.928 106.679 50.072C106.679 48.1947 107.009 46.5733 107.671 45.208C108.353 43.8213 109.271 42.7653 110.423 42.04C111.596 41.2933 112.919 40.92 114.391 40.92ZM116.151 45.72C114.977 45.72 114.028 46.104 113.303 46.872C112.599 47.64 112.247 48.7067 112.247 50.072C112.247 51.4373 112.599 52.504 113.303 53.272C114.028 54.04 114.977 54.424 116.151 54.424C117.303 54.424 118.241 54.0293 118.967 53.24C119.713 52.4507 120.087 51.3947 120.087 50.072C120.087 48.728 119.713 47.672 118.967 46.904C118.241 46.1147 117.303 45.72 116.151 45.72ZM134.766 35.32V59H129.294V35.32H134.766ZM138.032 36.12C138.032 35.288 138.331 34.6053 138.928 34.072C139.526 33.5173 140.315 33.24 141.296 33.24C142.278 33.24 143.067 33.5173 143.664 34.072C144.262 34.6053 144.56 35.288 144.56 36.12C144.56 36.9307 144.262 37.6133 143.664 38.168C143.067 38.7013 142.278 38.968 141.296 38.968C140.315 38.968 139.526 38.7013 138.928 38.168C138.331 37.6133 138.032 36.9307 138.032 36.12ZM144.016 41.144V59H138.544V41.144H144.016ZM152.626 54.424H160.882V59H146.642V54.68L154.322 45.688H146.77V41.144H160.562V45.464L152.626 54.424ZM170.266 40.92C171.631 40.92 172.804 41.2293 173.786 41.848C174.767 42.4667 175.492 43.3093 175.962 44.376V41.144H181.402V59H175.962V55.768C175.492 56.8347 174.767 57.6773 173.786 58.296C172.804 58.9147 171.631 59.224 170.266 59.224C168.794 59.224 167.471 58.8613 166.298 58.136C165.146 57.3893 164.228 56.3227 163.546 54.936C162.884 53.5493 162.554 51.928 162.554 50.072C162.554 48.1947 162.884 46.5733 163.546 45.208C164.228 43.8213 165.146 42.7653 166.298 42.04C167.471 41.2933 168.794 40.92 170.266 40.92ZM172.026 45.72C170.852 45.72 169.903 46.104 169.178 46.872C168.474 47.64 168.122 48.7067 168.122 50.072C168.122 51.4373 168.474 52.504 169.178 53.272C169.903 54.04 170.852 54.424 172.026 54.424C173.178 54.424 174.116 54.0293 174.842 53.24C175.588 52.4507 175.962 51.3947 175.962 50.072C175.962 48.728 175.588 47.672 174.842 46.904C174.116 46.1147 173.178 45.72 172.026 45.72ZM195.281 54.296V59H192.817C190.727 59 189.095 58.488 187.921 57.464C186.769 56.4187 186.193 54.7013 186.193 52.312V45.752H183.793V41.144H186.193V36.76H191.665V41.144H195.249V45.752H191.665V52.408C191.665 53.112 191.804 53.6027 192.081 53.88C192.38 54.1573 192.871 54.296 193.553 54.296H195.281ZM197.845 36.12C197.845 35.288 198.143 34.6053 198.741 34.072C199.338 33.5173 200.127 33.24 201.109 33.24C202.09 33.24 202.879 33.5173 203.477 34.072C204.074 34.6053 204.373 35.288 204.373 36.12C204.373 36.9307 204.074 37.6133 203.477 38.168C202.879 38.7013 202.09 38.968 201.109 38.968C200.127 38.968 199.338 38.7013 198.741 38.168C198.143 37.6133 197.845 36.9307 197.845 36.12ZM203.829 41.144V59H198.357V41.144H203.829ZM215.959 40.92C217.729 40.92 219.308 41.2933 220.695 42.04C222.103 42.7653 223.201 43.8213 223.991 45.208C224.801 46.5947 225.207 48.216 225.207 50.072C225.207 51.928 224.801 53.5493 223.991 54.936C223.201 56.3227 222.103 57.3893 220.695 58.136C219.308 58.8613 217.729 59.224 215.959 59.224C214.188 59.224 212.599 58.8613 211.191 58.136C209.783 57.3893 208.673 56.3227 207.863 54.936C207.073 53.5493 206.679 51.928 206.679 50.072C206.679 48.216 207.073 46.5947 207.863 45.208C208.673 43.8213 209.783 42.7653 211.191 42.04C212.599 41.2933 214.188 40.92 215.959 40.92ZM215.959 45.656C214.913 45.656 214.028 46.04 213.303 46.808C212.599 47.5547 212.247 48.6427 212.247 50.072C212.247 51.5013 212.599 52.5893 213.303 53.336C214.028 54.0827 214.913 54.456 215.959 54.456C217.004 54.456 217.879 54.0827 218.583 53.336C219.287 52.5893 219.639 51.5013 219.639 50.072C219.639 48.6427 219.287 47.5547 218.583 46.808C217.879 46.04 217.004 45.656 215.959 45.656ZM239.372 40.952C241.42 40.952 243.042 41.6347 244.236 43C245.452 44.3653 246.06 46.2427 246.06 48.632V59H240.588V49.272C240.588 48.0773 240.268 47.1493 239.628 46.488C239.01 45.8053 238.178 45.464 237.132 45.464C236.023 45.464 235.138 45.816 234.476 46.52C233.836 47.224 233.516 48.2267 233.516 49.528V59H228.044V41.144H233.516V44.408C234.028 43.3413 234.786 42.4987 235.788 41.88C236.812 41.2613 238.007 40.952 239.372 40.952Z" fill="#027A48"/>
<g id="vector">
<g id="&#38;lt;Radial Repeat&#38;gt;">
<g id="Group">
<path id="Vector" d="M160.494 339.841V228.055" stroke="#027A48" stroke-width="2" stroke-miterlimit="10"/>
<path id="Vector_2" d="M167.001 343C167.001 346.319 164.321 349 161.001 349C157.682 349 155.001 346.319 155.001 343C155.001 339.681 157.682 337 161.001 337C164.321 337 167.001 339.681 167.001 343Z" fill="#027A48"/>
</g>
</g>
<g id="&#38;lt;Radial Repeat&#38;gt;_2">
<g id="Group_2">
<path id="Vector_3" d="M123.673 348.856L160.774 228.094" stroke="#027A48" stroke-width="2" stroke-miterlimit="10"/>
<path id="Vector_4" d="M127.31 349.786C126.702 351.767 124.599 352.888 122.626 352.268C120.653 351.647 119.537 349.546 120.155 347.566C120.773 345.585 122.865 344.464 124.839 345.084C126.812 345.705 127.928 347.806 127.31 349.786Z" fill="#027A48"/>
</g>
</g>
<g id="&#38;lt;Radial Repeat&#38;gt;_3">
<g id="Group_3">
<path id="Vector_5" d="M112.125 306.296L160.668 228.225" stroke="#027A48" stroke-width="2" stroke-miterlimit="10"/>
<path id="Vector_6" d="M115.479 305.687C114.545 307.06 112.677 307.412 111.311 306.478C109.946 305.544 109.586 303.676 110.521 302.311C111.455 300.946 113.323 300.586 114.689 301.52C116.054 302.454 116.414 304.322 115.479 305.687Z" fill="#027A48"/>
</g>
</g>
<g id="&#38;lt;Radial Repeat&#38;gt;_4">
<g id="Group_4">
<path id="Vector_7" d="M62.8123 307.198L161.231 228.405" stroke="#027A48" stroke-width="2" stroke-miterlimit="10"/>
<path id="Vector_8" d="M64.9236 312.802C62.5531 314.69 59.0851 314.309 57.1975 311.924C55.3098 309.539 55.6903 306.086 58.0754 304.198C60.4606 302.31 63.9139 302.691 65.8016 305.076C67.6892 307.461 67.3087 310.914 64.9236 312.802Z" fill="#027A48"/>
</g>
</g>
<g id="&#38;lt;Radial Repeat&#38;gt;_5">
<g id="Group_5">
<path id="Vector_9" d="M44.1997 274.824L161.374 228.655" stroke="#027A48" stroke-width="2" stroke-miterlimit="10"/>
<path id="Vector_10" d="M45.7749 277.756C43.9782 278.463 41.9396 277.58 41.2414 275.775C40.5432 273.97 41.4183 271.951 43.2242 271.244C45.0302 270.537 47.0502 271.42 47.7577 273.225C48.4652 275.03 47.5808 277.049 45.7749 277.756Z" fill="#027A48"/>
</g>
</g>
<g id="&#38;lt;Radial Repeat&#38;gt;_6">
<g id="Group_6">
<path id="Vector_11" d="M61.824 238.369L161.445 228.925" stroke="#027A48" stroke-width="2" stroke-miterlimit="10"/>
<path id="Vector_12" d="M62.8343 242.987C60.3573 243.178 58.1915 241.311 58.012 238.835C57.8325 236.358 59.6872 234.192 62.1642 234.012C64.6412 233.833 66.795 235.687 66.9865 238.164C67.1779 240.641 65.3113 242.807 62.8343 242.987Z" fill="#027A48"/>
</g>
</g>
<g id="&#38;lt;Radial Repeat&#38;gt;_7">
<g id="Group_7">
<path id="Vector_13" d="M78.4148 210.192L161.41 229.205" stroke="#027A48" stroke-width="2" stroke-miterlimit="10"/>
<path id="Vector_14" d="M77.9709 212.696C76.6094 212.384 75.7534 211.018 76.0635 209.651C76.3735 208.284 77.735 207.425 79.0964 207.736C80.4579 208.047 81.3139 209.414 81.0039 210.781C80.6938 212.148 79.3323 213.007 77.9709 212.696Z" fill="#027A48"/>
</g>
</g>
<g id="&#38;lt;Radial Repeat&#38;gt;_8">
<g id="Group_8">
<path id="Vector_15" d="M52.2993 166.288L161.312 229.475" stroke="#027A48" stroke-width="2" stroke-miterlimit="10"/>
<path id="Vector_16" d="M49.5008 170.335C47.1072 168.952 46.2961 165.894 47.6657 163.5C49.0354 161.107 52.1071 160.295 54.5007 161.665C56.8942 163.035 57.7054 166.106 56.3357 168.5C54.9661 170.894 51.8944 171.705 49.5008 170.335Z" fill="#027A48"/>
</g>
</g>
<g id="&#38;lt;Radial Repeat&#38;gt;_9">
<g id="Group_9">
<path id="Vector_17" d="M86.1675 148.576L161.143 229.695" stroke="#027A48" stroke-width="2" stroke-miterlimit="10"/>
<path id="Vector_18" d="M83.0664 150.72C81.5649 149.102 81.6608 146.568 83.2793 145.066C84.8979 143.565 87.4322 143.661 88.9336 145.279C90.4351 146.898 90.3392 149.432 88.7207 150.933C87.1021 152.435 84.5678 152.339 83.0664 150.72Z" fill="#027A48"/>
</g>
</g>
<g id="&#38;lt;Radial Repeat&#38;gt;_10">
<g id="Group_10">
<path id="Vector_19" d="M116.015 136.272L160.9 229.845" stroke="#027A48" stroke-width="2" stroke-miterlimit="10"/>
<path id="Vector_20" d="M113.297 137.3C112.579 135.808 113.209 134.014 114.7 133.296C116.191 132.579 117.986 133.209 118.703 134.7C119.421 136.191 118.791 137.985 117.3 138.703C115.809 139.421 114.014 138.791 113.297 137.3Z" fill="#027A48"/>
</g>
</g>
<g id="&#38;lt;Radial Repeat&#38;gt;_11">
<g id="Group_11">
<path id="Vector_21" d="M141.879 104.972L160.634 229.935" stroke="#027A48" stroke-width="2" stroke-miterlimit="10"/>
<path id="Vector_22" d="M137.056 105.744C136.644 103.02 138.518 100.469 141.255 100.057C143.993 99.6448 146.531 101.518 146.943 104.256C147.355 106.993 145.481 109.531 142.744 109.943C140.006 110.355 137.468 108.482 137.056 105.744Z" fill="#027A48"/>
</g>
</g>
<g id="&#38;lt;Radial Repeat&#38;gt;_12">
<g id="Group_12">
<path id="Vector_23" d="M179.121 104.972L160.356 229.935" stroke="#027A48" stroke-width="2" stroke-miterlimit="10"/>
<path id="Vector_24" d="M175.384 104.602C175.693 102.551 177.606 101.131 179.649 101.441C181.692 101.751 183.107 103.672 182.798 105.723C182.49 107.773 180.576 109.194 178.533 108.884C176.49 108.574 175.075 106.653 175.384 104.602Z" fill="#027A48"/>
</g>
</g>
<g id="&#38;lt;Radial Repeat&#38;gt;_13">
<g id="Group_13">
<path id="Vector_25" d="M195.088 157.845L160.088 229.845" stroke="#027A48" stroke-width="2" stroke-miterlimit="10"/>
<path id="Vector_26" d="M192.335 157.262C192.933 156.02 194.428 155.495 195.671 156.093C196.914 156.691 197.439 158.186 196.84 159.429C196.242 160.671 194.747 161.196 193.504 160.598C192.262 160 191.737 158.505 192.335 157.262Z" fill="#027A48"/>
</g>
</g>
<g id="&#38;lt;Radial Repeat&#38;gt;_14">
<g id="Group_14">
<path id="Vector_27" d="M245.481 137.056L159.858 229.695" stroke="#027A48" stroke-width="2" stroke-miterlimit="10"/>
<path id="Vector_28" d="M242.611 134.635C244.016 133.114 246.388 133.024 247.903 134.435C249.418 135.845 249.507 138.226 248.102 139.747C246.697 141.268 244.325 141.358 242.811 139.947C241.296 138.536 241.206 136.155 242.611 134.635Z" fill="#027A48"/>
</g>
</g>
<g id="&#38;lt;Radial Repeat&#38;gt;_15">
<g id="Group_15">
<path id="Vector_29" d="M268.699 166.288L159.687 229.475" stroke="#027A48" stroke-width="2" stroke-miterlimit="10"/>
<path id="Vector_30" d="M266.003 159.804C268.872 158.147 272.538 159.135 274.195 162.004C275.853 164.872 274.865 168.538 271.996 170.196C269.127 171.853 265.461 170.865 263.803 167.996C262.146 165.128 263.134 161.462 266.003 159.804Z" fill="#027A48"/>
</g>
</g>
<g id="&#38;lt;Radial Repeat&#38;gt;_16">
<g id="Group_16">
<path id="Vector_31" d="M270.251 204.317L161 229.343" stroke="#027A48" stroke-width="2" stroke-miterlimit="10"/>
<path id="Vector_32" d="M269.346 201.084C271.138 200.675 272.93 201.797 273.338 203.605C273.746 205.413 272.628 207.203 270.827 207.612C269.026 208.022 267.243 206.9 266.835 205.092C266.427 203.284 267.545 201.494 269.346 201.084Z" fill="#027A48"/>
</g>
</g>
<g id="&#38;lt;Radial Repeat&#38;gt;_17">
<g id="Group_17">
<path id="Vector_33" d="M257.233 236.737L159.559 229.389" stroke="#027A48" stroke-width="2" stroke-miterlimit="10"/>
<path id="Vector_34" d="M257.302 233.811C258.907 233.935 260.109 235.336 259.992 236.947C259.876 238.559 258.473 239.765 256.868 239.648C255.262 239.532 254.061 238.123 254.177 236.512C254.293 234.9 255.697 233.694 257.302 233.811Z" fill="#027A48"/>
</g>
</g>
<g id="&#38;lt;Radial Repeat&#38;gt;_18">
<g id="Group_18">
<path id="Vector_35" d="M276.801 274.824L159.617 228.655" stroke="#027A48" stroke-width="2" stroke-miterlimit="10"/>
<path id="Vector_36" d="M277.997 271.253C279.92 272.013 280.867 274.194 280.119 276.125C279.372 278.056 277.19 279.006 275.266 278.256C273.343 277.506 272.396 275.315 273.144 273.384C273.891 271.453 276.073 270.503 277.997 271.253Z" fill="#027A48"/>
</g>
</g>
<g id="&#38;lt;Radial Repeat&#38;gt;_19">
<g id="Group_19">
<path id="Vector_37" d="M224.625 277.718L159.77 228.415" stroke="#027A48" stroke-width="2" stroke-miterlimit="10"/>
<path id="Vector_38" d="M227.304 274.977C229.245 276.523 229.568 279.363 228.023 281.304C226.477 283.245 223.637 283.569 221.696 282.023C219.755 280.477 219.432 277.638 220.977 275.696C222.523 273.755 225.363 273.432 227.304 274.977Z" fill="#027A48"/>
</g>
</g>
<g id="&#38;lt;Radial Repeat&#38;gt;_20">
<g id="Group_20">
<path id="Vector_39" d="M230.881 332.629L159.967 228.215" stroke="#027A48" stroke-width="2" stroke-miterlimit="10"/>
<path id="Vector_40" d="M233.871 330.358C235.037 332.079 234.599 334.41 232.884 335.58C231.17 336.751 228.848 336.311 227.682 334.59C226.517 332.869 226.955 330.538 228.669 329.368C230.383 328.197 232.705 328.637 233.871 330.358Z" fill="#027A48"/>
</g>
</g>
<g id="&#38;lt;Radial Repeat&#38;gt;_21">
<g id="Group_21">
<path id="Vector_41" d="M183.666 308.614L160.228 228.094" stroke="#027A48" stroke-width="2" stroke-miterlimit="10"/>
<path id="Vector_42" d="M187.983 308.616C188.193 310.811 186.581 312.772 184.385 312.982C182.19 313.191 180.229 311.58 180.019 309.384C179.81 307.188 181.421 305.228 183.617 305.018C185.813 304.808 187.774 306.42 187.983 308.616Z" fill="#027A48"/>
</g>
</g>
</g>
</g>
</svg>
