<svg width="320" height="384" viewBox="0 0 320 384" fill="none" xmlns="http://www.w3.org/2000/svg">
<g id="relief">
<g clip-path="url(#clip0_293_11228)">
<rect width="320" height="384" rx="16" fill="#6CE9A6"/>
<path id="relief_2" d="M125.36 44.504C126.043 43.416 126.917 42.552 127.984 41.912C129.072 41.272 130.245 40.952 131.504 40.952V46.808H129.936C128.485 46.808 127.355 47.1173 126.544 47.736C125.755 48.3547 125.36 49.4 125.36 50.872V59H119.888V41.144H125.36V44.504ZM150.754 49.592C150.754 50.04 150.701 50.5307 150.594 51.064H138.21C138.274 52.408 138.616 53.3787 139.234 53.976C139.853 54.552 140.642 54.84 141.602 54.84C142.413 54.84 143.085 54.6373 143.618 54.232C144.152 53.8267 144.504 53.304 144.674 52.664H150.466C150.232 53.9227 149.72 55.0533 148.93 56.056C148.141 57.0373 147.138 57.816 145.922 58.392C144.706 58.9467 143.352 59.224 141.858 59.224C140.109 59.224 138.552 58.8613 137.186 58.136C135.842 57.3893 134.786 56.3227 134.018 54.936C133.25 53.5493 132.866 51.928 132.866 50.072C132.866 48.1947 133.24 46.5733 133.986 45.208C134.754 43.8213 135.821 42.7653 137.186 42.04C138.552 41.2933 140.109 40.92 141.858 40.92C143.629 40.92 145.186 41.2827 146.53 42.008C147.874 42.7333 148.909 43.7573 149.634 45.08C150.381 46.3813 150.754 47.8853 150.754 49.592ZM145.218 48.76C145.24 47.5867 144.92 46.712 144.258 46.136C143.618 45.5387 142.818 45.24 141.858 45.24C140.856 45.24 140.024 45.5387 139.362 46.136C138.701 46.7333 138.328 47.608 138.242 48.76H145.218ZM159.079 35.32V59H153.607V35.32H159.079ZM162.345 36.12C162.345 35.288 162.643 34.6053 163.241 34.072C163.838 33.5173 164.627 33.24 165.609 33.24C166.59 33.24 167.379 33.5173 167.977 34.072C168.574 34.6053 168.873 35.288 168.873 36.12C168.873 36.9307 168.574 37.6133 167.977 38.168C167.379 38.7013 166.59 38.968 165.609 38.968C164.627 38.968 163.838 38.7013 163.241 38.168C162.643 37.6133 162.345 36.9307 162.345 36.12ZM168.329 41.144V59H162.857V41.144H168.329ZM189.067 49.592C189.067 50.04 189.013 50.5307 188.907 51.064H176.523C176.587 52.408 176.928 53.3787 177.547 53.976C178.165 54.552 178.955 54.84 179.915 54.84C180.725 54.84 181.397 54.6373 181.931 54.232C182.464 53.8267 182.816 53.304 182.987 52.664H188.779C188.544 53.9227 188.032 55.0533 187.243 56.056C186.453 57.0373 185.451 57.816 184.235 58.392C183.019 58.9467 181.664 59.224 180.171 59.224C178.421 59.224 176.864 58.8613 175.499 58.136C174.155 57.3893 173.099 56.3227 172.331 54.936C171.563 53.5493 171.179 51.928 171.179 50.072C171.179 48.1947 171.552 46.5733 172.299 45.208C173.067 43.8213 174.133 42.7653 175.499 42.04C176.864 41.2933 178.421 40.92 180.171 40.92C181.941 40.92 183.499 41.2827 184.843 42.008C186.187 42.7333 187.221 43.7573 187.947 45.08C188.693 46.3813 189.067 47.8853 189.067 49.592ZM183.531 48.76C183.552 47.5867 183.232 46.712 182.571 46.136C181.931 45.5387 181.131 45.24 180.171 45.24C179.168 45.24 178.336 45.5387 177.675 46.136C177.013 46.7333 176.64 47.608 176.555 48.76H183.531ZM200.687 38.712C199.791 38.712 199.141 38.904 198.735 39.288C198.33 39.672 198.106 40.2907 198.063 41.144H201.295V45.752H198.063V59H192.591V45.752H190.447V41.144H192.591V40.952C192.591 38.7333 193.231 37.0267 194.511 35.832C195.813 34.616 197.69 34.008 200.143 34.008C200.655 34.008 201.039 34.0187 201.295 34.04V38.744L200.687 38.712Z" fill="#ECFDF3"/>
<path id="Vector" d="M201.114 202.471C237.585 198.035 267.947 225.405 274.23 265.233C282.641 264.533 289.945 261.916 298.827 262.401C382.53 266.923 379.171 410.514 295.892 411.128C285.942 411.203 275.539 404.872 268.909 404.603C264.752 404.431 250.683 410.88 243.042 411.052C228.03 411.375 211.651 404.172 199.959 393.846C172.417 437.497 115.265 436.624 89.2923 391.715C87.3676 391.058 80.7469 398.024 78.293 399.639C23.4216 435.86 -39.6198 376.005 -17.4384 309.54C-6.66045 277.26 24.0086 258.094 54.3409 263.047C75.5407 225.706 117.998 215.682 150.775 240.845C161.225 220.527 179.904 205.044 201.085 202.46L201.114 202.471Z" fill="#ECFDF3"/>
</g>
</g>
<defs>
<clipPath id="clip0_293_11228">
<rect width="320" height="384" rx="16" fill="white"/>
</clipPath>
</defs>
</svg>
