<svg width="320" height="384" viewBox="0 0 320 384" fill="none" xmlns="http://www.w3.org/2000/svg">
<rect width="320" height="384" fill="white"/>
<g id="surprise">
<rect width="320" height="384" rx="16" fill="#FFFCF5"/>
<text id="surprise_2" fill="#FF9409" xml:space="preserve" style="white-space: pre" font-family="Poppins" font-size="32" font-weight="bold" letter-spacing="0em"><tspan x="92" y="59.2">surprise</tspan></text>
<g id="shines_l">
<path d="M172.655 222.883L214.034 220.026C215.689 219.912 217.095 221.224 217.095 222.883C217.095 224.542 215.689 225.854 214.034 225.74L172.655 222.883Z" fill="#FF9409"/>
<path d="M169.184 231.263L200.464 258.502C201.715 259.592 201.781 261.513 200.608 262.686C199.435 263.859 197.513 263.793 196.424 262.542L169.184 231.263Z" fill="#FF9409"/>
<path d="M160.804 234.734L163.661 276.113C163.775 277.768 162.464 279.173 160.804 279.173C159.145 279.173 157.833 277.768 157.948 276.113L160.804 234.734Z" fill="#FF9409"/>
<path d="M152.425 231.263L125.185 262.542C124.096 263.793 122.174 263.859 121.001 262.686C119.828 261.513 119.894 259.592 121.145 258.502L152.425 231.263Z" fill="#FF9409"/>
<path d="M148.954 222.883L107.575 225.74C105.919 225.854 104.514 224.542 104.514 222.883C104.514 221.224 105.919 219.912 107.575 220.026L148.954 222.883Z" fill="#FF9409"/>
<path d="M152.425 214.503L121.145 187.264C119.894 186.174 119.828 184.253 121.001 183.08C122.174 181.906 124.096 181.973 125.185 183.224L152.425 214.503Z" fill="#FF9409"/>
<path d="M160.804 211.032L157.948 169.653C157.833 167.998 159.145 166.592 160.804 166.592C162.464 166.592 163.775 167.998 163.661 169.653L160.804 211.032Z" fill="#FF9409"/>
<path d="M169.184 214.503L196.424 183.224C197.513 181.973 199.435 181.906 200.608 183.08C201.781 184.253 201.715 186.174 200.464 187.264L169.184 214.503Z" fill="#FF9409"/>
</g>
<g id="shines_s">
<path d="M199.272 238.856L254.247 257.075C256.449 257.805 257.57 260.246 256.688 262.392C255.807 264.537 253.292 265.488 251.212 264.462L199.272 238.856Z" fill="#FF9409"/>
<path d="M176.943 261.317L202.903 313.059C203.943 315.131 203.008 317.651 200.867 318.546C198.726 319.441 196.276 318.336 195.532 316.14L176.943 261.317Z" fill="#FF9409"/>
<path d="M145.272 261.43L127.01 316.384C126.279 318.584 123.835 319.707 121.689 318.827C119.543 317.947 118.593 315.434 119.62 313.354L145.272 261.43Z" fill="#FF9409"/>
<path d="M122.811 239.127L71.0243 265.102C68.9503 266.143 66.4295 265.21 65.5353 263.07C64.6411 260.931 65.7478 258.482 67.9452 257.737L122.811 239.127Z" fill="#FF9409"/>
<path d="M122.717 207.474L67.7417 189.255C65.5399 188.525 64.4187 186.083 65.3002 183.938C66.1817 181.793 68.6968 180.842 70.777 181.867L122.717 207.474Z" fill="#FF9409"/>
<path d="M145.045 185.012L119.085 133.271C118.045 131.199 118.981 128.679 121.121 127.784C123.262 126.889 125.712 127.994 126.457 130.189L145.045 185.012Z" fill="#FF9409"/>
<path d="M176.716 184.9L194.978 129.946C195.71 127.745 198.154 126.623 200.3 127.503C202.446 128.383 203.396 130.896 202.368 132.975L176.716 184.9Z" fill="#FF9409"/>
<path d="M199.178 207.203L250.964 181.227C253.038 180.187 255.559 181.12 256.453 183.259C257.348 185.398 256.241 187.848 254.043 188.593L199.178 207.203Z" fill="#FF9409"/>
</g>
<g id="elipses">
<circle id="Ellipse 66" cx="160" cy="299" r="5" fill="#FF9409"/>
<circle id="Ellipse 67" cx="160" cy="153" r="5" fill="#FF9409"/>
<circle id="Ellipse 68" cx="87" cy="226" r="5" transform="rotate(90 87 226)" fill="#FF9409"/>
<circle id="Ellipse 69" cx="233" cy="226" r="5" transform="rotate(90 233 226)" fill="#FF9409"/>
<circle id="Ellipse 70" cx="87" cy="226" r="5" transform="rotate(60 87 226)" fill="#FF9409"/>
<circle id="Ellipse 71" cx="233" cy="226" r="5" transform="rotate(60 233 226)" fill="#FF9409"/>
</g>
</g>
</svg>
