<svg width="326" height="386" viewBox="0 0 326 386" fill="none" xmlns="http://www.w3.org/2000/svg" xmlns:xlink="http://www.w3.org/1999/xlink">
<g id="surprise">
<rect x="2" width="320" height="384" rx="16" fill="#FFFCF5"/>
<path id="surprise_2" d="M102.384 40.92C104.645 40.92 106.448 41.4853 107.792 42.616C109.157 43.7467 110.011 45.24 110.352 47.096H105.232C105.083 46.3707 104.741 45.8053 104.208 45.4C103.696 44.9733 103.045 44.76 102.256 44.76C101.637 44.76 101.168 44.8987 100.848 45.176C100.528 45.432 100.368 45.8053 100.368 46.296C100.368 46.8507 100.656 47.2667 101.232 47.544C101.829 47.8213 102.757 48.0987 104.016 48.376C105.381 48.696 106.501 49.0267 107.376 49.368C108.251 49.688 109.008 50.2213 109.648 50.968C110.288 51.7147 110.608 52.7173 110.608 53.976C110.608 55 110.331 55.9067 109.776 56.696C109.221 57.4853 108.421 58.104 107.376 58.552C106.331 59 105.093 59.224 103.664 59.224C101.253 59.224 99.3227 58.6907 97.872 57.624C96.4213 56.5573 95.536 55.032 95.216 53.048H100.496C100.581 53.816 100.901 54.4027 101.456 54.808C102.032 55.2133 102.768 55.416 103.664 55.416C104.283 55.416 104.752 55.2773 105.072 55C105.392 54.7013 105.552 54.3173 105.552 53.848C105.552 53.2293 105.253 52.792 104.656 52.536C104.08 52.2587 103.131 51.9707 101.808 51.672C100.485 51.3947 99.3973 51.096 98.544 50.776C97.6907 50.456 96.9547 49.944 96.336 49.24C95.7173 48.5147 95.408 47.5333 95.408 46.296C95.408 44.696 96.016 43.4053 97.232 42.424C98.448 41.4213 100.165 40.92 102.384 40.92ZM131.398 41.144V59H125.894V55.768C125.382 56.8133 124.614 57.6453 123.59 58.264C122.587 58.8827 121.414 59.192 120.07 59.192C118.022 59.192 116.39 58.5093 115.174 57.144C113.979 55.7787 113.382 53.9013 113.382 51.512V41.144H118.822V50.84C118.822 52.056 119.131 53.0053 119.75 53.688C120.39 54.3493 121.243 54.68 122.31 54.68C123.419 54.68 124.294 54.328 124.934 53.624C125.574 52.92 125.894 51.9173 125.894 50.616V41.144H131.398ZM140.641 44.504C141.324 43.416 142.199 42.552 143.265 41.912C144.353 41.272 145.527 40.952 146.785 40.952V46.808H145.217C143.767 46.808 142.636 47.1173 141.825 47.736C141.036 48.3547 140.641 49.4 140.641 50.872V59H135.169V41.144H140.641V44.504ZM160.211 40.92C161.683 40.92 162.995 41.2933 164.147 42.04C165.321 42.7653 166.238 43.8213 166.899 45.208C167.582 46.5733 167.923 48.1947 167.923 50.072C167.923 51.928 167.582 53.5493 166.899 54.936C166.238 56.3227 165.321 57.3893 164.147 58.136C162.995 58.8613 161.683 59.224 160.211 59.224C158.846 59.224 157.673 58.9147 156.691 58.296C155.71 57.6773 154.995 56.8347 154.547 55.768V67.512H149.075V41.144H154.547V44.376C154.995 43.3093 155.71 42.4667 156.691 41.848C157.673 41.2293 158.846 40.92 160.211 40.92ZM158.451 45.72C157.299 45.72 156.35 46.1147 155.603 46.904C154.878 47.672 154.515 48.728 154.515 50.072C154.515 51.3947 154.878 52.4507 155.603 53.24C156.35 54.0293 157.299 54.424 158.451 54.424C159.625 54.424 160.563 54.04 161.267 53.272C161.993 52.504 162.355 51.4373 162.355 50.072C162.355 48.7067 161.993 47.64 161.267 46.872C160.563 46.104 159.625 45.72 158.451 45.72ZM176.235 44.504C176.918 43.416 177.792 42.552 178.859 41.912C179.947 41.272 181.12 40.952 182.379 40.952V46.808H180.811C179.36 46.808 178.23 47.1173 177.419 47.736C176.63 48.3547 176.235 49.4 176.235 50.872V59H170.763V41.144H176.235V44.504ZM184.157 36.12C184.157 35.288 184.456 34.6053 185.053 34.072C185.651 33.5173 186.44 33.24 187.421 33.24C188.403 33.24 189.192 33.5173 189.789 34.072C190.387 34.6053 190.685 35.288 190.685 36.12C190.685 36.9307 190.387 37.6133 189.789 38.168C189.192 38.7013 188.403 38.968 187.421 38.968C186.44 38.968 185.651 38.7013 185.053 38.168C184.456 37.6133 184.157 36.9307 184.157 36.12ZM190.141 41.144V59H184.669V41.144H190.141ZM200.415 40.92C202.677 40.92 204.479 41.4853 205.823 42.616C207.189 43.7467 208.042 45.24 208.383 47.096H203.263C203.114 46.3707 202.773 45.8053 202.239 45.4C201.727 44.9733 201.077 44.76 200.287 44.76C199.669 44.76 199.199 44.8987 198.879 45.176C198.559 45.432 198.399 45.8053 198.399 46.296C198.399 46.8507 198.687 47.2667 199.263 47.544C199.861 47.8213 200.789 48.0987 202.047 48.376C203.413 48.696 204.533 49.0267 205.407 49.368C206.282 49.688 207.039 50.2213 207.679 50.968C208.319 51.7147 208.639 52.7173 208.639 53.976C208.639 55 208.362 55.9067 207.807 56.696C207.253 57.4853 206.453 58.104 205.407 58.552C204.362 59 203.125 59.224 201.695 59.224C199.285 59.224 197.354 58.6907 195.903 57.624C194.453 56.5573 193.567 55.032 193.247 53.048H198.527C198.613 53.816 198.933 54.4027 199.487 54.808C200.063 55.2133 200.799 55.416 201.695 55.416C202.314 55.416 202.783 55.2773 203.103 55C203.423 54.7013 203.583 54.3173 203.583 53.848C203.583 53.2293 203.285 52.792 202.687 52.536C202.111 52.2587 201.162 51.9707 199.839 51.672C198.517 51.3947 197.429 51.096 196.575 50.776C195.722 50.456 194.986 49.944 194.367 49.24C193.749 48.5147 193.439 47.5333 193.439 46.296C193.439 44.696 194.047 43.4053 195.263 42.424C196.479 41.4213 198.197 40.92 200.415 40.92ZM228.629 49.592C228.629 50.04 228.576 50.5307 228.469 51.064H216.085C216.149 52.408 216.491 53.3787 217.109 53.976C217.728 54.552 218.517 54.84 219.477 54.84C220.288 54.84 220.96 54.6373 221.493 54.232C222.027 53.8267 222.379 53.304 222.549 52.664H228.341C228.107 53.9227 227.595 55.0533 226.805 56.056C226.016 57.0373 225.013 57.816 223.797 58.392C222.581 58.9467 221.227 59.224 219.733 59.224C217.984 59.224 216.427 58.8613 215.061 58.136C213.717 57.3893 212.661 56.3227 211.893 54.936C211.125 53.5493 210.741 51.928 210.741 50.072C210.741 48.1947 211.115 46.5733 211.861 45.208C212.629 43.8213 213.696 42.7653 215.061 42.04C216.427 41.2933 217.984 40.92 219.733 40.92C221.504 40.92 223.061 41.2827 224.405 42.008C225.749 42.7333 226.784 43.7573 227.509 45.08C228.256 46.3813 228.629 47.8853 228.629 49.592ZM223.093 48.76C223.115 47.5867 222.795 46.712 222.133 46.136C221.493 45.5387 220.693 45.24 219.733 45.24C218.731 45.24 217.899 45.5387 217.237 46.136C216.576 46.7333 216.203 47.608 216.117 48.76H223.093Z" fill="#FF9409"/>
<g id="shines">
<g id="shines_big">
<g id="shines_big_inner" data-figma-trr="r8u1.4-0f">
<path id="Polygon 10" d="M174.655 222.883L216.034 220.026C217.689 219.912 219.095 221.224 219.095 222.883V222.883C219.095 224.542 217.689 225.854 216.034 225.74L174.655 222.883Z" fill="#FF9409"/>
</g>
<use xlink:href="#shines_big_inner" transform="translate(71.192 -29.4887) rotate(45)"/>
<use xlink:href="#shines_big_inner" transform="translate(142.384) rotate(90)"/>
<use xlink:href="#shines_big_inner" transform="translate(171.873 71.192) rotate(135)"/>
<use xlink:href="#shines_big_inner" transform="translate(142.384 142.384) rotate(-180)"/>
<use xlink:href="#shines_big_inner" transform="translate(71.192 171.873) rotate(-135)"/>
<use xlink:href="#shines_big_inner" transform="translate(1.38328e-06 142.384) rotate(-90)"/>
<use xlink:href="#shines_big_inner" transform="translate(-29.4887 71.1919) rotate(-45)"/>
</g>
<g id="shines_small">
<g id="shines_small_inner" data-figma-trr="r8u2-0f">
<path id="Polygon 10_2" d="M201.272 238.855L256.247 257.075C258.449 257.805 259.57 260.246 258.688 262.392V262.392C257.807 264.537 255.292 265.488 253.212 264.462L201.272 238.855Z" fill="#FF9409"/>
</g>
<use xlink:href="#shines_small_inner" transform="translate(124.205 -51.4475) rotate(45)"/>
<use xlink:href="#shines_small_inner" transform="translate(248.41 7.07647e-06) rotate(90)"/>
<use xlink:href="#shines_small_inner" transform="translate(299.858 124.205) rotate(135)"/>
<use xlink:href="#shines_small_inner" transform="translate(248.41 248.41) rotate(-180)"/>
<use xlink:href="#shines_small_inner" transform="translate(124.205 299.858) rotate(-135)"/>
<use xlink:href="#shines_small_inner" transform="translate(-3.12842e-06 248.41) rotate(-90)"/>
<use xlink:href="#shines_small_inner" transform="translate(-51.4475 124.205) rotate(-45)"/>
</g>
</g>
<g id="elipses">
<circle id="Ellipse 66" cx="162" cy="299" r="5" fill="#FF9409"/>
<circle id="Ellipse 67" cx="162" cy="153" r="5" fill="#FF9409"/>
<circle id="Ellipse 68" cx="89" cy="226" r="5" transform="rotate(90 89 226)" fill="#FF9409"/>
<circle id="Ellipse 69" cx="235" cy="226" r="5" transform="rotate(90 235 226)" fill="#FF9409"/>
<circle id="Ellipse 70" cx="89" cy="226" r="5" transform="rotate(60 89 226)" fill="#FF9409"/>
<circle id="Ellipse 71" cx="235" cy="226" r="5" transform="rotate(60 235 226)" fill="#FF9409"/>
</g>
</g>
</svg>
